<mxfile host="Electron" agent="Mozilla/5.0 (Windows NT 10.0; Win64; x64) AppleWebKit/537.36 (KHTML, like Gecko) draw.io/28.2.7 Chrome/138.0.7204.251 Electron/37.7.1 Safari/537.36" version="28.2.7">
  <diagram name="Deployment" id="SIBezlBzpaddbK36n4zo">
    <mxGraphModel dx="1252" dy="750" grid="1" gridSize="10" guides="1" tooltips="1" connect="1" arrows="1" fold="1" page="1" pageScale="1" pageWidth="1169" pageHeight="827" math="0" shadow="0">
      <root>
        <mxCell id="0" />
        <mxCell id="1" parent="0" />
        <mxCell id="E54Gw3oPwlKRZKalIna0-6" style="edgeStyle=orthogonalEdgeStyle;rounded=0;orthogonalLoop=1;jettySize=auto;html=1;exitX=0.5;exitY=1;exitDx=0;exitDy=0;" parent="1" source="E54Gw3oPwlKRZKalIna0-3" target="E54Gw3oPwlKRZKalIna0-4" edge="1">
          <mxGeometry relative="1" as="geometry">
            <mxPoint x="300" y="158.46" as="sourcePoint" />
          </mxGeometry>
        </mxCell>
        <mxCell id="E54Gw3oPwlKRZKalIna0-3" value="&lt;h1&gt;&lt;font style=&quot;color: rgb(240, 240, 240); line-height: 90%;&quot;&gt;🌐&amp;nbsp;&lt;font face=&quot;Lucida Console&quot;&gt;ISP / Internet&lt;/font&gt;&lt;/font&gt;&lt;/h1&gt;" style="text;html=1;whiteSpace=wrap;overflow=hidden;rounded=0;align=center;verticalAlign=middle;fontSize=14;" parent="1" vertex="1">
          <mxGeometry x="139.63" y="100" width="320" height="71.54" as="geometry" />
        </mxCell>
        <mxCell id="E54Gw3oPwlKRZKalIna0-9" style="edgeStyle=orthogonalEdgeStyle;rounded=0;orthogonalLoop=1;jettySize=auto;html=1;" parent="1" source="E54Gw3oPwlKRZKalIna0-4" target="E54Gw3oPwlKRZKalIna0-8" edge="1">
          <mxGeometry relative="1" as="geometry" />
        </mxCell>
        <mxCell id="E54Gw3oPwlKRZKalIna0-4" value="&lt;h2&gt;&lt;font style=&quot;font-size: 21px;&quot; face=&quot;Lucida Console&quot;&gt;Modem (Bridge)&lt;/font&gt;&lt;/h2&gt;" style="shape=parallelogram;perimeter=parallelogramPerimeter;whiteSpace=wrap;html=1;fixedSize=1;fillColor=#647687;strokeColor=#314354;fontColor=#ffffff;" parent="1" vertex="1">
          <mxGeometry x="168" y="218.46" width="263.25" height="50" as="geometry" />
        </mxCell>
        <mxCell id="E54Gw3oPwlKRZKalIna0-7" value="&lt;font face=&quot;Verdana&quot; style=&quot;font-size: 19px;&quot;&gt;(Public IP)&lt;/font&gt;" style="text;html=1;whiteSpace=wrap;strokeColor=none;fillColor=none;align=center;verticalAlign=middle;rounded=0;" parent="1" vertex="1">
          <mxGeometry x="315.62" y="298.46" width="110" height="30" as="geometry" />
        </mxCell>
        <mxCell id="E54Gw3oPwlKRZKalIna0-8" value="&lt;font face=&quot;Lucida Console&quot; style=&quot;font-size: 19px;&quot;&gt;[eth0]&lt;/font&gt;" style="text;html=1;whiteSpace=wrap;strokeColor=none;fillColor=none;align=center;verticalAlign=middle;rounded=0;rotation=0;" parent="1" vertex="1">
          <mxGeometry x="269.62" y="358.46" width="60" height="30" as="geometry" />
        </mxCell>
        <mxCell id="E54Gw3oPwlKRZKalIna0-33" style="edgeStyle=orthogonalEdgeStyle;rounded=0;orthogonalLoop=1;jettySize=auto;html=1;entryX=0.5;entryY=0;entryDx=0;entryDy=0;" parent="1" source="E54Gw3oPwlKRZKalIna0-16" target="E54Gw3oPwlKRZKalIna0-27" edge="1">
          <mxGeometry relative="1" as="geometry" />
        </mxCell>
        <mxCell id="E54Gw3oPwlKRZKalIna0-34" style="edgeStyle=orthogonalEdgeStyle;rounded=0;orthogonalLoop=1;jettySize=auto;html=1;entryX=0.5;entryY=0;entryDx=0;entryDy=0;" parent="1" source="E54Gw3oPwlKRZKalIna0-16" target="E54Gw3oPwlKRZKalIna0-28" edge="1">
          <mxGeometry relative="1" as="geometry" />
        </mxCell>
        <mxCell id="E54Gw3oPwlKRZKalIna0-35" style="edgeStyle=orthogonalEdgeStyle;rounded=0;orthogonalLoop=1;jettySize=auto;html=1;entryX=0.5;entryY=0;entryDx=0;entryDy=0;" parent="1" source="E54Gw3oPwlKRZKalIna0-16" target="E54Gw3oPwlKRZKalIna0-29" edge="1">
          <mxGeometry relative="1" as="geometry" />
        </mxCell>
        <mxCell id="E54Gw3oPwlKRZKalIna0-36" style="edgeStyle=orthogonalEdgeStyle;rounded=0;orthogonalLoop=1;jettySize=auto;html=1;entryX=0.5;entryY=0;entryDx=0;entryDy=0;" parent="1" source="E54Gw3oPwlKRZKalIna0-16" target="E54Gw3oPwlKRZKalIna0-30" edge="1">
          <mxGeometry relative="1" as="geometry" />
        </mxCell>
        <mxCell id="E54Gw3oPwlKRZKalIna0-16" value="&lt;b style=&quot;color: rgb(188, 17, 66); font-size: 26px;&quot;&gt;Raspberry Pi 5&lt;/b&gt;" style="swimlane;fontStyle=0;childLayout=stackLayout;horizontal=1;startSize=50;horizontalStack=0;resizeParent=1;resizeParentMax=0;resizeLast=0;collapsible=1;marginBottom=0;whiteSpace=wrap;html=1;rounded=1;arcSize=14;" parent="1" vertex="1">
          <mxGeometry x="139.63" y="388.46" width="320" height="140" as="geometry">
            <mxRectangle x="340" y="470" width="220" height="40" as="alternateBounds" />
          </mxGeometry>
        </mxCell>
        <mxCell id="E54Gw3oPwlKRZKalIna0-17" value="&lt;font face=&quot;Lucida Console&quot; style=&quot;font-size: 16px;&quot;&gt;&lt;b style=&quot;&quot;&gt;OS: &lt;/b&gt;Lite&lt;/font&gt;" style="text;strokeColor=none;fillColor=none;align=center;verticalAlign=middle;spacingLeft=4;spacingRight=4;overflow=hidden;points=[[0,0.5],[1,0.5]];portConstraint=eastwest;rotatable=0;whiteSpace=wrap;html=1;" parent="E54Gw3oPwlKRZKalIna0-16" vertex="1">
          <mxGeometry y="50" width="320" height="30" as="geometry" />
        </mxCell>
        <mxCell id="E54Gw3oPwlKRZKalIna0-18" value="&lt;font face=&quot;Lucida Console&quot; style=&quot;font-size: 16px;&quot;&gt;&lt;b style=&quot;&quot;&gt;RAM&lt;/b&gt;: 8 GB&lt;/font&gt;" style="text;strokeColor=none;fillColor=none;align=center;verticalAlign=middle;spacingLeft=4;spacingRight=4;overflow=hidden;points=[[0,0.5],[1,0.5]];portConstraint=eastwest;rotatable=0;whiteSpace=wrap;html=1;" parent="E54Gw3oPwlKRZKalIna0-16" vertex="1">
          <mxGeometry y="80" width="320" height="30" as="geometry" />
        </mxCell>
        <mxCell id="E54Gw3oPwlKRZKalIna0-19" value="&lt;font face=&quot;Lucida Console&quot; style=&quot;font-size: 16px;&quot;&gt;&lt;b style=&quot;&quot;&gt;SSD&lt;/b&gt;: 128 GB&lt;/font&gt;" style="text;strokeColor=none;fillColor=none;align=center;verticalAlign=middle;spacingLeft=4;spacingRight=4;overflow=hidden;points=[[0,0.5],[1,0.5]];portConstraint=eastwest;rotatable=0;whiteSpace=wrap;html=1;" parent="E54Gw3oPwlKRZKalIna0-16" vertex="1">
          <mxGeometry y="110" width="320" height="30" as="geometry" />
        </mxCell>
        <mxCell id="E54Gw3oPwlKRZKalIna0-13" value="" style="shape=image;verticalLabelPosition=bottom;labelBackgroundColor=default;verticalAlign=top;aspect=fixed;imageAspect=0;editableCssRules=.*;image=data:image/svg+xml,PHN2ZyB4bWxucz0iaHR0cDovL3d3dy53My5vcmcvMjAwMC9zdmciIHdpZHRoPSIyNjciIG92ZXJmbG93PSJ2aXNpYmxlIiBwcmVzZXJ2ZUFzcGVjdFJhdGlvPSJ4TWlkWU1pZCBtZWV0IiB2aWV3Qm94PSItMTEgMC4wMDAzNzgzNzAyODUwMzQxNzk3IDI2NyAzMjYuOTE5NjE2Njk5MjE4NzUiIGhlaWdodD0iMzI2LjkxOTYxNjY5OTIxODc1Ij48ZyB0cmFuc2Zvcm09InRyYW5zbGF0ZSgtMC4wIC0wLjApIj48cGF0aCBkPSJNNjkuMjk4LjAwNWMtMS42NTMuMDUxLTMuNDMzLjY2Mi01LjQ1MyAyLjI1NUM1OC45LjM1MyA1NC4xMDItLjMxIDQ5LjgxMyAzLjU3M2MtNi42MjMtLjg1OS04Ljc3NS45MTQtMTAuNDA2IDIuOTg0LTEuNDU0LS4wMy0xMC44NzktMS40OTUtMTUuMjAyIDQuOTUzQzEzLjM0MyAxMC4yMjUgOS45MSAxNy44OTkgMTMuOCAyNS4wNTZjLTIuMjE5IDMuNDM0LTQuNTE4IDYuODI3LjY3IDEzLjM3NS0xLjgzNSAzLjY0Ni0uNjk3IDcuNjAyIDMuNjI2IDEyLjM4OS0xLjE0IDUuMTI3IDEuMTAyIDguNzQzIDUuMTI1IDExLjU2Mi0uNzUzIDcuMDE1IDYuNDMzIDExLjA5NCA4LjU3OCAxMi41NDcuODI0IDQuMDg3IDIuNTQxIDcuOTQ1IDEwLjc0OCAxMC4wNzcgMS4zNTQgNi4wOTIgNi4yODYgNy4xNDQgMTEuMDYzIDguNDIyLTE1Ljc4NyA5LjE3Ny0yOS4zMjUgMjEuMjUtMjkuMjMzIDUwLjg3NWwtMi4zMTMgNC4xMjVjLTE4LjEwMiAxMS4wMDgtMzQuMzg4IDQ2LjM5LTguOTIgNzUuMTQ4IDEuNjYzIDkuMDAyIDQuNDUzIDE1LjQ2OCA2LjkzNyAyMi42MjQgMy43MTUgMjguODM2IDI3Ljk2MiA0Mi4zMzkgMzQuMzU4IDQzLjkzNiA5LjM3MSA3LjEzOCAxOS4zNTIgMTMuOTExIDMyLjg2IDE4LjY1NiAxMi43MzEgMTMuMTMxIDI2LjUyNSAxOC4xMzYgNDAuMzk0IDE4LjEyOC4yMDQgMCAyOC4yNzctNC45OTYgNDEuMDEtMTguMTI4IDEzLjUwNi00Ljc0NSAyMy40ODctMTEuNTE4IDMyLjg2LTE4LjY1NiA2LjM5NC0xLjU5NyAzMC42NDEtMTUuMSAzNC4zNTYtNDMuOTM2IDIuNDg0LTcuMTU2IDUuMjc0LTEzLjYyMiA2LjkzOC0yMi42MjQgMjUuNDY2LTI4Ljc2MSA5LjE4MS02NC4xNDQtOC45Mi03NS4xNTJsLTIuMzE3LTQuMTI1Yy4wOTItMjkuNjIyLTEzLjQ0Ni00MS42OTYtMjkuMjMzLTUwLjg3NSA0Ljc3Ni0xLjI3OCA5LjcxLTIuMzMgMTEuMDYyLTguNDIyIDguMjA3LTIuMTMzIDkuOTI1LTUuOTkgMTAuNzQ4LTEwLjA3NyAyLjE0Ni0xLjQ1MyA5LjMzMS01LjUzMiA4LjU4LTEyLjU0NyA0LjAyMS0yLjgxOSA2LjI2NC02LjQzNiA1LjEyMy0xMS41NjIgNC4zMjQtNC43ODcgNS40NjEtOC43NDMgMy42MjYtMTIuMzkgNS4xOS02LjU0NCAyLjg4Ny05LjkzNy42NzEtMTMuMzcxIDMuODg4LTcuMTU3LjQ1Ny0xNC44MzItMTAuNDA5LTEzLjU0Ni00LjMyLTYuNDQ4LTEzLjc0NC00Ljk4NC0xNS4yMDItNC45NTQtMS42My0yLjA2OS0zLjc4Mi0zLjg0Mi0xMC40MDUtMi45ODMtNC4yODktMy44ODMtOS4wODUtMy4yMjEtMTQuMDMyLTEuMzEzLTUuODc0LTQuNjM1LTkuNzYtLjkyLTE0LjIuNDg1LTcuMTEyLTIuMzI0LTguNzM5Ljg1OS0xMi4yMzMgMi4xNTYtNy43NTYtMS42MzktMTAuMTEzIDEuOTI5LTEzLjgzIDUuNjk1bC00LjMyNi0uMDg2Yy0xMS42OTggNi44OTQtMTcuNTEgMjAuOTMyLTE5LjU3IDI4LjE0OS0yLjA2LTcuMjE4LTcuODU5LTIxLjI1Ni0xOS41NTUtMjguMTQ5bC00LjMyNS4wODZjLTMuNzIzLTMuNzY2LTYuMDc5LTcuMzM0LTEzLjgzNS01LjY5NUM4Ni43OCAzLjYwMyA4NS4xNi40MiA3OC4wNDIgMi43NDRjLTIuOTE0LS45MjItNS41OTQtMi44MzgtOC43NDktMi43NEwtMTEgMTQxIi8+PHBhdGggZmlsbD0iIzc1QTkyOCIgZD0iTTQ2LjAwOCAzMC4zMzRjMzEuMDM2IDE2LjAwMSA0OS4wNzkgMjguOTQ1IDU4Ljk2NCAzOS45NjktNS4wNjIgMjAuMjg5LTMxLjQ3IDIxLjIxNS00MS4xMjYgMjAuNjQ2IDEuOTc3LS45MiAzLjYyNy0yLjAyMyA0LjIxMi0zLjcxNi0yLjQyMy0xLjcyMi0xMS4wMTQtLjE4Mi0xNy4wMTItMy41NTEgMi4zMDQtLjQ3OCAzLjM4Mi0uOTQzIDQuNDU5LTIuNjQzLTUuNjY2LTEuODA3LTExLjc3LTMuMzY1LTE1LjM2LTYuMzU5IDEuOTM3LjAyNCAzLjc0Ni40MzQgNi4yNzYtMS4zMjEtNS4wNzUtMi43MzUtMTAuNDkxLTQuOTAzLTE0LjY5OS05LjA4NCAyLjYyNC0uMDY0IDUuNDUzLS4wMjYgNi4yNzYtLjk5MS00LjY0NS0yLjg3OC04LjU2NS02LjA3OC0xMS44MDktOS41NzkgMy42NzIuNDQzIDUuMjIzLjA2MiA2LjExMS0uNTc4LTMuNTEyLTMuNTk3LTcuOTU2LTYuNjM0LTEwLjA3NS0xMS4wNjYgMi43MjYuOTQgNS4yMjEgMS4zIDcuMDE5LS4wODItMS4xOTMtMi42OTItNi4zMDUtNC4yOC05LjI0OS0xMC41NzEgMi44NzEuMjc5IDUuOTE1LjYyNiA2LjUyNCAwLTEuMzMyLTUuNDI4LTMuNjE4LTguNDgtNS44Ni0xMS42NDIgNi4xNDMtLjA5MSAxNS40NTEuMDI0IDE1LjAzLS40OTVMMzEuODkgMTUuMzljNi4wMDEtMS42MTYgMTIuMTQxLjI1OSAxNi41OTkgMS42NTEgMi4wMDEtMS41NzktLjAzNi0zLjU3Ni0yLjQ3OC01LjYxNSA1LjEuNjgxIDkuNzA4IDEuODUzIDEzLjg3NCAzLjQ2OCAyLjIyNS0yLjAwOS0xLjQ0NS00LjAxOS0zLjIyMS02LjAyOCA3Ljg3OSAxLjQ5NCAxMS4yMTcgMy41OTUgMTQuNTM0IDUuNjk4IDIuNDA3LTIuMzA3LjEzOC00LjI2OC0xLjQ4Ni02LjI3NiA1Ljk0MSAyLjIgOS4wMDEgNS4wNDEgMTIuMjIyIDcuODQ1IDEuMDkyLTEuNDc0IDIuNzc1LTIuNTU1Ljc0My02LjExMSA0LjIxOCAyLjQzMSA3LjM5NSA1LjI5NiA5Ljc0NSA4LjUwNiAyLjYxLTEuNjYyIDEuNTU1LTMuOTM0IDEuNTY5LTYuMDI5IDQuMzg0IDMuNTY2IDcuMTY2IDcuMzYxIDEwLjU3MSAxMS4wNjYuNjg2LS41IDEuMjg2LTIuMTkzIDEuODE3LTQuODcyIDEwLjQ1NyAxMC4xNDUgMjUuMjM0IDM1LjcgMy43OTggNDUuODMyLTE4LjI0My0xNS4wNDYtNDAuMDMxLTI1Ljk4My02NC4xNzYtMzQuMTg3bC4wMDctLjAwNE0yMTAuNjg2IDMwLjMzNGMtMzEuMDMyIDE2LjAwMy00OS4wNzUgMjguOTQzLTU4Ljk1OSAzOS45NjkgNS4wNjIgMjAuMjg5IDMxLjQ2OSAyMS4yMTUgNDEuMTI1IDIwLjY0Ni0xLjk3Ny0uOTItMy42MjctMi4wMjMtNC4yMTEtMy43MTYgMi40MjMtMS43MjIgMTEuMDE0LS4xODIgMTcuMDExLTMuNTUxLTIuMzA0LS40NzgtMy4zODEtLjk0My00LjQ1OS0yLjY0MyA1LjY2Ny0xLjgwNyAxMS43NzEtMy4zNjUgMTUuMzYtNi4zNTktMS45MzcuMDI0LTMuNzQ2LjQzNC02LjI3Ni0xLjMyMSA1LjA3Ni0yLjczNSAxMC40OTItNC45MDMgMTQuNy05LjA4NC0yLjYyNS0uMDY0LTUuNDU0LS4wMjYtNi4yNzYtLjk5MSA0LjY0NS0yLjg3OCA4LjU2NS02LjA3OCAxMS44MDktOS41NzktMy42NzMuNDQzLTUuMjIzLjA2Mi02LjExMS0uNTc4IDMuNTExLTMuNTk3IDcuOTU2LTYuNjM0IDEwLjA3NS0xMS4wNjYtMi43MjcuOTQtNS4yMjIgMS4zLTcuMDItLjA4MiAxLjE5My0yLjY5MiA2LjMwNi00LjI4IDkuMjQ5LTEwLjU3MS0yLjg3LjI3OS01LjkxNS42MjYtNi41MjQgMCAxLjMzNS01LjQzIDMuNjIxLTguNDgyIDUuODYzLTExLjY0NC02LjE0My0uMDkxLTE1LjQ1MS4wMjQtMTUuMDMtLjQ5NWwzLjc5OS0zLjg4MmMtNi4wMDEtMS42MTUtMTIuMTQxLjI2LTE2LjU5OSAxLjY1Mi0yLjAwMS0xLjU3OS4wMzUtMy41NzYgMi40NzctNS42MTUtNS4wOTkuNjgtOS43MDggMS44NTMtMTMuODczIDMuNDY4LTIuMjI2LTIuMDA5IDEuNDQ1LTQuMDE5IDMuMjIxLTYuMDI4LTcuODc5IDEuNDk0LTExLjIxNyAzLjU5NS0xNC41MzUgNS42OTgtMi40MDctMi4zMDctLjEzNy00LjI2OCAxLjQ4Ny02LjI3Ni01Ljk0MSAyLjItOS4wMDEgNS4wNDEtMTIuMjIyIDcuODQ1LTEuMDkzLTEuNDc0LTIuNzc1LTIuNTU1LS43NDQtNi4xMTEtNC4yMTcgMi40MzEtNy4zOTQgNS4yOTYtOS43NDQgOC41MDYtMi42MS0xLjY2Mi0xLjU1NS0zLjkzNS0xLjU2OS02LjAyOS00LjM4NCAzLjU2Ni03LjE2NiA3LjM2LTEwLjU3MSAxMS4wNjYtLjY4Ni0uNS0xLjI4Ni0yLjE5My0xLjgxNy00Ljg3My0xMC40NTcgMTAuMTQ2LTI1LjIzNCAzNS43MDEtMy43OTggNDUuODMzIDE4LjIzMy0xNS4wNSA0MC4wMi0yNS45ODUgNjQuMTY2LTM0LjE4OWgtLjAwNCIvPjxwYXRoIGZpbGw9IiNCQzExNDIiIGQ9Ik0xNjUuOTMzIDIzNi45MzNjLjEwOCAxOC45MzMtMTYuNDQ5IDM0LjM2Mi0zNi45OCAzNC40NjEtMjAuNTMyLjEtMzcuMjY0LTE1LjE2Ny0zNy4zNzItMzQuMWEyMS43MiAyMS43MiAwIDAgMSAwLS4zNjFjLS4xMDgtMTguOTMyIDE2LjQ0OC0zNC4zNjEgMzYuOTgtMzQuNDYxIDIwLjUzMi0uMSAzNy4yNjMgMTUuMTY3IDM3LjM3MiAzNC4xdi4zNjFNMTA3LjI0NiAxMzkuMDA0YzE1LjQwNCAxMC4wOTMgMTguMTgxIDMyLjk2OSA2LjIwMiA1MS4wOTUtMTEuOTc5IDE4LjEyNy0zNC4xNzcgMjQuNjQxLTQ5LjU4MSAxNC41NDktMTUuNDA0LTEwLjA5My0xOC4xOC0zMi45NjktNi4yMDItNTEuMDk1IDExLjk3OS0xOC4xMjcgMzQuMTc3LTI0LjY0MSA0OS41ODEtMTQuNTQ5TTE0OC44MjIgMTM3LjE3N2MtMTUuNDAzIDEwLjA5Mi0xOC4xOCAzMi45NjktNi4yMDIgNTEuMDk1IDExLjk3OSAxOC4xMjcgMzQuMTc3IDI0LjY0MSA0OS41ODEgMTQuNTQ4IDE1LjQwNC0xMC4wOTIgMTguMTgxLTMyLjk2OCA2LjIwMi01MS4wOTUtMTEuOTc4LTE4LjEyNi0zNC4xNzYtMjQuNjQtNDkuNTgxLTE0LjU0OE0zMC4yNTggMTU1LjUwNGMxNi42MzEtNC40NTggNS42MTUgNjguODAzLTcuOTE3IDYyLjc5Mi0xNC44ODUtMTEuOTcyLTE5LjY3OS00Ny4wMzMgNy45MTctNjIuNzkyTTIyMi40NTMgMTU0LjU5MWMtMTYuNjMzLTQuNDU3LTUuNjE1IDY4LjgwNyA3LjkxNyA2Mi43OTYgMTQuODg1LTExLjk3MyAxOS42NzktNDcuMDM4LTcuOTE3LTYyLjc5Nk0xNjUuOTQ2IDEwMC4wMzRjMjguNzAxLTQuODQ2IDUyLjU4MyAxMi4yMDYgNTEuNjE5IDQzLjMyOC0uOTQ0IDExLjkzMi02Mi4xOTMtNDEuNTUxLTUxLjYxOS00My4zMjhNODYuNjQ2IDk5LjEyMWMtMjguNzAzLTQuODQ3LTUyLjU4MyAxMi4yMDktNTEuNjE5IDQzLjMyOS45NDQgMTEuOTMxIDYyLjE5NC00MS41NTIgNTEuNjE5LTQzLjMyOU0xMjcuODc0IDkxLjg2M2MtMTcuMTMtLjQ0Ni0zMy41NyAxMi43MTMtMzMuNjEgMjAuMzQ2LS4wNDcgOS4yNzQgMTMuNTQ0IDE4Ljc3IDMzLjcyNyAxOS4wMTEgMjAuNjEuMTQ3IDMzLjc2Mi03LjYwMSAzMy44MjgtMTcuMTcyLjA3Ni0xMC44NDQtMTguNzQ1LTIyLjM1My0zMy45NDUtMjIuMTg2di4wMDFNMTI4LjkyIDI4Mi4wNDNjMTQuOTM1LS42NTIgMzQuOTc1IDQuODEgMzUuMDE1IDEyLjA1Ny4yNDggNy4wMzYtMTguMTc1IDIyLjkzNC0zNi4wMDUgMjIuNjI3LTE4LjQ2Ni43OTctMzYuNTczLTE1LjEyNi0zNi4zMzYtMjAuNjQ1LS4yNzctOC4wOTIgMjIuNDg0LTE0LjQxIDM3LjMyNi0xNC4wMzlNNzMuNzU2IDIzOS4wOThjMTAuNjMzIDEyLjgxIDE1LjQ4MSAzNS4zMTYgNi42MDcgNDEuOTUxLTguMzk1IDUuMDY1LTI4Ljc4MiAyLjk3OS00My4yNzItMTcuODM4LTkuNzczLTE3LjQ2OC04LjUxNC0zNS4yNDMtMS42NTItNDAuNDY1IDEwLjI2MS02LjI1IDI2LjExNSAyLjE5MyAzOC4zMTggMTYuMzUyaC0uMDAxTTE4MS45NTYgMjM1LjAzN2MtMTEuNTA1IDEzLjQ3NS0xNy45MTEgMzguMDUzLTkuNTE5IDQ1Ljk2OSA4LjAyNSA2LjE1IDI5LjU2NyA1LjI5IDQ1LjQ3OS0xNi43ODkgMTEuNTU0LTE0LjgyOSA3LjY4My0zOS41OTQgMS4wODMtNDYuMTctOS44MDQtNy41ODMtMjMuODc5IDIuMTIyLTM3LjA0MyAxNi45ODZ2LjAwNCIvPjwvZz48L3N2Zz4=;" parent="1" vertex="1">
          <mxGeometry x="121.01" y="368.46" width="48.99" height="60" as="geometry" />
        </mxCell>
        <mxCell id="E54Gw3oPwlKRZKalIna0-21" style="edgeStyle=orthogonalEdgeStyle;rounded=0;orthogonalLoop=1;jettySize=auto;html=1;entryX=0.721;entryY=-0.012;entryDx=0;entryDy=0;entryPerimeter=0;" parent="1" source="E54Gw3oPwlKRZKalIna0-7" target="E54Gw3oPwlKRZKalIna0-16" edge="1">
          <mxGeometry relative="1" as="geometry" />
        </mxCell>
        <mxCell id="E54Gw3oPwlKRZKalIna0-27" value="&lt;div&gt;&lt;font face=&quot;Lucida Console&quot;&gt;&lt;b&gt;Device (1)&lt;/b&gt;&lt;/font&gt;&lt;/div&gt;&lt;div&gt;&lt;font face=&quot;Lucida Console&quot;&gt;192.168.10.x&lt;/font&gt;&lt;/div&gt;" style="whiteSpace=wrap;html=1;aspect=fixed;fillColor=#6d8764;fontColor=#ffffff;strokeColor=#3A5431;" parent="1" vertex="1">
          <mxGeometry x="70.00000000000001" y="658.46" width="100" height="100" as="geometry" />
        </mxCell>
        <mxCell id="E54Gw3oPwlKRZKalIna0-28" value="&lt;div&gt;&lt;font face=&quot;Lucida Console&quot;&gt;&lt;b&gt;Device (2)&lt;/b&gt;&lt;/font&gt;&lt;/div&gt;&lt;div&gt;&lt;font face=&quot;Lucida Console&quot;&gt;192.168.10.y&lt;/font&gt;&lt;/div&gt;" style="whiteSpace=wrap;html=1;aspect=fixed;fillColor=#6d8764;fontColor=#ffffff;strokeColor=#3A5431;" parent="1" vertex="1">
          <mxGeometry x="189.62" y="658.46" width="100" height="100" as="geometry" />
        </mxCell>
        <mxCell id="E54Gw3oPwlKRZKalIna0-29" value="&lt;div&gt;&lt;font face=&quot;Lucida Console&quot;&gt;&lt;b&gt;Device (3)&lt;/b&gt;&lt;/font&gt;&lt;/div&gt;&lt;div&gt;&lt;font face=&quot;Lucida Console&quot;&gt;Wi-Fi&lt;/font&gt;&lt;/div&gt;" style="whiteSpace=wrap;html=1;aspect=fixed;fillColor=#76608a;fontColor=#ffffff;strokeColor=#432D57;align=center;verticalAlign=middle;fontFamily=Helvetica;fontSize=12;" parent="1" vertex="1">
          <mxGeometry x="309.62" y="658.46" width="100" height="100" as="geometry" />
        </mxCell>
        <mxCell id="E54Gw3oPwlKRZKalIna0-30" value="&lt;div&gt;&lt;font face=&quot;Lucida Console&quot;&gt;&lt;b&gt;Device (4)&lt;/b&gt;&lt;/font&gt;&lt;/div&gt;&lt;div&gt;&lt;font face=&quot;Lucida Console&quot;&gt;Wi-Fi&lt;/font&gt;&lt;/div&gt;" style="whiteSpace=wrap;html=1;aspect=fixed;fillColor=#76608a;fontColor=#ffffff;strokeColor=#432D57;" parent="1" vertex="1">
          <mxGeometry x="429.62" y="658.46" width="100" height="100" as="geometry" />
        </mxCell>
        <mxCell id="E54Gw3oPwlKRZKalIna0-38" style="edgeStyle=orthogonalEdgeStyle;rounded=0;orthogonalLoop=1;jettySize=auto;html=1;entryX=0;entryY=0.5;entryDx=0;entryDy=0;" parent="1" source="E54Gw3oPwlKRZKalIna0-37" target="E54Gw3oPwlKRZKalIna0-39" edge="1">
          <mxGeometry relative="1" as="geometry">
            <mxPoint x="182.39999999999998" y="573.46" as="targetPoint" />
          </mxGeometry>
        </mxCell>
        <mxCell id="E54Gw3oPwlKRZKalIna0-37" value="&lt;span style=&quot;font-family: &amp;quot;Lucida Console&amp;quot;;&quot;&gt;&lt;font style=&quot;font-size: 17px;&quot;&gt;[eth1]&lt;/font&gt;&lt;/span&gt;" style="text;html=1;whiteSpace=wrap;strokeColor=none;fillColor=none;align=center;verticalAlign=middle;rounded=0;" parent="1" vertex="1">
          <mxGeometry x="90.00000000000001" y="558.46" width="60" height="30" as="geometry" />
        </mxCell>
        <mxCell id="E54Gw3oPwlKRZKalIna0-39" value="&lt;font face=&quot;Lucida Console&quot; style=&quot;font-size: 17px;&quot;&gt;LAN switch&lt;/font&gt;" style="text;html=1;whiteSpace=wrap;strokeColor=none;fillColor=none;align=center;verticalAlign=middle;rounded=0;strokeWidth=1;" parent="1" vertex="1">
          <mxGeometry x="174.03000000000003" y="558.46" width="106.98" height="30" as="geometry" />
        </mxCell>
        <mxCell id="E54Gw3oPwlKRZKalIna0-42" style="edgeStyle=orthogonalEdgeStyle;rounded=0;orthogonalLoop=1;jettySize=auto;html=1;entryX=0;entryY=0.5;entryDx=0;entryDy=0;exitX=1;exitY=0.5;exitDx=0;exitDy=0;" parent="1" source="E54Gw3oPwlKRZKalIna0-43" target="E54Gw3oPwlKRZKalIna0-44" edge="1">
          <mxGeometry relative="1" as="geometry">
            <mxPoint x="391.01" y="573.46" as="targetPoint" />
            <mxPoint x="389.62" y="573.46" as="sourcePoint" />
          </mxGeometry>
        </mxCell>
        <mxCell id="E54Gw3oPwlKRZKalIna0-43" value="&lt;font style=&quot;font-size: 17px;&quot;&gt;&lt;span style=&quot;font-family: &amp;quot;Lucida Console&amp;quot;;&quot;&gt;[wlan0&lt;/span&gt;&lt;span style=&quot;background-color: transparent; color: light-dark(rgb(0, 0, 0), rgb(255, 255, 255)); font-family: &amp;quot;Lucida Console&amp;quot;;&quot;&gt;]&lt;/span&gt;&lt;/font&gt;" style="text;html=1;whiteSpace=wrap;strokeColor=none;fillColor=none;align=center;verticalAlign=middle;rounded=0;" parent="1" vertex="1">
          <mxGeometry x="322.12" y="558.46" width="75" height="30" as="geometry" />
        </mxCell>
        <mxCell id="E54Gw3oPwlKRZKalIna0-44" value="&lt;font face=&quot;Lucida Console&quot; style=&quot;font-size: 18px;&quot;&gt;Wi-Fi AP&lt;/font&gt;" style="text;html=1;whiteSpace=wrap;strokeColor=none;fillColor=none;align=center;verticalAlign=middle;rounded=0;strokeWidth=1;" parent="1" vertex="1">
          <mxGeometry x="431.25" y="558.46" width="101.39" height="30" as="geometry" />
        </mxCell>
        <mxCell id="E54Gw3oPwlKRZKalIna0-45" style="edgeStyle=orthogonalEdgeStyle;rounded=0;orthogonalLoop=1;jettySize=auto;html=1;exitX=0.5;exitY=1;exitDx=0;exitDy=0;" parent="1" source="E54Gw3oPwlKRZKalIna0-30" target="E54Gw3oPwlKRZKalIna0-30" edge="1">
          <mxGeometry relative="1" as="geometry" />
        </mxCell>
        <mxCell id="E54Gw3oPwlKRZKalIna0-47" value="&lt;div&gt;&lt;ul style=&quot;line-height: 130%;&quot;&gt;&lt;li&gt;&lt;span style=&quot;font-size: 18px; line-height: 130%;&quot;&gt;&lt;font&gt;Normal →&amp;nbsp;ISP&lt;/font&gt;&lt;/span&gt;&lt;/li&gt;&lt;li&gt;&lt;span style=&quot;font-size: 18px; line-height: 130%;&quot;&gt;&lt;font&gt;Privacy →&amp;nbsp;WG →&amp;nbsp;VPS&lt;/font&gt;&lt;/span&gt;&lt;/li&gt;&lt;li&gt;&lt;span style=&quot;font-size: 18px; line-height: 130%;&quot;&gt;&lt;font&gt;Anon →&amp;nbsp;Tor transparent&lt;/font&gt;&lt;/span&gt;&lt;/li&gt;&lt;/ul&gt;&lt;/div&gt;" style="rounded=1;whiteSpace=wrap;html=1;align=left;fontFamily=Lucida Console;verticalAlign=middle;" parent="1" vertex="1">
          <mxGeometry x="715" y="150" width="315" height="100" as="geometry" />
        </mxCell>
        <mxCell id="E54Gw3oPwlKRZKalIna0-48" value="&lt;h1 style=&quot;margin-top: 0px;&quot;&gt;&lt;font&gt;Routing Layers&lt;/font&gt;&lt;/h1&gt;" style="text;html=1;whiteSpace=wrap;overflow=hidden;rounded=0;align=center;fontFamily=Lucida Console;verticalAlign=middle;fontSize=14;" parent="1" vertex="1">
          <mxGeometry x="762.5" y="110" width="220" height="40" as="geometry" />
        </mxCell>
        <mxCell id="E54Gw3oPwlKRZKalIna0-49" value="&lt;blockquote style=&quot;margin: 0 0 0 40px; border: none; padding: 0px;&quot;&gt;&lt;font style=&quot;line-height: 130%; font-size: 18px;&quot;&gt;&lt;span style=&quot;background-color: transparent; color: light-dark(rgb(0, 0, 0), rgb(255, 255, 255)); line-height: 130%;&quot;&gt;↳&amp;nbsp;&lt;/span&gt;&lt;span style=&quot;background-color: transparent; color: light-dark(rgb(0, 0, 0), rgb(255, 255, 255)); line-height: 130%;&quot;&gt;Runs on VPS or separate server&lt;br&gt;&lt;/span&gt;&lt;span style=&quot;background-color: transparent; color: light-dark(rgb(0, 0, 0), rgb(255, 255, 255)); line-height: 130%;&quot;&gt;↳&amp;nbsp;&lt;/span&gt;&lt;span style=&quot;background-color: transparent; color: light-dark(rgb(0, 0, 0), rgb(255, 255, 255)); line-height: 130%;&quot;&gt;Manages mesh network (KubePi + clients)&lt;/span&gt;&lt;span style=&quot;background-color: transparent;&quot;&gt;&lt;div style=&quot;&quot;&gt;&lt;span style=&quot;background-color: transparent; line-height: 130%;&quot;&gt;↳&amp;nbsp;&lt;/span&gt;&lt;span style=&quot;background-color: transparent; color: light-dark(rgb(0, 0, 0), rgb(255, 255, 255)); line-height: 130%;&quot;&gt;Provides Subnet Routing &amp;amp; Exit Nodes&lt;/span&gt;&lt;/div&gt;&lt;/span&gt;&lt;/font&gt;&lt;/blockquote&gt;" style="rounded=1;whiteSpace=wrap;html=1;align=left;fontFamily=Lucida Console;verticalAlign=middle;" parent="1" vertex="1">
          <mxGeometry x="617.5" y="330" width="510" height="100" as="geometry" />
        </mxCell>
        <mxCell id="E54Gw3oPwlKRZKalIna0-50" value="&lt;h1 style=&quot;margin-top: 0px;&quot;&gt;&lt;font&gt;Headscale (Control Plane)&lt;/font&gt;&lt;/h1&gt;" style="text;html=1;whiteSpace=wrap;overflow=hidden;rounded=0;align=center;fontFamily=Lucida Console;verticalAlign=middle;fontSize=14;" parent="1" vertex="1">
          <mxGeometry x="630" y="290" width="380" height="40" as="geometry" />
        </mxCell>
        <mxCell id="E54Gw3oPwlKRZKalIna0-52" value="&lt;blockquote style=&quot;margin: 0 0 0 40px; border: none; padding: 0px;&quot;&gt;&lt;font style=&quot;line-height: 130%;&quot;&gt;&lt;span style=&quot;background-color: transparent;&quot;&gt;&lt;span style=&quot;font-size: 18px; line-height: 130%;&quot;&gt;↳ Insertion triggers systemd script&lt;/span&gt;&lt;br&gt;&lt;/span&gt;&lt;span style=&quot;font-size: 18px; line-height: 130%;&quot;&gt;↳ Decrypts mode file → switches profile&lt;/span&gt;&lt;/font&gt;&lt;/blockquote&gt;" style="rounded=1;whiteSpace=wrap;html=1;align=left;fontFamily=Lucida Console;verticalAlign=middle;" parent="1" vertex="1">
          <mxGeometry x="617.5" y="504" width="510" height="76" as="geometry" />
        </mxCell>
        <mxCell id="E54Gw3oPwlKRZKalIna0-53" value="&lt;h1 style=&quot;margin-top: 0px;&quot;&gt;&lt;font&gt;YubiKey&lt;/font&gt;&lt;/h1&gt;" style="text;html=1;whiteSpace=wrap;overflow=hidden;rounded=0;align=left;fontFamily=Lucida Console;verticalAlign=middle;fontSize=14;" parent="1" vertex="1">
          <mxGeometry x="650" y="464" width="380" height="40" as="geometry" />
        </mxCell>
        <mxCell id="E54Gw3oPwlKRZKalIna0-55" value="&lt;div&gt;&lt;ul style=&quot;line-height: 130%;&quot;&gt;&lt;li&gt;&lt;span style=&quot;font-size: 18px; line-height: 130%;&quot;&gt;&lt;font&gt;Headscale mesh (admin / private access)&lt;/font&gt;&lt;/span&gt;&lt;/li&gt;&lt;li&gt;&lt;span style=&quot;font-size: 18px; background-color: transparent; color: light-dark(rgb(0, 0, 0), rgb(255, 255, 255)); line-height: 130%;&quot;&gt;&lt;font&gt;SSH + YubiKey (FIDO2)&lt;/font&gt;&lt;/span&gt;&lt;/li&gt;&lt;li&gt;&lt;span style=&quot;font-size: 18px; background-color: transparent; color: light-dark(rgb(0, 0, 0), rgb(255, 255, 255)); line-height: 130%;&quot;&gt;&lt;font&gt;Optional WG jump host&amp;nbsp;&lt;/font&gt;&lt;/span&gt;&lt;/li&gt;&lt;/ul&gt;&lt;/div&gt;" style="rounded=1;whiteSpace=wrap;html=1;align=left;fontFamily=Lucida Console;verticalAlign=middle;" parent="1" vertex="1">
          <mxGeometry x="617.5" y="664" width="510" height="96" as="geometry" />
        </mxCell>
        <mxCell id="E54Gw3oPwlKRZKalIna0-56" value="&lt;h1 style=&quot;margin-top: 0px;&quot;&gt;&lt;font&gt;Remote Access&lt;/font&gt;&lt;/h1&gt;" style="text;html=1;whiteSpace=wrap;overflow=hidden;rounded=0;align=center;fontFamily=Lucida Console;verticalAlign=middle;fontSize=14;" parent="1" vertex="1">
          <mxGeometry x="682.5" y="624" width="380" height="40" as="geometry" />
        </mxCell>
        <mxCell id="E54Gw3oPwlKRZKalIna0-57" value="&lt;h1 style=&quot;margin-top: 0px;&quot;&gt;KubePi&lt;/h1&gt;" style="text;html=1;whiteSpace=wrap;overflow=hidden;rounded=0;align=center;fontSize=29;" parent="1" vertex="1">
          <mxGeometry x="332" y="20" width="505" height="80" as="geometry" />
        </mxCell>
        <mxCell id="E54Gw3oPwlKRZKalIna0-58" value="" style="shape=image;verticalLabelPosition=bottom;labelBackgroundColor=default;verticalAlign=top;aspect=fixed;imageAspect=0;image=data:image/png,iVBORw0KGgoAAAANSUhEUgAAAUcAAAFHCAYAAAAySY5rAAAAAXNSR0IArs4c6QAAAARnQU1BAACxjwv8YQUAAAAJcEhZcwAADsIAAA7CARUoSoAAAAAYdEVYdFNvZnR3YXJlAFBhaW50Lk5FVCA1LjEuOWxu2j4AAAC2ZVhJZklJKgAIAAAABQAaAQUAAQAAAEoAAAAbAQUAAQAAAFIAAAAoAQMAAQAAAAMAAAAxAQIAEAAAAFoAAABphwQAAQAAAGoAAAAAAAAAnZMAAOgDAACdkwAA6AMAAFBhaW50Lk5FVCA1LjEuOQADAACQBwAEAAAAMDIzMAGgAwABAAAAAQAAAAWgBAABAAAAlAAAAAAAAAACAAEAAgAEAAAAUjk4AAIABwAEAAAAMDEwMAAAAAAJFj+K2cP21wAAbfJJREFUeF7tnWV4VFfXhu+TiXuIQoK7u7tDKZS2tJQKFeru/ertW3cX6pR6KYVCcSsUd3cJhAQixD2T/f3IQGGTzJzRnJk593Xlet8+a9JOjjxnn73XXktBQwghZMkjUBTFF2gIJAJlQB5wUAhRXs1nfYCrgElADyAByAR2An8BM4QQJ+Xf09EuiqI0Mp3TUUBroA5wClgP/ADME0IYq/k9f6AZEA74AynAcSFEhfxZT0BRFFnSOYsQwqN+gD7AL0AOIKSfMmAT8BrQy/T5HsDuaj57/o8RmAUMAZRq/psKEFVdTP9x7A/gU9OxNsXGAHNM50w+j+f/bAQ6mM5db+B1YLPpGpE/mw38dPaa8aQfraEpq9biAbIFRVGiga+A8XLMDEeB+oCvHDDDAeAb4DQwFOhvGp36ApXAXmA28Kk+2nQMiqLUB+4CLgNamUywAjgJrASWAknAbaa3BbWUm/4djeSAGWYCtwkhzsgBd0RrI0dNfRt3MUdFUfxMRtRDMrR8IAO4G2gg/VptUgp8ALwihMiTgzqWURQlAngWuM/0iqsVkoGpQIzpp8Rk1idMr+3/Vjd9o0V0czSD1s1RqTp7twHPA/XkuBtwGngLmGcy7+ZAiCmWBqwTQhyQfsfjMZ3XFkAv0xwvQAFwCDgOjAUeBWKlX3UHTgIvCCG+kgNaQzdHM2jZHE030KfAnXLMw9gJvA1MF1o+IQ7AdE4nA48BbeW4h/GpEOIeWdQSujmaoTbvRUVRkoDuQGOgrmmFEKDItKDSFLhB+jVPZgkwWQiRJgc8AUVREoHvTQtb3sJ04AgQCQSZtDzTW8NRYENtzk3r5mgGV5ujoigNgZuBm6ycPPcWjgGjhRD75IA7oyhKG2CBab5Y50KOAtOAb4QQJ+SgM9GaOWoKeWnfWT+mUeFnpolrOVXCaT8GX0WgXKyb+/H1U0TL3mHCL8DnopiLfk4BreRj6K4/QBvT3Kv8d7rkJyLWTzTpEnqRbunH4KdcpDn5pxz4BAiTj6GzfrSGpqzaFQdIUZRmwHxTcq1L8TEoDL0pnrBoX1L2FZGyr5hTh0uoNJr/u5t0DmXMfXXZtjiHzX+foSjvonxhZ5MKDBRCHJID7oSiKC2AFaZpE5cS3ziQ3ldEE9c4kB+fTqYw13wed0CIgcSWQSS1CiKxZRDbF+ew599aSTQ4YHp7OCIHHI3WRo6a+jbONkfTPNN6Uy5graD4wKg769JuYAQA5aWVHN5cwO5VeRzbXlijUQ69KZ4uo6MoK6lkze+ZbJ6fXeNng8IMtO4bztZF2YhKOWozJ4BXgQAg0KSdNi3cuNytzWHakXQDEGeSSkzpTE+bchAdQnC4gVZ9w9kyP1sOnSMkwpdBk+No07dqCvu3l0+QvKtQ/hgAgSEGWvYOo+2ACOq1CEJRoNIo+PvjNPatqRVjPMsJoKez5591czSDI8xRURQD0BPoakpVCTCFcoHBQDfpV+ymaddQfP0UzqSWcSatDGO5+b9DUWDk7Qm0HxJ5gV6Ua2TPv7ls+vsM+VkXjiz8Any4e2oz/IN8AMg4Xsrir05xcn/xBZ87y7gHE4mI92Ph1FOkHyuRw45kIzBFCLFTDtQGiqJ0MiXgd5VjjqTdwAgG3RDH0u9Os7eaEZ2iQKfhUfS/JoaAEAMABzfmM+vti9c7kloF0XVMHZp2DsXg998tWWkUzPkglQPr8y/4fHUEhhiok+hPdFIAaQeKyUwplT9iL5uAf0yLOUbTw+aQSV/viAekbo5msMccFUUJNeWi3XXeiMEl+Af5MP6RRBq2D6HSKMg8UUrqgRJSDxZzcn8ROacvzsH1MShc/3JD4pucHYT9h7FcsH1pDutnZ1Fw5j+TvOG1RiSc93khYN3MTFbPyLxohNhlVBRDb47HWC5Y+t1pti/JufAD5xER50du+sXf0QpKgAeFEFPlgCtRFOUe4J3zHog2ERnvV+05w/SQGnl7Aq37VY0Ep95zmLzMCz8bHG7g0vvr0bD92RTSKv79NYO1M7PO/XNiiyD6Xh1z0efOsvr3TNbMyJRlFB9IaBJIvRZB1Gte9RMe6wcCVv2awbo///tvuIjTpjn8t4QQRXJQLbo5msFWc1QUpZ2pKENjOeYqfP0VJr3Y8ALzOkt2WhlHtxdyZGsByTuLzr0O974yhn5Xx8gfP0d5aSXr/sxi45wzBAT7cMcnzfD1v/iUHdtRyN8fpV4wF9ljXDQDr/svZ3nnshwWf3O62lHtlHebMPfjVE4fsXuE+R1whxCiTA44E0VRAkyjxevlmLV0GRVFfONA5n928RtkZLwflz2SRFzD/7z364eOcCb1vz+3Xosgxj2YSFj0xbtAk3cV8ttLJwiN8mXIjfG07B0mf+QCvnvsKBnHq0aAQWEGmnYNpXHHEBp1CCEwtGo0ej7r/sxi1S8ZsuxKDgPjhBB75IAadHM0gy3maKp4sgmIlmO2EhLhS1CYAV//qqXlygpBXlYFpYXm3xzCov249f0m1RrYWYrzjexfl8/+tXkMuj6u2pGjzJmTZRQXGklscTY17WJyM8qZ+XoKmSmlGPwUbnmnCZHxfhd8JnlXIX++eZLy0guHmXd83JTAUAOz3z3JsR3Vz4dZwRLgSldtU1QUJRL4Exgkx6xCgQHXxNJzfDRb5mez9LvTF4Rj6gdw9bP1CYm40PS2LspmyddVn207IIKRdyRg8K35/O9fl0/jjiHnpkfMsXHOGU4fK6F133AadwzBx1DzvzdlXxG/vHAcs7eQAqGRvoREVf0NPj4KJYVGCnMqKCt22OR0BtBdCJEsByyhm6MZbDTHpQ5J5FVg1O0JNO8ZRqBpjkimrLiS9GMlpB4sIe1QMWmHii+aG7zm+QbUbxN8geYqSguNzH43laZdQ+l6SZQcBuDEniJmvpFCWcl/N8OUd5tQJ9EfY4Xgr/dOcmhTwQW/YwMbgeFCiFw54EgURYkyFXroLMesQoERtybQcVjVHPD62Vms/Om/EVhco0CufqY+QWEXXxeiEma8doLElkH0uTKm1u6o5d+ns+nv/+pPKD4QkxRA3WZB1G0eSN1mQdSp51+jcedmlLN2RiY7VzjklC0WQoyQRUvo5mgGa81RUZSewDpZt5XIeD+ueb5hta9ENXEmtYzDWwo4sqWA/KwKJr/eSNWowFlUGoXZEQamEeSMV1OoNAp8/RXu/ao5fgFV39lYLvjjjRSSd9o9glwHjBBCWF5NsAFTIYgljlhgG3RDHN0vrXPunw9syGf2O1ULJ5Hxflz/SqNqjfEsao65szm+u4i/3jtJw/YhNO0SSuNOIWa/s8zhzQXMfvckxgrr7kEzdBVCbJFFc+jmaAYbzPEV4ClZt4eouv5c83wDQk2vHp7KlgXZLP32NH0mxND3qgvnPctLK/n9lRM1roRbwRxgvBDycpF9mDIS5pqKx9pFdX+/sULw03PJnEkt47qXGhJT3671Hc1zdFshf76dUu18tB28KIR4QRbNoZujGWwwxz+trJmoijqJVQYpzy95Gke3FdK4Y0i1V0FJoZGfnjtOVjUpIQHBPpQWqfa7N4QQ/yeL9qAoyjvAw7JeEzV9304jIhk+5WwRngspLaok80QpiS1rnuf1BJJ3FjLzjRQqHGuMmCrWXyWL5tDN0Qw2mONiYJisnyUw1EB84+oXPBSl6qY5988+CgHBPihK1e816hBSa3OHWiEvo5wfn02mIPvCedXrXm7Isu9Ok3ZI9er2DUKIH2TRFhRFudlU4FcVPcZFExjiw8qfL1zFbdo1lMsfTUKpvRkQTbB9SQ7ZaWWUlVRSaRQXLMxUVlbNs1eHqBQc31NUtdGwehYKIawa2evmaAYbzPF3YIKsn8Xgq3Ddyw1rNEgdy6QfK+HnF46fu0lCony5+7NmlBQZ+fXF46QnXzyyrIYSoK+1c1AyiqL0MFXbVvWe22V0FENviufU4RKmP3XsnJ7QNJBrnm9wbp5Vx3rWzcpilfTAkfhFCDFJFs2hNXN096vDbLUYY0XV1quKMutMV+c/4hoFMu6hxHMLDg3bBYNStSPjyifrq128CgR+UBTF5qeUKZfxW7XG2KJnGENujAfTvuazu1Qi4/248on6ujHawemjJaz5/eLkdIm9suBuuPsVslwWZLJSSln9u9knnI4FGncMYeTtCaBUbZs7S2iUL1c8noR/oKrLqDXwjCxawf9MFXUsUrdZIJfcU5ezAxHFB9r2DycozMCEJ+sTHKF+FVfnQiqNgnmfpKlZ1f5HFtwNTY1jbXitNpg2xZutsuJjUJj8eiNiG6gadOjUwLEdhTTqcPFWtwMb8pn97klz809nqTB1zdssB8xhStlaDVh0tZBIX258vdG5ROezlBQayTldXu0OJh31rJ+VddH8bTWkAA2tzVLQX6sdiGmz+weyLlNpFCz+8pSam1fHDNUZI0CLHmF0u+S/PEEz+ALfmB5qqjBV2PlajTEqPnDp/fUuMkZMhRl0Y7SPvIzyC/aGm+FDa41Ri7i1OVrDyQPFHNlm984PnRoYeF0s9cxsbzyPDqbq62q5TW1/l35Xx9KgrXdnGDiTdbOyLtp6WgPaGgLaiFubo6nvi+p5LJVPPR0b8DEoXHpfPbXzjy8qilL9MPQ8TJWWnpP16qjXIoielzlse72ORGFOBbv/Ub218FlT7VS3RtWVrGHeAkJlsSZSDxQ7YteHTg1ExPkx4FpV3UvrAQ/JYjU8fl6r1BrxC/Dhkrvren3OojPZOPeMNYniocAbsuhuuO3lpChKA8CqDHyAPatUP/10bKDziCi1r7aPKYpS40SloihxanfB9L8mlqi6/rKs4ygE1Rb0tcBE05ud2+K25giMUzNJL3NwQ4H5sk469qHAiNsSLqhoXQPhFnqA3wNYfPWOqR9A55EXVlTXcSyph4ov2iWlAl/TPeq2uLM5dpQFNRTmVpB6wLGv1sX5xotKl3kzUXX96TKq+pJpEvdVlxiuKEowcLesX4QCw29NqPWKOJpBVFWJUrlooppDG21eyLTpHtUK7myOF1ZyrYYe4+rQc3w07QdH0LRr6LlyTo4mKMxARXklWxZks31JDiUF5oviegN9rowhJPLilBqJhBqqd98C1Fwi3USbfuEktVK1Qu7RZKWUsn52FrtW5hIa5evw3T+hdXxp2D6Ehu1DaNEzjM4jougzIUbNvWT1m52W0NQj15okcEVRXgeekPXz6TgskhG3WZzPdyiZJ0pZOzOL4nwjbQeE06JnmMMvVnehuora1bBTCNHh7D8oVZnAe4GWF37sQnwMClPeu7jaubdQkF3BgXX5HNyYT1Rdf/peHePSKlIV5YKvHzpCXkb1vXZMvCqEeFoWa0JrSeCa+jZWmuNoYJ6sn4/iA5Nfa0Rco4ve3JzOiT1FrPwpg6yTpbToGUb7wZEeX/5KpqJc8OX9hy9oElYDPYQQG6k6r/1NxSXM0mFIJCPvcO2Dr7apKBfsX5vH7pV5pOwtok3/cPpeFUNYtOsfEGtnZvHvrxZ3ygwXQiyRxZrQzdEMVppjAHDElBZSI1F1/Zn8Wu1V507eWciK6emkJ5dSp54/7QZF0GFIpFVVmt2Zs0V1LfC5EOIuqs7rN5aSxH0MCre+34SIONebQm1wJrWMXSty2bEsh+J8Iw3bhzB4clytbYdNO1TCz88nW9pffQJoZk2zNd0czWCNOVJ1MB8E3pN1mZa9whj7QGKt5cGJSti9KpfVv2eSl1GOr79Cy17hdBga6fFzZhVlgs/uOmRpHjbHtD/eAJyylLvaul84l95n9pno9pwdJe5YmkPKvqoFxIbtQhhwbSwJTV3/JnSW/KwKfnou+aJ2tNVwvxDiI1k0h26OZrDBHIOAzaaKL2bpMCTyXGWZ2sJYLtiyMJu1M7POdTKMTgqg49BI2g4Mr7Gxl7uzYno6G+f+1/ypBsaZypH9LgdkJr3Y0GMfKlkppWxfmsPuf/IoMV0jsQ0CGHRDXI17211FUa6Rn19M5sxJi4PB3UA3IYTqasjo5mgea82RqgPa2dTMyWIWcIueYYy5rx6+lnPwnEpJgZENf51h099nzr2aGPwUWvUOp8e4Oh7XsyTndDlfPXDYUn7p2VqN18qB84ltEMBNb9Vae3LnIKqanm2en83hLQXnCqQEhRnoc2UMnUZE1nq6Um5GOTNePXFBj+4aKAf6CCE2yQFL6OZoBlvMkaqD+gswUdaro36bYC57OFETc35ZJ8tY/v1pjm47r9OfAk06h9J9TB0atFO108Qt+OXF45zYUyTL55Nleq02m9E95Mb4GtvOuhsVZYLdK3PZ9PeZC0zH10+h6yV16HV5dK3NlZ9P6oFiZr19ksJciwtr2FIB/Cy6OZrBFnM0LcycBFRXHYiM9+OKx5OITtLGCC15VyHLp6WTcfzClgNxDQPoNCKKtgMjan20ay8q03oscvvHTYmIde+FmKJcI9sWZ7NlQTbF+RfOxTbtGsqQG+M1k6K0b00e8z+zqpp+JpBozULMWXRzNION5mhT7+rAUAMTn61fK2k+1VFpFOxYlsvq3zIoyrvwhgmJ8qXLyCg6jYh023nJvMxypt572K6amnGNArnxjUay7DZkHC9l099n2Ls676I2qAlNAxlyY7ym0r02zzvDsu/TbTln3awtaIxujuax0RyvAX6WdTWEx/hx89uNNfHqcpbSokrW/ZnJ5nnZF6VK+Af50HV0FN3G1CEw1P1MctoTx0g/ZtUc/QVU12PaHUhPLmXtjEwObMy/yGjCon0ZMCmONv3CNXU3nthTxC//O37R91XJBCHEH7JoCd0czWCjOU6wtMLZYUgksQ0COLG3iJzT5RjLKwmL9qNFzzA6DImstRQfc5xJLWPJ16dJ3nXefKQJ/yAfuoyqMkktzJ2qZfHXp9i2KEeWVTPhqfpVfbbdhPRjJayZkcXBTReboo9BoeslVdvwVNbAdClFeUY2zski9UAxhTlGgiMM1EkMoFH7YNb8kVVtP/PzuEwI8ZcsWkI3RzPYaI7tgJ2yfj7+QT7c+n4TNXt9Nce+NXks/z692qoo/kE+dB4ZRfdL3cMkdy7LYcHUU7Ksmnu/au4Wf+fpoyWsmZHJoc3/rTyfT1LrYIZPiXfLrIS9q/OY+2GqLMu0FEIckEVL6OZoBhvNUVWTrcYdQ5jwZH2N/cXqKCuuZPXvmWxZkE2l8eJj5B9oMsmx2jbJ9GMlTHviv/7R1hAR58ftHzWVZU1hyRRDInwZeH0sbftHuOV1mJ9VwbQnjl60iCRxAmhkSw8ZrZmj9sbzVmJqsjVN1mWObi9kleW9oJrEP8iHwZPjmPx6o2on7MtKKlk/O4sv7jvM+llZ1qwsupSIOIupqDWi5a2CuRnlzP0wle+fPMahTRcbo+IDnUdGMeW9xrQd4J7GWF5ayex3T1oyRoDvbDFGLaKp02TLyJGqJ04scMhUQNUsg26Io/ulNRag1j6iaiviih/SKcqt/kINi/al9xUxmpxPffe6/RctNKmhZe8wxj2orbYkZSWVbJp7puqBVEMLgfjGgQy/NZ66zS5+qLkLlUbBzDdTLszHrZ4c035qm5o1aW3kqKlvY6s5UnVgHzX1lDGPApfcXbfqCe7GlBQYWTYtnd0ra277EN8kkME3xFG/jXaSyT+9/ZDaZOILqI3yczVRaRRsW5TDmj8yaxxJ+Qf60H9SLJ1HRqGxe94qRCXM/SiVfWtUtUl4SAjxviyqRTdHM9hpjj7AUmCQHJNRfKpK+XcYYnYzhltwZGsBi748ZbYSedOuoQy6Lo46iba/1jqKqfccVlO04CK6jI5i6E3xsuxyDmzIZ+VPGWSn1Zzj3LBdCCPvSND0VIAajBWCvz9OZf/afDlUHauAQfa8UuvmaAZ7zJGqg5sErLdUxgyq/vKB18bSY5zqjTWapbSokhXT09mxPOei+a6z+BgUOo2IpP/E2FrN63x/8gGbyvi36RfOmFqsxJN5opTFX58mZW/NWyD9g3wYdH0cHYdGauzOsp7y0kpmvX2SYzssvkpj2qHWQwhhcRnbHLo5msFec6TqAHcHVqtpowDQ87JoBkyK1diRsI3knYUsnHqKXDPVmUPr+DLkxnha9gqTQ06nokzw3g37ZVkVjTuGMOGp+rLsdMpLK1k7M4uNc85UmylwlsadQhh5e0KtFJ51NCWFRv54LYXUg6p6LZWZCk1YvSNGRjdHMzjIHP2AQrXmiKmd6NBb4t16bugsZSWVrPwpg22Lss1WwWnSOZRht8S79NUv53Q5X95/WJZVURvVeI5uK2Tx16fITa/5YRMYYmDw5DjaDXLvOeyzFOUa+f3VE9bsZCoHQoQQNR8klejmaAYHmWNzwOoE1HYDIxh1p+c0hj++u4h5n6SanYv0C/Ch9xXRdB9bxyUlsfavy+ev907Ksip8DAoPfNcCX3/nf8+C7AqWfXea/evMz7U1bB/CJffUJTTK/TYXVEdBdgW/vXScLMv1GmWaCiGOyKK1aM0cPcQKLsDiqkNM/QDiGgUSGe9HZLwf9dsEEx7rZ9NcmFZp0DaYm95sTIseNb8+l5dWsvLnDKY9cexctWlncryarZBqqTQKSyXP7EZUVrV1+PqhI2aN0eCrMPC6OK56ur7HGCOmuevEVsHEN666N6Lq+lOveZCanWWue/1wIZqyageNHBsAybJ+PpHxflzzfAOPmB9Sw/YlOSz/Pt28+SvQdXQdBlwb65TyaJVGwef3HKawmm2Qamk/JJJRTmqqlXO6nHmfpHJyv/mHRFRdf8beX4/4Jtqo5uRsDm0q4K/3TlrKTU0SQtj2SnAeWhs5aurbOMgcFVPhVLMVUcNjqwzS3WsDquXMyTLmfJhqcS4pOtGfMfc6/ubfvzafv9637/7xC/Dhzk+bOrwi0e6VuSz55jRlxWYeHkDbAREMmxKvyUIRzuDI1gJmvXPyovJqEllCCIeUStLN0QyOMEeqDvJPgMVqxJHxfkx4sj5RdS2+iXsExnLByp8z2DTvTI0pP5jm9/peFUPPy6IdMgcrKmHaE0cvKuZrC72viKbfxFhZtonC3AoWTj3F4c0FcugCAkMMjLg9oVZW+GuLvavzmP9pmqURI8D3QogbZdEWdHM0gwPNsZ8pKdUiQWEGLn8sqdo9y57KoU0F/P1xqsWRUmKLIC65t57dVam3Lcph8de2V+M5H78AH256q7Hd3+ngxnwWfXHqosLCMnGNAhn/SKJLV/Vrm/Wzslj5S4bZB6gJAfQTQqyRA7agm6MZHGWOVB3o34CrZL06fP0URt9dl1Z9LG7N9hjOnCzjz3dSLHaS8w+sKnrRYahtu4nOpJbx/f8dMz/faSWJLYK45oUGNq2wlxVXsmzaaXYur3nb5Vla9w1n5B0J+AU4YPjsBlQaBUu+Oc32Japrbv4khLhOFm1FN0czONgco4ANQDM5Vi0KdB0dxcDr4jD4auqwOI2y4kr+/ji1qpKMBVr2CmPUnXWt2l1TnG/kx2eTzW61sxVbFmcyjpcy+52TZJ8y/318DAoDro117wIlVpKXWc6cD1JJPWB+Qeo8DgA9hRCqndQSujmawZHmSNXBbgYsARrKsZqo2yyIcQ/WI9xLFmoQsOaPTNbMyDSbNA5QJ9Gf8Q8nqmpMVpRnZMZrJzh9xPwCkD10GR3F0BvjVV3Fe1blsejLUxZHsEFhBsY+WI+G7dyn4ri9HNlawLxP0mosolENx4ChjshtPB/dHM3gaHOk6oDXB2YC3eRYTQSEGBhyYxztBnrGrgc1HN5cwNyPLM9D+gf6MPKOBLNTEFkny5j1doqaHsd206pPOKPurPnV11ghWP59OlsXZsuhi4hrGMD4x5K8JoOhvLRqN9WWhdlq5hfPsgG4whGpOzK6OZrBGeZI1UEPAHYALeSYOZp0CWXkbQmE1rGYBOsRnD5Swh+vp6gqKdb1kjoMuj72wnk/ATtX5LLsu9OUlZg3WUcSkxTAJffWJb7xhelHBWcqmP3eSVWvig3aBXP5o0lWTRu4Myf2FLHg8zRyTlu16+8A0EEIYX/aQTXo5mgGZ5kjVQd+O9BB1s0RGGKgw9AIBl4XJ4c8lpzT5cx49YTFeTmApFZBjHswkZAoXzKOl7Lsu9Mc3+3cXSw14WNQ6DIqit5XRBMYauDEniL+ev9kjQWBz6dl7zDG3FMPgxOS37VISaGR2e+c5OSBYks5jDLbhBCdZdFR6OZoBieb4wpgoKyfxddfYcRtCcQkBeAX6IN/oI/XjBhlinKN/PH6CU6pmC8MifQlqVUQB9bnW5yzdAUBwT406xbG3tV5ZqvonKXrJVEMnuwZRUespdIoyD9TQXlJJcZywa5/ctmywOz0wzIhxFBZdBRaM0fveIeoYp0snE9FmWDlTxkoBoU69fy91hgBgiMMTHy+AY06WF6UKMypYP86bRgjpv3Bu1fmWjZGBQZcG8uQG73TGDGNtiNi/YipH8CpIyVsXWTWGAHWyoIno6nLwskjx/7ASlmX8QvwYdiUeK9ajKkJY4Vg9rsnLe4gcTsUGH5LAp1G2Ja76UlUlAmWfHuanctUZeT0EUI4zSC1NnLU1LdxsjkagK1AezlWHS17hTHkpniPqrpiC8ZywZ9vpXB0u+0VdbTGkBvj6HqJ9+Qw1kTK3iIWfXlKbYmybUBXe9ogWEI3RzM40xypOvhDTH1mVBEQ7EO/q01NkrxpAkKiokzwxxsnOL6rdhZbHEn/a2Lpdbn7t8awh9JCI6tnZLJlvvmCyBLDhRBLZNGR6OZoBmebI1Un4HPgDlk3R91mgQy8Tltd/FxNeWklM1494ZK6j86iz4QY+l7lkAIybkmlUbBjaS6rf8+wuKdc4hMhxL2y6Gh0czSDi8zRD1hsbuW6Jhp1CKH/NbEkNHVsOS93ITutjK8edOimCJcRVdefW99vIstegaiEPf/msmZGprV5jZjetEY7og2CJXRzNIMrzJGqkxBs2jUzUo6poWH7EAZdH0tcI+8yyZ0rclnwWZosuw23fdjU7mo+7kbyzkJWTE8nPdmmvO1lwGVCCJesyOnmaAZXmSNVJyIA+Bi4VY6pQVGqqrb0uSqGqATvqAc5840UDm9xyX3iFAZdH0f3sd6xEHN0eyH//pKhKle1Bj4DHhRCqFqtcQRaM0cvXmagTAhxGzAZsFy/SkII2PNvHrPfOUlhjuXtdu5OYXaF269Y71+XJ0seybEdhcz5INVWY8wBrhNC3O1KY9QimrJqV44cz8dUnOIrYIQcO5+EJoEEhBjwC1AIj/GjfttgmncL84qV7BU/pLNxzhlZdjsmvdiQpFaeX9i4pMDIvjX5pB0qpjC3AlFZVRAkP8vs1OFCYIozikqoQWsjR019m9oyR6pOTBSQaW40HRBiYPiUeFr3rbkijSdSmF3Blw8csVjuyx2o3yaYa55vIMseTXlpJat+yWTzfLPtMSqBaEfWZ7QW3RzN4ApzVBRFETX8hxRF2QZ0lHWZ+m2CGTAplnotPH8EArD029OW9ty6FVc9XV/V1kh3x1gh2PtvHv/+lmG2f7mJzUII1WX9nIFujmaowbNchqIoTwGvyHpNJDQNpOvoOrTsHeax1cNTDxbz8/PHLe9VdiPqJPoz+bVGNdaAdHcKcyvYvjiHbUtyrGmF+4QQ4k1ZdCW6OZpBA+YYAxwBrGozFxLpS5v+4bTsFU7dpoEaO6q2U1poZNoTx8jNMDtP5Za0GxTB6LvqyrLbUlEuOLqtgH1r8jm4Md/aUmQFQBMhRIYccCW6OZqhts2RqhP0JPCqrKslItaPlr3DaNHTzY1SwOx3T3JgQ74c8RguuacubQe4b4GRijLB0e0FHFiXz6HNBRaruJuh1keN6OZoHo2Yow8wz9YE8fMJDjfQuFMoLXuH0ahDiPu8egtY8u1pVa0F3BmDr8K4hxJp1i1UDmmWkgIjybuKOLy5gIMb8+0xxLPMA8Y6s6CEWnRzNIMWzJGqkxQE/AZcKsdswS/Ah+tebkhsA8uNqWodAUu/86wFGHMY/BTGP5xIky7uYZCb5p5h+fR0WbaVP4FrhRA2JUQ6Gt0czeAsczS3Ql0TphHkrcA7gM13TniMH2PurUtSa+0XrSgvrWTxV6fZvdLqnHi3xuCnMOyWeDoMcYP6jgI2zMli9e+ZVJRZdUmfTxHwP+AtLYwYz6Kboxms9C+XYEoQfxC4zZqFmqZdQ+k4NJLGnUJsaj7varLTypj97kkyjtu0B9cjaDcoguFTEvD11/75KikwcmBDPhv+OmNNX/BcYCrwgRAiVQ7WNro5mkGL5ngWRVHCgXHAeGAUYDZRTvGBFj3C6DQ8iqTWQZo1yEqjYNuiHFb9muGI+Su3JyYpgGFT4jVdnq6k0MihTQVsnpdN+jGLb8SFpnnFP4G5QgjNrrDp5mgGLZvj+SiKMgaYK+s14R/kQ4O2wdRtGkSdRH/q1PMnrI4vASEG+aMuJWVfEUu+Pu3Vo8VqMRUVGXR9XK1WghcCinIqyD9TQeaJUrJOlpGyt4i0w8VY8TI8WgixQBa1iG6OZnAjcwwATgN25YH4+isEh/sSHG4gKNxAcLgvoXV8iWsYQONOoQQEOydJ+diOQtbPzvKIyt7OxNdPoe3ACLqPreO0ykvZaWUc311EZkopRblGinIrKM43UpRvpDjPaG/yfQ4Q7y4FJHRzNIO7mCNVJ/I14P9k3VHEJAVw89uNHXaGivON7FuTx45luWpexXTOQ/GB5t3CaDswgiadHTeHnJ1WxtcPHbGmVYG1vCKEeEYWtYpujmZwM3MMA3YD9eWYvSg+cPmjSTTtavMiOQAFpjJjhzbmc3RbIcYK9zm+WiUozEDL3mE07RxK/bbBdm9BXPTlKbYvcUqth2NAOyGE29SZ083RDO5kjlSdzBbAKiBOjtlKQIiBUXck0KKn6oXxc2SnlZF2qIS0Q8Wc2FOkzyU6GYOfQlLLYBJbBVG3aSAJzYIIDrduHllUwvLp6ZYq5lhLJjBACLFXDmgZ3RzN4G7mSNUJbQT8APSVY1ZxdhHgujhC61y4CFBWXEl5WSXlJYKyYiOFOUYKsivIzyonO62MM6llnEkr01ebNUBolC916lUtukXE+RNax5fwaF8CQw34+vsQGOKDr7/PRelCKfuKWfrNKVvbGZzPRlNi9yE5oHV0czSDO5ojVSfVF7jONAfZSo7bgn+gD0JUJWZ7Kn6BwRh8/QkIDkfx8UEIQWlhLpWVRsqKNJtx4jACQgxUlFVaWySiJvYArwM/CSGsai2oFXRzNIO7muP5KIrSG5hgyoVsI8e9kdCoBBKadyGhWWfiGncgIr4h4TFJBITUvNhfVlxAXvpxctKTyTi2i1OHtnLq4Bbys2qlSLVW2QUsAH4XQmyQg+6Gbo5m8ARzPB/TnORMoK0c82QUxYektn1o0nUkTboOJ7ah4/78M6mHOLZlCUe2LCZ5+wqMFW6RpeJodgGXu+Orszl0czSDJ5mjoigDTR3cWssxTyU6qSVth1xL24FXExaTJIcdTklBNvvXzGbPil84sXu1HPZ0DgN3CyEWyQF3RTdHM3iCOSqKUgd4zbQXW1PH11k07DiYHuPvo3HnYVBLF3hG8m62/D2VPSt+pbzUq5LbfwfuFUI4rFRPbaGboxnc2RyVqjN7g6mKT4wc90QadhzMwMkvkNCsixyqNYpyM1g/8322zf/Km0wyB3gB+EhLVXasRTdHM7irOZoq90wDBssxTySmQWuG3voGDTtq988tzEnn359eZseiabixX1jLMuBGIUSKHHAHdHM0gzuao6IoE0xloOrIMUcQFFaH2IZtiYhvSGBoFIGhkQSERhIYGonB4AdAaVEeorKS8tKiqlXejBPkZZwgNz2ZvIwUjOV2584B4OsfRJ+rH6fHFQ/gY/pva51Th7eyZOojpO7fKIc8lVzgHiHEj3JA6+jmaAZ3MkdT8Yk3gfvlmK34B4bQoP0AGnQYQGzDtsQ0aENIVLz8MesQgryME6z+9XV2LpkuR1UT36Qjlz7yDdFJLeSQ5hGVRjbM+oh/f3rZpgeFr38QEXENCI9rcO5/Q+sk4OcfhOJjICC4ajeTr38QJYW5lBRkU1qQQ0lhDkW5mWSl7CczeQ+FOS6dFvwCuM9dik6gm6N53MUcFUVJMk2E95Jj1lInsTnNe11K487DSGzdC4Ovc6q/ZBzbxbcP9JZlVXQbdy8Db3zRad/NVWQk72b2Gzdw5uRBOVQt/sFhXP38LOq16iGHbKI4L4uM5N2cPryNo1uXkrJnDRVlTi0CshmYIIQ4Jge0iG6OZnAHc1QUpTswB7B5SGfwC6BF73F0GnkL9dv2dckK7+4Vv/D3e7fJslkMfgGMvPsD2g25Tg65LaVFecx95xYOb1oohy4iqU0frn3N8udspby0iBO7/uXoliXs+/cPZ40sT5kaaG2SA1pDN0czaN0cFUUZaRoxWl8VAggMjaLHFQ/SYdhkgiNcu6D94/8N5+TedbJcI/7BYVz5zO9V5u1hCFHJ0i8eY8u8L+TQBfgHh3Hf9GMuGTEbK8o4tP5vti38huQd/+DgOmaFwDVCCNUFmmsD3RzNoGVzVBTlZuBLwLqyK6a5qK6X3kGvCY+a3TLnLA5tmMfMVybKco0EhkZy1QuzqNu8qxzyHIRgxbRn2fDnB3LkAkbd+wkdhk+WZaeSnXqYjbM+ZMeS76k0VshhW6kAbhFC2D7x7GR0czSDVs3RZIxfAVYX72s7eBIDrn/OJTtGqqOsuIBv7utBXsYJOVQtvv6BTHxpLomtesohj2TRZw+ybcHXsnyO8Nj63PLxRvwDzbYMcgpnTh5k5fQXOLD2LzlkK5Umg5wmB7SAbo5m0KI5KopyI/CNtcYYFB7NqHs+onmvsXLIpfz11k3s+/cPWa4eRWHco9/Rqt8VcsRjqTRW8MfLV3N0y2I5dI6ul97F0NvelGWXkbpvA4u/eITTh7fJIVswAjcJIX6QA7WN1szRqhve21AUZZQtI8aGHQdz8/trat0YN8/9TL0xAl1G3+ZVxgjgY/Bl3KPfEhadKIfOsfnvzzmwZrYsu4x6rXpww1vL6TvpKRQfq2d1ZAzAN4qijJADOheiKavW0shRUZR2wL9WNdFSFPpNepo+Vz/ukhVoc6Tu28DPT49WXbUmMqExt3y0Hl//IDnkFRzeuIA/Xr5Kls8REBzO5HdXEVW3iRxyKSd2r+bv928nL/24HLKWfKC/EGK7HKgt9JGjG6AoSiww3xpj9DH4MvreT+gz8YlaN8b8rJPMfnOyamME6H/9c15rjABNu4+qKpxRA6VFecx+43oqyorlkEup37YvN7+/hoYdBsohawkD/lIUJVoO6FShm6OEqYDE14DqFRS/gGAuf/Jn2g+7QQ65nNLCXH5/8QqrisJGxDWgdb8rZdnr6DPxCVm6gPSjO5n/4d21vlc7ICSCCc/9Qcu+l8sha2kAfG+65nUkdHO8mEcA1ZOFvv6BXPXCnzTtPkoOuZyKshJmvjKRzOQ9csgsLfteXuujXS2Q2LoX0UktZfkC9q6awfJvnpZll2PwC2DcY9/RZcwdcshaLgEekEUd3RwvwDTP+Iqs14Si+HDJA1NJatNHDrkcUWlk7rtTbCr6Gte4vSx5Lc16jJali9j018dsnPWhLLscRfFh2O1v03283dv731AUxXHl2j0E3RxNKIriA3wOqN4OMeCGF7SxuisEiz5/yOZ8uICQSFnyWuKbdpalaln+3TPsWfmbLNcKg256iZZ9xsuyNfgDn+uv1xeim+N/3GZNe9UOw2+k55UPybLrEYLFXzzC9oXfyhHVFOdlypLXElqnrixVjxDM/+AuVXu0nY2i+DDmoS+o17K7HLKGfsDNsujN6OZYNWqMNLU2UEV0UguG3f6WLLseIVjy1eNsnfelHLGK9KO7ZMlr8bEij9BYUcas168zm0DuKnz9g7ji6d+IiGsgh6zhDUVRwmXRW9HNsYqHgShZrA7Fx8Do+z/XRNrLsm+eYsvcz2XZao5tWypLXkvBmTRZMouxvJQ/X7uWY1tr/xgGR8RwyQNTqZohsokYfXHmP2w+ip6CKc9L9QXRY/x99r6+OITl3z7Npr8+lmWbyDy+l5Q9a2XZK0k7aH1lr4qyEma+Oonk7cvlkMup364fncfcLsvW8IiiKKoGCp6O15ujadSo6lWiTmJz+k6q3TQOISpZPPVhh6+Wrpvxtix5JUc22/aKXFFWzMxXrqkqN1bLDLzhRSITGsuyWiKAB2XRG/FqczS1OlBdAbbftU/j6x8oyy6j0ljBvA/utHuOsTqObF5Uq/uHtcDxnSvJSN4ty6opLy3ij5cmcHjjAjnkUvwCgxl13yeybA13me4Nr8arzRGYCMTKYnXENGzjiB0JNmMsL2X2mzewe/nPcshhLPr8QUfs2XVLhKjk359elmWrqSgr4c/XrmXvyt/lkEtp0K6/2e2QFogFau9i1wjebo53yUJN9J34f/ZMdNtFeUkRM166ioPrnFvIuSg3k5mvTqKsKF8OeTxb533psHnXSmM5c9+91a70KkfQ71q7poBU3xueSu3c7RpAUZTWahtkxTZsS4s+l8mySyjOP8Ovz4912WR/+tEd/PbCZZQW5sohj+X4rlUs/9YuI7kIISpZ+NkDFiuNO5O6LbrRpOtIWVbLAEVRmsqiN+G15gio3trSafSttTJqzD2dzI9PDCN13wY55FRS92/k56cv8YpX7LQDm5j12rU2tWy1iBCs+O4ZVn7/vKN7wqim76QnZckavLoaievveO2gak7F4OtP6/6uv0ZOHd7KD08MVd1G1NGkH93B948OdNmItTY4vHEBvzw7hpKCHDnkUNb98S5/v3+7VSXkHEXd5l1JULklshpU3SOeileao6nvdBdZr44m3UYSGOratK/k7cv55ZkxFGaflkMupSg3k1+fv4yFn95PWXGBHHZbKo0VrP7lNWa+MpHykiI57BR2r/iFGS9eQWlRnhxyOm0GqW+uJtHTdK94JV5pjqYyTao22bcbPEmWnMrOpT/w+4tXamdRRAi2L/yWr+/tzq5lP9Z6LUN7Sd7xD9892IfVP7/q8r8lecc//PTkSAqyUuWQU2k94Cp8DL6yrAYFsHnS0t3xVnPsJwvV4R8cRpNurrk2hKhk5ffPM//Du6g0lsvhWic/M4V5H9zJtIf6se/fmYhKo/wRTXPq8Fb+fG0Svz57KZnH98phl5FxbBfTHx/q0u8QEhlHo05DZVktqouxeBqqRk+uwlU9ZBRFOQo0knWZxp2HcdULf8qywykrKeTvd6dwcP3fckizRMQ3pOuld9Jm4ESCI1SlirqcSmM5hzcuYOv8rzi2bZkcrlX8g8MY9+i39qwmW8WuZT8y74M7ZVkNB4UQLWTRGWitYpqmvo0rzFFRlEQgRdaro/91z9L76sdl2aHkpR/nj1cmknHMPSvj+Bj8aNJlGK0GTKBJl+Eun5+VqTRWcGL3ag5tmMe+VTMozEmXP6IZFB8Dg256ie6X3SeHHE5u+nGm3mZzPdt6QgjrKnLYgG6OZnCROU4AVG1fmPTKfOq3U/UGbhMn967jz9eupSg3Qw65JYqPgcRWPWnUaQiJrXtRt0U3/AND5I85FFFpJCN5Nyd2ryZl9xqSd/xDSUG2/DFN037YDYy4630MvqrrLNvEZ1Nak5+palwgM14I4fS9pbo5msFF5vgc8KKsyxh8/Xng5xSnlSbbsXgai6c+4pz8Oo2g+BiIqd+K6PqtiGnQiuikloRFJxIWm0hwRKxqM6goK6Ek/wy56cfJyzhBbsYJsk7sJ/P4HrJO7KOirET+FbcjqU0fxv/fjwRHxMghhzH3nSm2Vi9/Sgihut6prejmaAYXmeNPgMUl6LrNu3LD2ytk2W4qykpYPPVhdi6ZLoe8jsDQSPyDw/H19cc/KOycXllZQVlxPhWlJZQU5niE+akhIq4B45/8ifgmHeWQQ9i24GsWfWZTwZ3pQojJsuhodHM0g4vMcSvQSdZlWvefwNhHHbs3Nvd0MrPeuJ7Th7fJIZ1axi8wmJj6ramT1JLA0MhzP8byMozlpZSVFFCcl0V26mGy045YXRRXLb7+gQy/8z3aD71eDtnN6SPbmfaQTdNEG4UQPWTR0ejmaAZnm6OpiVY+ECzHZHpe+RADJ/9Plm3myOZFzH33VrebD/NU/INCadR5KE27jaJ+235ExjfEmva0ZUX5pOxdS8qeNZzY9S+pBzY5NL2p44ibGHrbWw4tkVdamMsH19qU010AhAsn36C6OZrBycceRVHigVOyXh0j7nqfTqOmyLLVnN2Nse73t12edBwaXY/opJZE1W1CVN0mBEfG4esXQGBoVbfB0qJ8SgpyKM4/Q07aYdKP7SLrxD6P2g0j07DDQLqMuYMm3UaqnvNUQ2FOOvvXzGLfqhmc3LveIec6oVkXxj8xnXD7+sJcwAeTEm3dpRMjhMiSRUeim6MZXGCOHYDtsl4dE577gyZdR8iyVeSeTmbOu7e4rHBESGQcTbqNpH67ftRv28+2ZktCcProDo5sWsihjfM5dXCLQ270WkVRaDtwIj2vfJiYBq3lqMPJTj3Mpr8+ZteynygvtW97YlBYHUY/8DnNulvup62G7x7sQ/rRnbKshrZCiD2y6Eh0czSDC8xxOLBI1qtjyscbia7fSpZVs3vFLyye+rDTtwEGBIfTsu94WvefQIP2A1Cs6J6nhtzTyWyd/yU7Fk9zeoEGZ1CvZXeG3vomdVt0k0NOpzj/DFv+nsrGPz+grKRQDqtHUeg8+lYG3/yK3dkTM1+ZyKEN82RZDUOEEE6tQqKboxlcYI7XA6qWie/8ag/hsfVl2SKlRXks/uwhW1MmVBMR14CuY++mw/Ab8Q8KlcMOp7y0iB2LvmP1L6+7xbypr38gg29+lc6jb7VqLtEZFGafZtWPL7Fz6Q92zUvGNGjN2Ee+IbZROzmkmiVfPMqWv6fKshomCSF+kUVHojVz9La91ar3ufn4+smSRQ5vWsi39/dyqjFGxDXg0ke+5vapO+g27h6XGCOAX0AwXcfeze1Tt9NlzB22FjJwCXUSm3P9m0vpfMlttW6MACFR8Yy692NufHelXWk6mcf3Mv2xwWye86nN9SHtSMqPkwVPx9vMMUIWasJgUG+ORbkZzHnnFv54aQJ5GSfksEMICA5n4OT/MeWTzbQZcLXDX5/VEhgaxbDb3+a6N5bYNqfpZBp1GsLkd1cR17iDHKp14hp34Ia3l9P76sdtfrhUlJWw9Ksn+OWZMWSnHpbDFrHloW9CVYdOT8LbzFH18qSqi1cIdi37ka/u7urUhkrNelzCrZ9tpeeVDzk0tcMe6jbvyk3vr6FF73FyqNZo3utSrnzmN3tGR07Hx+BH/+ue5brXFxMWnSiHVXN81yq+faAX635/26oqTj5WPPQlvK4boW6ONWDpIkrevoLpjw9h3gd3Om0Ozj84jNH3f8YVT/9KSKT23moCQiIY/38/0vPKh+SQy2nZZzyXPT4dg5973MN1W3Rj8jv/kNiqpxxSTUVZCSt/eJFpDw8g7eBmOVwtdowc3ePAOhBvM0fVJ9hYUf2e57QDm/j1ubH8+txY0g5sksMOI65xB27+YJ1Tdko4moGT/0f/65+TZZdRt0U3xjz0pbrRvoYIiYrnmpf/pt3Q6+SQVWQc28X0xwbz11s3cSb1kBy+AIPtx0j1veMp6OZYA9sWfHPu/xfnZbFr+U/8/NQopj82mOTtjt9zfT4t+4znutcXa3JOryZ6X/UYAyZbrOfhcMJj63PFU79oZrrBWgx+AVxy32d0HXu3HLIOIdj37x98c293Fnx8b43Vd+zIu1R973gKtb+Udx4uSOX5Bxgg6zURHBGLwS+AgqxUlyVC973mSfpe86QmVlltYd6Hd7Jr6Y+y7BQUxYdrX19k16uplljx3TMOa+XqY/CjWc9LaDtwIg07DMI/OIzc9OP89txYstOOyB9Xw0ohxEBZdCRaS+XR1LdxpjkqinIpMEfWNYOiMPjmV1xS+NSZGCvK+PXZS0nZs1YOOZxu4+5hyJTXZdmt+Wfas6yf+b4s201AcLit2wbP51IhhNPK1evmaAZnmaOiKAbTtkGbSyE7FUVh2G1v0WXMHXLELcnPTOHr+3o4dXdQZEIjbv5wPX4BFmuIuBdCMOfdKU7NfrCDfUAHIYT65XEr0Jo5esuc452aNUZg6JTXPcYYAcJikhh886uy7FAG3PCC5xkjVQ/KS+7/jKQ2feSIFmgF3C6LnorHm6OiKF2B52VdK3Qde7f9k/EapOPwG2nYwTlTVLGN2tGyr+f2mzf4BXD5Uz9rdUHuBUVRXL9RvRbwWHNUFMWgKMoTwBprtg26kuY9xzDkFueOsGoNRWHgTS85ZWGp36SnqSrN6bkEhdXh0ke+0WJ6UgywVlGU1xVFsTlp0h3wyCtMUZQmwL/A69YkfruSmAatufThb2ptG6ArSGjameY9x8iyXUTENaBZz0tk2SNJbNWzKnNBe/gCTwD/mO41j8TjzFFRlB7AWqCXHNMKvv6BjH30W/wCPXDOTKLvNU/Jkl20G3q9x48az6fXhEeo37avLGuF3sAGRVFs6r2gdTzqKlMUZTywXOsVRAbd9DKxDTW7PuRQ4hq3d1geoqL40H6IfbtJ3A3Fx8Coez/R8rbIaGCxoihXywF3x2PMUVGUu4AZavrD1CZNuo6gyyVes+AHQIfhN8qSTSQ07+LQlgHuQlS9pnQbp+lFu0DgJ0VRPCflwlPMUVGUG4CPAU1P4Pn6BzH8jnedskihZVr2u8IhlXIadRoiS15Dn6v/j7AYm5pjVUvjzsMYMPlFBt74UtXKv/3XpAH4TFGUW+SAu2L3EXEktiSBK4oyDvjDNElsNSFR8XS55HYiEhpRlJPB/tV/cnLfevljDqHftc/QZ+ITsuwV/PnqNRxcb9/mimtfW6jV/D+XsGv5T8x7377BmV9AMJc98T1Nuo68QE/Zs5ZFnz9IZrLdbWKMwEQhxB9ywBJaSwLX1Lex1hwVRRkMzDMN661C8THQefSt9L/+OQKCL6zjuXHWhyz/7hmbqy1XR1S9ptzy4Xotzx05lS3zvmDJ1EdkWTUGvwAe+jXNYik5T6bSWMFXd3ch59RROaSaK57+lWY9ql/trzSWs/qX11k34x272jkAZaathovlgDm0Zo5u+1qtKEpD4HdbjDEiviHXvraQYbe/fZExAnQffz89xt8vy3bR/7rnvNYYARp3GipLVlEnsblXGyNUFWDuNeFRWVZN6wFX1WiMmIpV9L/uWSa9Mt/euV1/4FdFURrLAXfCLc1RUZQA06t0tByzRJuBE7n5/bUWV1D7Xfu0w3YoRCe1pGXf8bLsVUTVa0pwhO25+K5oqeoOtBsyyabGbygKvVUaa1Kb3kx++x97U4iiTAbptiMCtzRH4H2gqyyaw8fgy5Apr3Hpw1/hHxwmhy/C1z+IbuPukWWb6HXVo16Vm1cTsQ3byJJqopNaypJX4mPwo8PwybJskaTWvYmx4vgHR8Qw8aU5tB92gxyyhu7AO7LoLrjdHasoyiRTIQnV+AeGMOHZGXQbd68cMku7oddj8LVvg01kQiPaDLhKlr2SmAbqb06Z0Dp1ZclraW9DInyL3mNlySI+Bj9G3/sJPS5/QA5Zwz2KokyURXfAuiNcyyiKEgN8KOvmCAyN5Or/zaFRZ+vnvAKCw2nQXnVt3GrpMOxGj94iaA3R9W0f/QWF1ZElryUsJsnq67lx52GypA5FYdBNL9P76sfliDV8qiiKpjdmVIdbmaPpdTpGFmsiICSCiS/NpV7L7nJINY06255bp/gYaDfkWln2WuyZcwwK183xfNoOUj8YCwgOp05SC1m2iv7XPWtPWb06wJuyqHXcxhwVRRkEqHYav4BgJjw7w64m6gD1WthurE26DCM0up4sey32jP78HJBE7kk07jJc9RtJXOP2Vr+GV8fQ2960pxXvjYqiWDfcrWXsP2IuQFGUIOBLtXmZiuLDpQ9/TWJr+2tP2NMcvvVAj9tuahf2mGOlsUKWvJqgsDqq34jsTMs5h6L4cMmDX9hTF+BTd1q9dgtzBO4GmsliTfSd9CTNe10qyzbhFxhMULjVGUMoPgbb53k8FIMdHQKF0a6kZI+kqbTLpSbCHbjt0D8whPFP/mTrdtAW1i6m1iaaN0dFUYKBx2S9Jhp3Hkafqx27Rc+Wi6tui652jZQ8EXtGf0ajU9qWuDVJbdVtpQyLtf76NUdU3SYMudXmKcT/M93Tmkfz5mgaNcbLYnUEhUcz+oHPHLGJ/gLCYhJlySJNuoyQJa+n0g6DK87LkiWvJ65xB1VzieE2XL+W6DB88kX7s1WS4C59aCwf2VpEUZQQa0aNQ297k9CoBFm2G1tGjpZ24HgjxooyWVJNftZJWfJ6/INCiarXVJYvIsQJ9wTAsNvfxtc/SJbV8IQ7jB41bY7AbWoL1zZoP4A2/Z2TbB0cqeor/IeiEN+0k6x6PUU56bKkmoKsVFnSUblg6OukPf2RCY3ocblNNQgSgCmyqDXcwRwtoig+DL3tTYe/Tp/F2oIRkfGNCAyNlGWvJz/TdoPLTT8uSzpARLzllWhnFuzoPv5+AkOjZFkNmn+11qw5mvpSqNpv1mbg1fakF1jE4Gtdqci4xu1lScfOV+PTR7bLkg4QFm15PtHH13nmGBAcbmsFq3aKotifa+dENGuOwK2yUB2Kj4E+Tu7QZu2T15EVmz2JnFPHZEk12WlHKC3Kk2WvR405Gpzc3rXT6Cm2NovT9Ku1Js1RUZQIQNUEYrMeo4mq69zukNY+ecP0XTHVYtfoTwj7ft9DUZODa+31ay2BoVG0G6x689r5XKMoiuUSWbWEJs0RuFxto6yuY53feMhg7chRN8eLKC8p4szJg7JsFSm7V8uS12NQYXyislKWHI6Npc1CAc0WOtWqOY6WheoIja5nb0FOVVibvBwQEiFLXk/60R32lt7nyOZFsuT1+Kh4ZS4rLpAlh5PQrIutNTdHyYJW0Jw5KopiAFTtu2vZ+zJVSbD2UlacL0tmUfM09zaO71wpS1aTdmAzRbmZsuzVqCk+Ye31ays2VrsfobjiJrYBLX6pHqYSRxZp2fdyWXIKpUXWXVyKiqe5t3F480JZshohKjmyRR89nk95aZEsXYQrRo4ATbureuGTiQG6yaIW0KI5qtqTFFqnLomtXbMLxdqLy0fF09ybKM7LIu3AZlm2id3Lf5Elr6Y4/4wsXYS116+tJDTrbGt+ryZfrbVojqqqyzbuPNQlr9TY8FpSWqinnJzP4c0L7Z5vPMvxHf/oCeHnUZKnxhytu35tRVF8bN0ZpuqedzWucReVKFWNa1VlUCc06yJLTsPaJ29xvl4k4Xx2Lf1RlmxGiEp2Lpkuy15LQfYpWbqI4oJsWXIaCc06y5IaLO+BrAU0ZY5AfUDVuDyhuevMUc2ry/noFWT+I+fUMY7vWiXLdrFjyfcYy0tl2SvJPL5Xli6iINP2nUnWYuOgJUpRFM3lv2nNHNvJQnX4GPycul1QpsDKbW/5epGEc+xcOh2EkGW7KMhKZecyx41G3ZnM43tk6SLyXGmOTW0aOaL23nclWjNHVa/UsQ3b4GtHVWlrybfy4lLzNPcGKsqK2bF4miw7hPUz3rGrPqQnUGksJyvlgCxfhD172q0lPDbJ1rUA3RwtoGo4aEvxWVspLcylrKRQls2im2MV2xd9R2H2aVl2CLnpx71+5Tp1/0ZV0wv5mSmy5DQUH4OtnSJV3fuuRGvmqKpigz0tPq3F2lEjQMGZNK+fdzSWl7J+5vuy7FBW/fiS1YtlnsTRrUtlqVrys9IcPrVhDqvrn1bhuhGPSrRmjqpKFgdHutAcbXwlSd7xjyx5FTsWf+/0ArUFZ9JY/fOrsuw1HNu2TJaqxVheSqEdhYatJcS2wYuqViiuRGvmaLnEiO0H3ybyMmx7JVF74XoiJQXZ/PvzK7LsFDbP/YzMZMuLEp5GXvpxTh3cIss1knXS8tyko7Cx+G2MLNQ2WjNHVZV4AoJdV9ghK2W/LKnCm81x5fQXXTatUGmsYMGn91ldHMTd2bnsR4RQX23HlfPglZU2nQtV974r0Zo5qlqCrnTQbgs1ZNg4KsnLOMHJfetl2eM5dXgr2xd9J8tOJXXfBtb8+oYseyxCVLJz6Q+ybJasE/tkyWkYy23KItDN0QKqNiXb08XOWuy5qJyVxqJVKspKWPDRPQ7bKmgNa39/ixNeUu/x0Pq/ybNyC6VLR462pVipuvddidbMUdV43MaDbzUlBTkUnEmTZdXs/3emV62mrpj2LOlHd8qySxCVRua+eytFuRlyyKMQopJ/bViEcqU52jh4semXnInWzNFy0hZgLHfNcbT3giorKWTbgq9l2SM5tHE+W/6eKssuJT8zhZmvTKSirFgOeQwH1swm49guWbZIcV6Wyx4cNs43u2bEYwVaM8dcWagOV53kzBP2mSPAhj/ftzqJ3N3IOXWM+R/e5dJcuppI3b+Rue/dZtVihbtQXlrEP98/L8uqOXVI/eq2PVj7ym/CddUxVKI1c1RV5tlVJatOHbS/BmFRbiZb5nwmyx5DSUEOf7x0pa2jBadwYM1sln/zlCy7PSunv0jOqaOyrJqT+zbIksMpys20dTCg6t53JVozR1WZqjY+mazGURfTuj/ecdl3diXGijJmvXatqv29rmbTX5+w9KsnNDGadQQpe9ayZe7nsmwVqS7InshNT5YltbjmddAKtGaOqhob55xW9TG7KCnIsTnHUaasuIAFn97vMTcqpvzCv9+73eHlyBzJ5jmfsnjqw25/3AuyTzHn7ZvtnipIO7DJ6fmg2WmHZUkttg+JnYTWzFHVkS3Oy7K6xqK1pO7f4NCb6tjWpexY8r0suyWVxnLmvH0z+/79Qw5pjq3zv2Luu7dSUVYih9yCirJi/nzlGpu3sZ5PWUkhGcm7ZdmhpNr+tqXq3nclWjNH1UmFdpwEVTgjgXvJF4+SdmCTLLsVxvJSZr1+PfvXzJJDmmXPyt/4+alRTt/r7WgqjRX8/f4dpDlg7vsszriuzydlz1pZUotjXtMciNbMUfVVcHKvzSdBFc6Yn6koK2Hmq9e4tISUIynKzeS35y/j0IZ5ckjzpB3czPePDrLn5nUpxvJSZr95A/tX/ymH7OK4EwuilBXl2zMydc1SuhVoyhyFECmAqqzrlL3rZMlhlJcWOe0JW5h9mhn/m+CydCRHkXFsF9MfHejWu1AKzqTx89Oj+ef751TVQawtykoK+ePlqzm4bq4csptj25Y57W8/uW+drbujUoQQlpvhuBhNmaMJVa536tAWpyX7Jm9f4dQ5qozk3fz05EiHzCO5gj3//MqPTwxzWQqVMxGVRtb/8R7fPzLQZXl/1pB+dCffP9zfaYVLyooLnPaAO7BujiypxTkjETtRZKE2EUKgKMo9wMdyrDoue2I6LfuMl2W7Wfjp/Wxf+K0sO5yIuAZMeH4m0Ukt5ZAmKMrNZNHnD3JgzWw5ZBcGX38i4hsSVa8pQeHR+AeE4BcUQmBIFGXF+RgryigtyqO8pIicU0fIOXXMKSNtRfGh7eBJDLj+OUKja7m/kxBsW/gNy77+P6c+mAG6jr2bobc6tlBHpbGcT25sZutC6Z1CiKlVzUe1g6a+jckcW6pdmGnR5zLGP2FddRKLCMFnU1q7bFTnHxjCsDvfpd3ga+VQ7SEE+1bPZOmXj9tdJFVRfIhp2Ib6bfuS1KYPCc06Ex5bHx+Dr/xRs5QVF5CRvJuTe9eRsmcNJ/eus/VGvAi/wGC6jb2HrmPvcmmV+bOkHdzM0q8ed/oi41mi6jbhts+3y7JdHNm8iBn/u1KW1dJUCHFEN0czCFPqjKIoB4DmclzG1z+Ie6cdxj84TA7ZzOkj25n2UD9ZdjrthlzHkCmvExiqqjOt00g7sIllX/+fXXOuiuJD/bZ9adX/Slr2GU9QuKoaxlYhRCUpu9ewf80sDqyZrap/syV8/QNpO3gS3cbdS3RSCznscDKSd7P+j/fYs/I3h6aNqWHKxxuJrt9Klm3m7/dvZ/fyn2VZDXuFEG2ouu/lWK2iqW9znjm+BDwjx6vjkgc+p92Q62TZZlb/8lqtld4PCqtDv2ufoePIm60eWdnLqUNbWD/z/aoUHRtv1OCIWDpfchsdR9xEaJ26cthpCFHJ0S2L2TTns6q5Ohu//zkUhXotu9O6/wRa9r2c0ChV3TtUYSwv5fDGBWz5e2qtJtD3vOJBBt74kizbREH2Kabe1s7WhZ4XhBAvopujec4zxw6AqnF/XOP23PTeanDEgRWCL+7sQM4p5+/AMUdMg9b0uPwBWvW70qktaCuNFRzetJBNf33MiV3/ymHVRCY0pucVD9F28CSnfl81ZJ3Yx/qZ77N7+c927yjB1E2vbvMupmmBviS27mXV6F5UGslOO8KJ3as5snkhx7Yto7ykSP6YywmJiueur/fiY/CTQ1az4rtn2PDnB7KslrZCiD3o5mies+ZI1YHaBHS94AM1cNXzM2ncZbgsW03y9hX8+txYWa41giNi6DD8RtoMuJqYhm3ksE0IUUnKnrXsWzWD/WtmUZRr+37/gOBwel/9OF0vvRODX4AcrlXSj+5g+bfPkLx9uRyym+CIWKLqNSUyoQmhdeLxMfjhHxgKQFlJAaWFuZTkZ3Pm5EEyT+xzWlaFvVz+5M8073WpLFtFaWEun01pZWvd0nVCiN5n/0E3RzNI5ngb8MUFH6iBBu36c80r9icmz31nStX8jwYJj2tA064jqN+uP7GN2hJVt6mqV+/ivCzOnDzIyX3rObH7X07uXUdJQY78MatpO3gSg29+leAIzfVFuoCD6+ay6LMH7F5Y8kSadh/Flc/8LstWsfrnV1n9y2uyrJabhRDnemro5mgGyRxDgBRA1TvMpFfmU7+d7QspJQU5fHpzc6enUTgKg18Adeo1IzA0koCQCAJCIhHGCozGckoKcigtzCU77TClhapKZKomKKwOI+7+wCkpVM6iOC+LRZ896FZbHl2Bj8GX26fuIDy2vhxSRc6pY3xzXw9bR8ZngCQhxLlf1s3RDOebI1UH62Xg6QvEGohp0Jqb3l9t8xzKpr8+YdnX/yfLOueR1KY34x7/3qELFK5k+6LvWDL1EVvL+HskXcbcwbDb35ZlVcz435Uc2bxIltXyohDihfMFrZmjFnfInM97QL4sVkfm8b1snKUqd/wijOWlbJj1oSzrnEfbQdcw8X9z3NYYATqOuImr//eXU1KL3JUdi6fZVJBj/5pZ9hhjodqNHrWJps1RCJEFqC6jvebX18k9bX2xze2LvrPpAvEW+k56ijEPfqG5RRdbqN+2L5Pf/ofIhEZyyCupKCuxuvVCzqljLPzkflm2ho+EELavBLoITZujidfUllAvLy1i9puTrZoDKSnIrrW8Rneg//XP0feaJx2TKqURIuIbcs3L83SDNLH7n19Vp3KVlxTx52uTKCmwueVLBvC6LGoRzZujECIHeFHWa+LUoS0s/PQBWa6RFd8967BtaJ5G32uepPdVj8myRxAeW59rXp5HRFwDOeR9CMHf799uOYtBCOZ9eKdN3Q/P41khhGNXCZ2EpoYD8oLMWRRF8TPVemwvx2piyJTX6DbuXlm+gANr/2LW647bXeNJdBx5MyPv9vx52KwT+5j+2GBb8/Q0Q0hkHImtexER15CwmHooig9lJYXknDpK6r4NZJ08YHHnUIN2/Znw/MxqE/lFpZEFH9/LzqV21TLYBnQXQlTbq0FrCzKa+jY1mSNVB647sBYwyLFqURSG3voGXS+9S46AabP/r8+MsbVTmkeT2Kon17wyD4OvvxzySA5tmMefr05yyI4aVxJVryltBk6kVb8rLFZ2yk49zJZ5X7Bz8TSz13yD9gMY+8g3hETFn9OMFWXMffdWewvvVgC9hBA1FrTWzdEM5syRqoP3NvCIrJuj37VP02fihSk6B9fNYd6Hdzk8B9ATCI1KYPJ7q9x6VdoW7ExmdilJbfrQa8IjNOky3Oq54Lz04yz89AGObl0ih84RGBpFh+GTqduiG2VF+exc+gMpe9bIH7OW14UQT8ri+ejmaAYV5hgEbADayTFzNOs+moadBlNZUc7hjQtqdcO/1rn8qV9o3nOMLHs8lcYKfnhsCKcOb5VDmiGucQcG3/IqDTsMlENWM//Du+x9RbaGHUBPIYTZHRa6OZrBkjlSdQDbABuBYDmmYx+t+l3JuMfO7ebyOjKSd/P9wwM0lyQeEBLBoJtepsPwySiKY9ZQjRVl/PR/IxzavKsGCk3zjHvlgIxujmZQY45UHcQpwFey7myCI2Kok9iCgJBwfP2DKC8pJD/zJHmZKW7/ih4YGsmtn27V/F5pZ7PyhxdZ97ttO0acQdPuoxh594dOKQGXfnQH3z8y0Nm9rC/YP20O3RzNoNYcqTqQnwB3y7pDURQadRxMy76X06z76AsmqWWyUw+TemAjx7Yu5fCmBZbTIjRG/+uf89i0HWsoLcpj6m3t7Mnjcwi+/kEMvfUNOo68WQ45FCe3BPlYCHGfLNaEbo5msNIcfYH5wDA55ggadhjIgMkvUre5qqppF1BpLOfYtmVsnf8VRzYt0vwqaFB4NHd8sQv/oKqyW97Ohj8/YMV3qmotO4U6ic257PHviW1k1dS6TeScOsaXd3WytWugOZYAo2tK26kO3RzNYI05UnUwo4A9gEOXVjuOuIkRd72P4qMua8gcuenH2fjnB2xfPM3WSslOZ8DkF+l15cOy7LVUlBXz6c0ta2X02LTbSMY+8q1DW39YYvabk+1N05E5BbQRQlh1ALVmjo6Z3a0lTAd/qazbQ+Muwxlx9wcOMUZMHQaH3fEOt0/dTseRNzvs3+soDL7+dBg2WZa9Gl//IIe23lBL9/H3c8XTv7rUGDH1L3IwS6w1Ri3i1uZoYq0s2EpgaBSXPvSlw1YEzycsOpGRd3/I5Hf+IbF1LzlcazTrOcbrF2Gqo+PIm63OIbQZRWHY7W8z+OZXauXh2bjzUEIi42TZHuxOitQCjncB1+OwE9H3mv9zejmr+CYdue61RYy4+wNNzPF1GK6PGqsjOqkF9Vp2l2WH42PwZcwDU+ky5g455DJ8DL407T5Klu3BYfdkbeIJ5rhDbc1HcwSF1XH6yuA5FIVOI2/h5g/X06BdfznqMvwDQ2jQfoAs65ho2s2hhnERBr8ALnt8Om0HT5JDLqdxZ4eta+YDdlWm0Apub45CCKNp14xdtB18Lb7+QbLsVCLiGjDxpTn0veZJp7zKW6J+u35es3/aFpo4oGlbTfgHhjDh2Rl2N7hyFA07DnLUNbjOdE+6PQ45GhrA7nnHVn0vlyWXoPgY6DvpKa5+cZbTX+llGnUeKks65xHfpKOj5+LAtOPl6v/NoWHHQXKo1ggMjaJOYnNZtgW770Wt4CnmaHO9dkw7X+q2sD6f0ZE07DiYG95aQXT9VnLIadRr4fw5NbdGUYhr3EFW7cIvIJgJz/3hkvlMa0lo3kWWbGGhLLgrnmKOa9RWC6+Oei171MoqoUxkQiOuf3OpI+d/zGKpzJUODusXjiltavyTP5LYqqcc0gTxTTrKkrVkAOtl0V3xCHM0zXHY3Lg6vmknWao1AoLDufLZ32k31OG5ZxcQGl3P5fl07khMg9ayZBOKj4ExD33hsgefLdRJbCZL1jLXU+Yb8RRzNDFHFtSitRGUj8GX0fd9SpdLbpdDDiOqbhNZ0qkGh7RRUBRG3v0hrfpdKUc0RWSC3deEzfegFvEkc1wAmK0XVxNhMYmyVOsoig/D7niH7uPt6vJWIwHB4bKkUw0BIRGyZDWDbnzJLfJJI+Ia2LNiXWraT+0x2HwktIYQogBYLutqcEY5KEcx+OZX6DbuHlm2G7/AEFnSqYaAYPvMsfPoW+lxufqGb7WJwS+AwNBIWVbLUiGE3fnGWsJjzNHEL7KgBi3sVDHHkFteo/Mlt8myXfjr5qiKgBDbR9iJrXsx5NY3ZFnTBIXVkSW1/CwL7o6nmeMfpsrDVqH5ZvWmvbct+4yXIzZjx+uTV1FZUS5LqgiJiueyJ6a7XZJ9YLhN5lgEzJJFd8ej7hAhRCEwV9Yt4aOBNB5LKIoPlz78lcO2G5YWe9QbkNOwtWXrqHs+dssmZX4BNnUfmW2a1vIoPMocTfwoC5aoKCuWJU1i8Atg/JM/EZnQSA5Zjbu3dXAVZTY8RDoMn+zoQg4uxKZKRFbfc+6AJ5rjAmsTwstLi2RJswSGRnLZ49OrbbxuDSWF7tXGobawtt1FWEwSQ255XZbdBsXHaks4AyyWRU/A6iOhdYQQ5cAMWTdHaYF7jaLim3ZiyBT7bsDcU8dkSacazqQekiWzDJnymlsn14tKq1t6/CKE0Fa7RgfhceZowqphfn7WSVnSPJ1GTbFrt0VhTjpFuVYNsL2SrBP7ZKlGGnYc7NBFs9qgrChPlixh1b3mTniqOa4GjspiTeRnpcqSWzDSzoK5mScsthL2erJS9stStfgYfBl2u3ZautqKlXPRyZ5UhUfGI81RVHXqUp3zmJN2RJbcgvC4BvS/7llZVk3aAac3dHdrKo3lpB3YJMvV0m7ItUQntZBlt6PEOnP80XSveSQeaY4mpstCTWQed98RVOdLbre5OMKxrR6128vhnNy7XlUqj8HXn95XPS7LbkdFWQnFeVmybA6PS/w+H481RyHEXkDVkDAjebcsuQ0+Bl8GTv6fLKsiZc9aVTe/t3Jsu7rdqB1H3kxEfENZdjty05Ot6bF+RAjhEe0QasJjzdHETlmojtyME9Y+MTVF0+6jSGrTR5YtYqwo46g+eqyRg+ssF5nxMfjSw0nFQVxNTprqaXqA7bLgaXi6Oe6QhWoRgpQ97j2v3GfiE7Kkih2LpsmSDpC6b4Oq6ZYWvS8j3BFlzTTAmZMHZMkc6u4tN8bTzVHVyBEgZY97d5Ns1GmITf2wj25bSrabLkg5kx1L1D00ul92ryy5LakqF59MqL633BXdHE0k71ghS25H98vukyXLCMGORd/KqldTnJfFvlV/yPJF1G3elbotusmy23LqoFXZC/rI0c05BKhacUg/upO89OOy7FY063EJYdHWF+7dOu9LCnPSZdlrWT/zPcpKLBd36jD8RllyWwpz0slVf/3nqV3sdGc82hyFEBXWFMA9tMHmNjSawMfgS8eRN8myRcpKCln3u/snMDuCguxTbJ33pSxfhK9/EK36XSHLbsuRzVY18FzqSb1iasKjzdGE6rN+cL3V1c40R/thN9hUq3Hbwm/I0fdbs+qH/6kqRNKi9ziHtFDQClYODFTfU+6M9XeR+6G6j+7xnavIyzghy25FWHQiSW1tSOspL2XBR3eD5254sMjxnSvZufQHWa6Wln0vlyW3xVheSrLKnE4Tujl6AkKIg2rnR4SoZPdy90/6b91/giyp4viuVWyZb/mV0hMpLy1iwcf3qno4+AUE06jTYFl2Ww6sm2PNZoCDQghV95O74/HmaMJyNq+JXct+VHWDaJkWvcfZ9GoN8M+0Z8lKsSrfzSNYMvURck6pS4Ju3HW4rRWzNcn2Bd/IkjlU30vujm13kPvxtSzURHbaEQ5vUv0mrkmCI2KJb9pJllVRXlLEjP9d4dY7hqxly99TVb9OA3aVitMaWSkHOL77X1k2h7oEUA/AK8xRCLET2CbrNbHpr49lye1o3MX2Gzj3dDJz3p2CqPT4BUlO7PqXZV8/KctmadB+gCy5LZv++tiaN6UNQgiPz288i1eYownVmc7JO/4h/ah7XwONOto3J3Zs61Lmf3SPNYUI3I60g5uZ+cpEKo3qOwyGxSQRVbeJLLslZ1IPsXOJ+hGzNfeQJ+BN5vgjUCqLNbHmV/fqNyyT0KwLip1dFXct+5H5H93tkQaZfnQHv79wOaVWVr5OsmGLplb598eXrHkwFFtTI9UT8BpzFEJkAd/Jek0cWDeHU4e3yrLb4BcYbHOdx/PZtfRH5n1wJ8YKz2kTcnLvOn59bhwlBdlyyCK2zuVqjZQ9a9m3+k9ZNsdXQgjruo25OV5jjiZeBdTd5UKw6oeXZNWtSHDQjbx7+c/8+uxYj+g5s3vFL/zy7KU2LzjFN+kgS25HWUkh8z64w5q5xnLgHVn0dLzKHIUQx61pCHR0y2IOrnPfXTNR9ZrJks2k7FnD9McGue1cbKWxnH+mPcvf79+OsVz17MpFxDZqJ0tux4pvn1adtmTiWyFEsix6Ol5ljiZeASpksSbmf3SXNRvyNYWjFw5yTycz/dHBrPv9bSqNqg9hrZN1Yh/THxvC+pnvWzNaugi/gGCCI2Jl2a04uP5vti20Kq/RCHjlxnuvM0chxGFA9TaQkoIc/npzslvOuTmjCKuxooyVP7zIT0+OIDN5jxzWFMbyUtbPfJ9pDw/g9GHVmVw1Eh6bJEtuxZnUQ8x7/3ZrHxCfmnaZeR1eZ44mngYyZLEm0g5uZsW3z8iy5gkMjZIlh5G6fyPfPtiHBR/fS0H2KTlc6xxY+xdf39udf6Y9S0VZsRy2ibAY9zXHspJCZr12rbWr8+nAc7LoLXilOQohsgGr3G7z3M+sfR2pdQKdXDVGVBrZsXgaX97ZkX+mPUt+Zor8EZciRCUH1v7FD08MZdbr11k7r2YRv8AQWXIbFnx0j6q2DxJPeNsK9fkoslCbuLIFrlK1+Xgd0F2O1YTiY+Dyp36mWffRckiTlJcW8d7V8bLsNHwMvrTofRldL72TxFY9QXHN5VWUm8m+VTPYPPczp7Z8aDNwIpc+/JUsa57VP7/K6l9ek2VLrAX6urIvteKi60Utmvo2LjwPUHUy2gCbgCA5VhN+AcFMfGku9Vqq9tRao7Qwlw+urZ1XwbCYJFr2uYyWfS+nXotudiekyxTmpHNk8yL2rfqD5B0rXLJA1GH4ZEbd+4ksa5ot875gydRHZNkSRUBXIcQ+OeBMdHM0g6vNkaoTci/wkaybIyisDle/OFvzCcGFOel8cmNTWXY5/kGhJLbqRWLrntRr2YOouk0Jj01SbZilhbmcST1EVsp+Tu5dR8ru1bVSOah1/wmMfdR9dtDtXfk7c9+91ZYdTncIIb6QRWejm6MZaskcFWA2MFaOmSMgJIKrnptJvVY95JBmyEzewzf395RlTeBj8CMirj5h0YkY/APxDwrFPzCEykojZcX5lBUXUFKQQ35mimaSz5t0HcmE52bIsiY5tHE+s1+/3pYsi9lCiPGy6Ap0czRDbZgjVSclzvR6XV+OmcM/MIQrnv2dBu36yyFNcGjjfGa+fLUs69hI3eZdueFt7Xep3L38Z+Z/dI81+6bPkgx0E0LUytNIa+bolavVMkKIdGAcYLnl3HmUlRQy48Ur2LX8JzmkCbJPemV6mtPIStlvbY6gy9n018f8/cEdthhjATCutoxRi+jmaEIIsQ2YDFg1QVNRVsK89+9g+TdPaa7+4YldVhUx1bFAWXEBuRrtMSQqjaz47pmq2pTWG3glcL031WpUg26O5yGEmAk8K+tq2Dj7I35/8QrNJERXGsutrfCso4ITO1fJUq1TlJvJby+MZ8OfH8ghtfyfEGK2LHo7ujlKCCFeBWwq5nhs2zK+vqcb2xfW/orm/tWzKCvKl2UdO9m/dpYs1SqnDm1h+qMDSd5u81zoe0KIt2RRRzfHmngS+FQW1VBamMvCT+/nr7duqtVR5Oa5n8mSjgM4tm05BWfSZNnlVJSVsPKHF/nh8WH2FEb5RAjxsCzqVKGbYzWYdgXcZ02BCpl9//7Bl3d2ZPUvrzlsb69adi39kdT9G2VZxwEYy0tZ+9ubsuxSUvasZdpD/UzVkaxeeDnLVNM1rlMDmlo7r61Unpow5UA+b/qxmfC4BvSa8AjtBl+Lr3+gHHYoOaeOMu3h/pQW5sohHQfhY/DjujcWU7d5VznkVLLTjvDvTy+zd9UMWxZdzucN4ElXbg1Ug9ZSeTT1bTR2rs6hKMrDppp2dh2v4IhYul56Jx2G30hIlOP3PGel7OfXZ8dq4rXP0wmNSuCGd1YQFp0ohxxOfmYKa357k51LfrBnpIhpVfphIYTNKzfORDdHM2jVHKk6cWOAn4BwOWYtio+Bxp2H0mbQRJp1G41/cJj8Easozj/Dpr8+YfOcTykrLpDDOk4iNLoew+94l+Y9x8gh+xGC5B3/sHXBVxxa/7cj9o4XAJOFEFY1jnElujmaQcvmSNXJaw/MAhxWYtvH4Evd5l1p2HEw9Vp2I6ZBG8JjLWzUEYKskwdI3b+Rg+vmcHTrUrtK/zsLg68/EXENCItNIiwmkYjYBoTHNSA8JpGA0Ej8AoIx+Abg4+ODf7D5Z05RbgZFuRkUZp+u+snNoCArlTMnD5J5fK+1dQodSoP2A+g+/n6adB1OVbEnGxGCtENbOLhuDvvXzCI79bD8CVs5DIwXQuySA1pCN0czaN0cqTqBdYCvgMvlmKMICIkgLCaR4LBogiJizullxQXkZ6aQl36cshKrNvM4HV//QGIbtSOhaSfim3YmvmlHYhu2wcfgJ3/UKeSlHyfj+F4ykneTcXQnx3etojD7tPwxpxIalUDT7qNo1GkIcU06EpXQGHNl20oKsslKOUDagU2kHdzMid2rKchKlT9mLzOA2001TDWNbo5mcAdzPIuiKJNN6T7uWwHVDnwMviS26knjriNo3HkosQ3b4mPwlT9Wq2Qm7+HY9uUk71jBiZ2rXP5A8QsIJrROAoFhdfAPqpo6KSvKo7y0yBUPuGLToosm5xerQzdHM7iTOVJ1MlsAXwAD5ZgnEhIZR5OuI2jSdQSNOg0hwMmVxh1JpbGc5B3/sHfVDA6unVOrr+EuYLlptHhIDmgZ3RzN4G7mSNUJVYBbgdeAaDnu7vj6B9Gi9zjaDppIo05DVNdg1DLlpUXsXfk7W+d9yekj2+WwO5Np2sDwtdbSdNSgm6MZ3PB8nkNRlChTX5p7AX857m6E1qlLlzF30HHkzQSF1ZHDHsPhTQtZ/dMrnDq8VQ65E6Wmgs2vuHPPF90czeDO5ngWRVEaAE8AU4AAOa51gsKj6TH+AbqOvcvpCeuaQQh2r/iFZV//H8X5Z+SolikBvgbeEEJos1yQFejmaAZPMMezmAro3mIqg9ZajmsNRfGhy5g76H/D8/i7cZc9e8jLOMHMV64h/ajmK3dtAL4HfhZCuJWbm0M3RzN4kjmej6IovU0XczM5pgVCouIZ99g06rftK4e8jvKSIn59fiyp+zbIIS1wyFR3cb0c8AR0czSDp5ojVSc+zJT6c70cq02i67fiqudnWk489yKKcjP45r6eFOVmyKHaZAZwmzvPKVpCa+ZoRzq/jjUIIfKFEDcAN5q2ctU6IZFxujFWQ3BELD0uf0CWa4ti4EEhxFWebIxaRDdHFyOE+B7oBtT68uiwO97RjbEGGncZJku1wW6guzslcnsSujnWAkKI/UBv4EOgVuYSIhMa06L3OFnWMRFgYa+3kxGma6OrEGK3HNRxDbo51hJCiFIhxAPAZYDLS4bHN+loX5EEDyc7tdY2l6QBY4UQDwghtFdNxIvQ745aRggxx5Tq84UccyZa2wetNfavrpVeMb8D7YUQf8sBHdejm6MGEELkCCHuACYA6XLcGaQd3IQQVnWh9RoKc9LZs/I3WXYmp4DLhRBXCyGy5KBO7aCbo4YQQvwBtDTNNznVuXJOHePwxgWyrAOs/ukVVxUNFsB002ixVoaqOjWjm6PGMI0iHzBV+nFqcdKlXz5GeUmRLHs1J3b9y/ZF38myMzgADBVCTBZCZMpBndpHN0eNIoT4F+hi2qftlPpauenHWfHd07LstRTmpDPnnVucPd2QCzwOtBNCLJeDOtpBN0cNI4QoF0K8aWrL8CFgdyMRma3zv2Lnkumy7HWUlxYx8+WrndmcrNL0Ct1SCPGWEMKuTlk6zkc3RzdACJFletXuBMyT4/ay8NMHvHr+sdJYzpy3bybt4GY55CjmmuYVJwshXNu7QcdmdHN0I4QQu4UQY0wJ5HPluK1UGsuZ/eZkjm1bJoc8HmNFGbPfnMyhDQ5/5gAsAXoJIcYKIfbIQR1to6md3p5ceMIZKIrSF3gBcMheN4NfAJc+9CUt+zqtd5imKC8p4q+3JnN400I5ZC+LgReEEGvkgE7NaK3whKa+jW6OtqEoSifgLlPtSLsq1Co+Bgbd9BLdL7tPDnkUBdmnmPnS1Y6sAF4GzAbe8dSSYs5GN0cz6OZoH4qi1APuAe6wt59N28HXMvLuDzyyGnjagU3MeuMG8jNT5JAtZAJTgU+EEE5bzfEGdHM0g26OjkFRlABgBHCDqb+2TXsFYxq0Zuwj3xDbqJ0cclu2L/yWJV88irGiTA5ZQyWwzLT6PEMIoSeLOgDdHM2gm6PjURSlvqmG5F1APTluCb+AYAbf8iqdRt6CuQb1WqfgTBqLPn2AQxvnyyFrSAU+B77zhJ4tWkM3RzPo5ug8TCa5zNZWDfXb9WPk3R9SJ7G5HNI2QrBr2U8s/foJSgtz5ag17AVGCCEc8i6uczG6OZpBN0fnoihKkqnhu00GafALoMflD9DziofwDwqVw5rj9OFtLP3qCVL22L1ovBG4RN/m51x0czSDbo7Ox7RoswBoL8fUEhwRS99rnqTjyJvwMfjJ4VonL+MEa359nZ1LfnDEVsCfgNuFEIVyQMex6OZoBt0cXYOp2dcfwHA5Zg3hcQ3oftm9dBh2I36BwXLY5eSlH2fjX5+wfeE3VJSVyGFrKQWe0FsUuA7dHM2gm6PrMK1ofwNcK8esJSg8mk4jb6H9sMlEJjSSw85FCJJ3rGDr/K84tGEelUaHbD/fCdwkhNgiB3Sch26OZtDN0fUoivIA8K5DtpIqCg3a9afd4Gtp2n0UQeF2pVqaJTN5D/vXzmbvP79xxnEtDcpNx+J5vUWB69HN0Qy6OdYOiqJcAnxvb+L4+Sg+Buq17E7TbqNIbN2L+Kad8A8MkT+mmsKcdE7uXUfKnjUc2bTQkYZ4lsWmFqj6HuhaQjdHM+jmWHuYVrJ/BAbIMUeg+BiIrt+SmPqtCYtJJDw2iZDIeBRFITA0EoCK8jIqSosoKymktDCXnLQjZKcdITvtEDmnjsn/SkexH3hWCPG7HNBxLbo5mkE3x9pFURSDqRDr80CAHPcwDgGvAd8LIRwyUaljH7o5mkE3R22gKEob02JNTznmAewxmeLPQgijHNSpPXRzNINujtpBqbpSbwDeAuLkuBuyGngDmCv0C02T6OZoBv2a1R6KokQBT5uq/bhbiZ5TpnnUr4UQe+WgjrbQzdEMujlqF9OCzTPATRqfjywB/jKtvi/U5xPdB90czaCbo/ZRFCUBuA+4DYiV47VEJbDOVELsVyFEtvwBHe2jm6MZdHN0H0wr24NN1cevBFy9f7AE+NfUS+d3IUSq/AEd90I3RzPo5uieKIoSCVxtMsm+gO3Z3uY5ZmpaNQdYoheZ9Sx0czSDbo7uj6IofkAPYCAwyNQp0db6ZmmmEmvLgWVCiCPyB3Q8B90czaCbo2eiKEoi0NxUR7I50NC0VTHE9DoeZvrf/abaieuBjUKIZPnfpeO5aM0c/x8SOlOyPGvirgAAAABJRU5ErkJggg==;" parent="1" vertex="1">
          <mxGeometry x="397.12" y="22.5" width="75" height="75" as="geometry" />
        </mxCell>
        <mxCell id="E54Gw3oPwlKRZKalIna0-59" value="" style="shape=image;verticalLabelPosition=bottom;labelBackgroundColor=default;verticalAlign=top;aspect=fixed;imageAspect=0;image=data:image/png,iVBORw0KGgoAAAANSUhEUgAAAUcAAAFHCAYAAAAySY5rAAAAAXNSR0IArs4c6QAAAARnQU1BAACxjwv8YQUAAAAJcEhZcwAADsIAAA7CARUoSoAAAAAYdEVYdFNvZnR3YXJlAFBhaW50Lk5FVCA1LjEuOWxu2j4AAAC2ZVhJZklJKgAIAAAABQAaAQUAAQAAAEoAAAAbAQUAAQAAAFIAAAAoAQMAAQAAAAMAAAAxAQIAEAAAAFoAAABphwQAAQAAAGoAAAAAAAAAnZMAAOgDAACdkwAA6AMAAFBhaW50Lk5FVCA1LjEuOQADAACQBwAEAAAAMDIzMAGgAwABAAAAAQAAAAWgBAABAAAAlAAAAAAAAAACAAEAAgAEAAAAUjk4AAIABwAEAAAAMDEwMAAAAAAJFj+K2cP21wAAbfJJREFUeF7tnWV4VFfXhu+TiXuIQoK7u7tDKZS2tJQKFeru/ertW3cX6pR6KYVCcSsUd3cJhAQixD2T/f3IQGGTzJzRnJk593Xlet8+a9JOjjxnn73XXktBQwghZMkjUBTFF2gIJAJlQB5wUAhRXs1nfYCrgElADyAByAR2An8BM4QQJ+Xf09EuiqI0Mp3TUUBroA5wClgP/ADME0IYq/k9f6AZEA74AynAcSFEhfxZT0BRFFnSOYsQwqN+gD7AL0AOIKSfMmAT8BrQy/T5HsDuaj57/o8RmAUMAZRq/psKEFVdTP9x7A/gU9OxNsXGAHNM50w+j+f/bAQ6mM5db+B1YLPpGpE/mw38dPaa8aQfraEpq9biAbIFRVGiga+A8XLMDEeB+oCvHDDDAeAb4DQwFOhvGp36ApXAXmA28Kk+2nQMiqLUB+4CLgNamUywAjgJrASWAknAbaa3BbWUm/4djeSAGWYCtwkhzsgBd0RrI0dNfRt3MUdFUfxMRtRDMrR8IAO4G2gg/VptUgp8ALwihMiTgzqWURQlAngWuM/0iqsVkoGpQIzpp8Rk1idMr+3/Vjd9o0V0czSD1s1RqTp7twHPA/XkuBtwGngLmGcy7+ZAiCmWBqwTQhyQfsfjMZ3XFkAv0xwvQAFwCDgOjAUeBWKlX3UHTgIvCCG+kgNaQzdHM2jZHE030KfAnXLMw9gJvA1MF1o+IQ7AdE4nA48BbeW4h/GpEOIeWdQSujmaoTbvRUVRkoDuQGOgrmmFEKDItKDSFLhB+jVPZgkwWQiRJgc8AUVREoHvTQtb3sJ04AgQCQSZtDzTW8NRYENtzk3r5mgGV5ujoigNgZuBm6ycPPcWjgGjhRD75IA7oyhKG2CBab5Y50KOAtOAb4QQJ+SgM9GaOWoKeWnfWT+mUeFnpolrOVXCaT8GX0WgXKyb+/H1U0TL3mHCL8DnopiLfk4BreRj6K4/QBvT3Kv8d7rkJyLWTzTpEnqRbunH4KdcpDn5pxz4BAiTj6GzfrSGpqzaFQdIUZRmwHxTcq1L8TEoDL0pnrBoX1L2FZGyr5hTh0uoNJr/u5t0DmXMfXXZtjiHzX+foSjvonxhZ5MKDBRCHJID7oSiKC2AFaZpE5cS3ziQ3ldEE9c4kB+fTqYw13wed0CIgcSWQSS1CiKxZRDbF+ew599aSTQ4YHp7OCIHHI3WRo6a+jbONkfTPNN6Uy5graD4wKg769JuYAQA5aWVHN5cwO5VeRzbXlijUQ69KZ4uo6MoK6lkze+ZbJ6fXeNng8IMtO4bztZF2YhKOWozJ4BXgQAg0KSdNi3cuNytzWHakXQDEGeSSkzpTE+bchAdQnC4gVZ9w9kyP1sOnSMkwpdBk+No07dqCvu3l0+QvKtQ/hgAgSEGWvYOo+2ACOq1CEJRoNIo+PvjNPatqRVjPMsJoKez5591czSDI8xRURQD0BPoakpVCTCFcoHBQDfpV+ymaddQfP0UzqSWcSatDGO5+b9DUWDk7Qm0HxJ5gV6Ua2TPv7ls+vsM+VkXjiz8Any4e2oz/IN8AMg4Xsrir05xcn/xBZ87y7gHE4mI92Ph1FOkHyuRw45kIzBFCLFTDtQGiqJ0MiXgd5VjjqTdwAgG3RDH0u9Os7eaEZ2iQKfhUfS/JoaAEAMABzfmM+vti9c7kloF0XVMHZp2DsXg998tWWkUzPkglQPr8y/4fHUEhhiok+hPdFIAaQeKyUwplT9iL5uAf0yLOUbTw+aQSV/viAekbo5msMccFUUJNeWi3XXeiMEl+Af5MP6RRBq2D6HSKMg8UUrqgRJSDxZzcn8ROacvzsH1MShc/3JD4pucHYT9h7FcsH1pDutnZ1Fw5j+TvOG1RiSc93khYN3MTFbPyLxohNhlVBRDb47HWC5Y+t1pti/JufAD5xER50du+sXf0QpKgAeFEFPlgCtRFOUe4J3zHog2ERnvV+05w/SQGnl7Aq37VY0Ep95zmLzMCz8bHG7g0vvr0bD92RTSKv79NYO1M7PO/XNiiyD6Xh1z0efOsvr3TNbMyJRlFB9IaBJIvRZB1Gte9RMe6wcCVv2awbo///tvuIjTpjn8t4QQRXJQLbo5msFWc1QUpZ2pKENjOeYqfP0VJr3Y8ALzOkt2WhlHtxdyZGsByTuLzr0O974yhn5Xx8gfP0d5aSXr/sxi45wzBAT7cMcnzfD1v/iUHdtRyN8fpV4wF9ljXDQDr/svZ3nnshwWf3O62lHtlHebMPfjVE4fsXuE+R1whxCiTA44E0VRAkyjxevlmLV0GRVFfONA5n928RtkZLwflz2SRFzD/7z364eOcCb1vz+3Xosgxj2YSFj0xbtAk3cV8ttLJwiN8mXIjfG07B0mf+QCvnvsKBnHq0aAQWEGmnYNpXHHEBp1CCEwtGo0ej7r/sxi1S8ZsuxKDgPjhBB75IAadHM0gy3maKp4sgmIlmO2EhLhS1CYAV//qqXlygpBXlYFpYXm3xzCov249f0m1RrYWYrzjexfl8/+tXkMuj6u2pGjzJmTZRQXGklscTY17WJyM8qZ+XoKmSmlGPwUbnmnCZHxfhd8JnlXIX++eZLy0guHmXd83JTAUAOz3z3JsR3Vz4dZwRLgSldtU1QUJRL4Exgkx6xCgQHXxNJzfDRb5mez9LvTF4Rj6gdw9bP1CYm40PS2LspmyddVn207IIKRdyRg8K35/O9fl0/jjiHnpkfMsXHOGU4fK6F133AadwzBx1DzvzdlXxG/vHAcs7eQAqGRvoREVf0NPj4KJYVGCnMqKCt22OR0BtBdCJEsByyhm6MZbDTHpQ5J5FVg1O0JNO8ZRqBpjkimrLiS9GMlpB4sIe1QMWmHii+aG7zm+QbUbxN8geYqSguNzH43laZdQ+l6SZQcBuDEniJmvpFCWcl/N8OUd5tQJ9EfY4Xgr/dOcmhTwQW/YwMbgeFCiFw54EgURYkyFXroLMesQoERtybQcVjVHPD62Vms/Om/EVhco0CufqY+QWEXXxeiEma8doLElkH0uTKm1u6o5d+ns+nv/+pPKD4QkxRA3WZB1G0eSN1mQdSp51+jcedmlLN2RiY7VzjklC0WQoyQRUvo5mgGa81RUZSewDpZt5XIeD+ueb5hta9ENXEmtYzDWwo4sqWA/KwKJr/eSNWowFlUGoXZEQamEeSMV1OoNAp8/RXu/ao5fgFV39lYLvjjjRSSd9o9glwHjBBCWF5NsAFTIYgljlhgG3RDHN0vrXPunw9syGf2O1ULJ5Hxflz/SqNqjfEsao65szm+u4i/3jtJw/YhNO0SSuNOIWa/s8zhzQXMfvckxgrr7kEzdBVCbJFFc+jmaAYbzPEV4ClZt4eouv5c83wDQk2vHp7KlgXZLP32NH0mxND3qgvnPctLK/n9lRM1roRbwRxgvBDycpF9mDIS5pqKx9pFdX+/sULw03PJnEkt47qXGhJT3671Hc1zdFshf76dUu18tB28KIR4QRbNoZujGWwwxz+trJmoijqJVQYpzy95Gke3FdK4Y0i1V0FJoZGfnjtOVjUpIQHBPpQWqfa7N4QQ/yeL9qAoyjvAw7JeEzV9304jIhk+5WwRngspLaok80QpiS1rnuf1BJJ3FjLzjRQqHGuMmCrWXyWL5tDN0Qw2mONiYJisnyUw1EB84+oXPBSl6qY5988+CgHBPihK1e816hBSa3OHWiEvo5wfn02mIPvCedXrXm7Isu9Ok3ZI9er2DUKIH2TRFhRFudlU4FcVPcZFExjiw8qfL1zFbdo1lMsfTUKpvRkQTbB9SQ7ZaWWUlVRSaRQXLMxUVlbNs1eHqBQc31NUtdGwehYKIawa2evmaAYbzPF3YIKsn8Xgq3Ddyw1rNEgdy6QfK+HnF46fu0lCony5+7NmlBQZ+fXF46QnXzyyrIYSoK+1c1AyiqL0MFXbVvWe22V0FENviufU4RKmP3XsnJ7QNJBrnm9wbp5Vx3rWzcpilfTAkfhFCDFJFs2hNXN096vDbLUYY0XV1quKMutMV+c/4hoFMu6hxHMLDg3bBYNStSPjyifrq128CgR+UBTF5qeUKZfxW7XG2KJnGENujAfTvuazu1Qi4/248on6ujHawemjJaz5/eLkdIm9suBuuPsVslwWZLJSSln9u9knnI4FGncMYeTtCaBUbZs7S2iUL1c8noR/oKrLqDXwjCxawf9MFXUsUrdZIJfcU5ezAxHFB9r2DycozMCEJ+sTHKF+FVfnQiqNgnmfpKlZ1f5HFtwNTY1jbXitNpg2xZutsuJjUJj8eiNiG6gadOjUwLEdhTTqcPFWtwMb8pn97klz809nqTB1zdssB8xhStlaDVh0tZBIX258vdG5ROezlBQayTldXu0OJh31rJ+VddH8bTWkAA2tzVLQX6sdiGmz+weyLlNpFCz+8pSam1fHDNUZI0CLHmF0u+S/PEEz+ALfmB5qqjBV2PlajTEqPnDp/fUuMkZMhRl0Y7SPvIzyC/aGm+FDa41Ri7i1OVrDyQPFHNlm984PnRoYeF0s9cxsbzyPDqbq62q5TW1/l35Xx9KgrXdnGDiTdbOyLtp6WgPaGgLaiFubo6nvi+p5LJVPPR0b8DEoXHpfPbXzjy8qilL9MPQ8TJWWnpP16qjXIoielzlse72ORGFOBbv/Ub218FlT7VS3RtWVrGHeAkJlsSZSDxQ7YteHTg1ExPkx4FpV3UvrAQ/JYjU8fl6r1BrxC/Dhkrvren3OojPZOPeMNYniocAbsuhuuO3lpChKA8CqDHyAPatUP/10bKDziCi1r7aPKYpS40SloihxanfB9L8mlqi6/rKs4ygE1Rb0tcBE05ud2+K25giMUzNJL3NwQ4H5sk469qHAiNsSLqhoXQPhFnqA3wNYfPWOqR9A55EXVlTXcSyph4ov2iWlAl/TPeq2uLM5dpQFNRTmVpB6wLGv1sX5xotKl3kzUXX96TKq+pJpEvdVlxiuKEowcLesX4QCw29NqPWKOJpBVFWJUrlooppDG21eyLTpHtUK7myOF1ZyrYYe4+rQc3w07QdH0LRr6LlyTo4mKMxARXklWxZks31JDiUF5oviegN9rowhJPLilBqJhBqqd98C1Fwi3USbfuEktVK1Qu7RZKWUsn52FrtW5hIa5evw3T+hdXxp2D6Ehu1DaNEzjM4jougzIUbNvWT1m52W0NQj15okcEVRXgeekPXz6TgskhG3WZzPdyiZJ0pZOzOL4nwjbQeE06JnmMMvVnehuora1bBTCNHh7D8oVZnAe4GWF37sQnwMClPeu7jaubdQkF3BgXX5HNyYT1Rdf/peHePSKlIV5YKvHzpCXkb1vXZMvCqEeFoWa0JrSeCa+jZWmuNoYJ6sn4/iA5Nfa0Rco4ve3JzOiT1FrPwpg6yTpbToGUb7wZEeX/5KpqJc8OX9hy9oElYDPYQQG6k6r/1NxSXM0mFIJCPvcO2Dr7apKBfsX5vH7pV5pOwtok3/cPpeFUNYtOsfEGtnZvHvrxZ3ygwXQiyRxZrQzdEMVppjAHDElBZSI1F1/Zn8Wu1V507eWciK6emkJ5dSp54/7QZF0GFIpFVVmt2Zs0V1LfC5EOIuqs7rN5aSxH0MCre+34SIONebQm1wJrWMXSty2bEsh+J8Iw3bhzB4clytbYdNO1TCz88nW9pffQJoZk2zNd0czWCNOVJ1MB8E3pN1mZa9whj7QGKt5cGJSti9KpfVv2eSl1GOr79Cy17hdBga6fFzZhVlgs/uOmRpHjbHtD/eAJyylLvaul84l95n9pno9pwdJe5YmkPKvqoFxIbtQhhwbSwJTV3/JnSW/KwKfnou+aJ2tNVwvxDiI1k0h26OZrDBHIOAzaaKL2bpMCTyXGWZ2sJYLtiyMJu1M7POdTKMTgqg49BI2g4Mr7Gxl7uzYno6G+f+1/ypBsaZypH9LgdkJr3Y0GMfKlkppWxfmsPuf/IoMV0jsQ0CGHRDXI17211FUa6Rn19M5sxJi4PB3UA3IYTqasjo5mgea82RqgPa2dTMyWIWcIueYYy5rx6+lnPwnEpJgZENf51h099nzr2aGPwUWvUOp8e4Oh7XsyTndDlfPXDYUn7p2VqN18qB84ltEMBNb9Vae3LnIKqanm2en83hLQXnCqQEhRnoc2UMnUZE1nq6Um5GOTNePXFBj+4aKAf6CCE2yQFL6OZoBlvMkaqD+gswUdaro36bYC57OFETc35ZJ8tY/v1pjm47r9OfAk06h9J9TB0atFO108Qt+OXF45zYUyTL55Nleq02m9E95Mb4GtvOuhsVZYLdK3PZ9PeZC0zH10+h6yV16HV5dK3NlZ9P6oFiZr19ksJciwtr2FIB/Cy6OZrBFnM0LcycBFRXHYiM9+OKx5OITtLGCC15VyHLp6WTcfzClgNxDQPoNCKKtgMjan20ay8q03oscvvHTYmIde+FmKJcI9sWZ7NlQTbF+RfOxTbtGsqQG+M1k6K0b00e8z+zqpp+JpBozULMWXRzNION5mhT7+rAUAMTn61fK2k+1VFpFOxYlsvq3zIoyrvwhgmJ8qXLyCg6jYh023nJvMxypt572K6amnGNArnxjUay7DZkHC9l099n2Ls676I2qAlNAxlyY7ym0r02zzvDsu/TbTln3awtaIxujuax0RyvAX6WdTWEx/hx89uNNfHqcpbSokrW/ZnJ5nnZF6VK+Af50HV0FN3G1CEw1P1MctoTx0g/ZtUc/QVU12PaHUhPLmXtjEwObMy/yGjCon0ZMCmONv3CNXU3nthTxC//O37R91XJBCHEH7JoCd0czWCjOU6wtMLZYUgksQ0COLG3iJzT5RjLKwmL9qNFzzA6DImstRQfc5xJLWPJ16dJ3nXefKQJ/yAfuoyqMkktzJ2qZfHXp9i2KEeWVTPhqfpVfbbdhPRjJayZkcXBTReboo9BoeslVdvwVNbAdClFeUY2zski9UAxhTlGgiMM1EkMoFH7YNb8kVVtP/PzuEwI8ZcsWkI3RzPYaI7tgJ2yfj7+QT7c+n4TNXt9Nce+NXks/z692qoo/kE+dB4ZRfdL3cMkdy7LYcHUU7Ksmnu/au4Wf+fpoyWsmZHJoc3/rTyfT1LrYIZPiXfLrIS9q/OY+2GqLMu0FEIckEVL6OZoBhvNUVWTrcYdQ5jwZH2N/cXqKCuuZPXvmWxZkE2l8eJj5B9oMsmx2jbJ9GMlTHviv/7R1hAR58ftHzWVZU1hyRRDInwZeH0sbftHuOV1mJ9VwbQnjl60iCRxAmhkSw8ZrZmj9sbzVmJqsjVN1mWObi9kleW9oJrEP8iHwZPjmPx6o2on7MtKKlk/O4sv7jvM+llZ1qwsupSIOIupqDWi5a2CuRnlzP0wle+fPMahTRcbo+IDnUdGMeW9xrQd4J7GWF5ayex3T1oyRoDvbDFGLaKp02TLyJGqJ04scMhUQNUsg26Io/ulNRag1j6iaiviih/SKcqt/kINi/al9xUxmpxPffe6/RctNKmhZe8wxj2orbYkZSWVbJp7puqBVEMLgfjGgQy/NZ66zS5+qLkLlUbBzDdTLszHrZ4c035qm5o1aW3kqKlvY6s5UnVgHzX1lDGPApfcXbfqCe7GlBQYWTYtnd0ra277EN8kkME3xFG/jXaSyT+9/ZDaZOILqI3yczVRaRRsW5TDmj8yaxxJ+Qf60H9SLJ1HRqGxe94qRCXM/SiVfWtUtUl4SAjxviyqRTdHM9hpjj7AUmCQHJNRfKpK+XcYYnYzhltwZGsBi748ZbYSedOuoQy6Lo46iba/1jqKqfccVlO04CK6jI5i6E3xsuxyDmzIZ+VPGWSn1Zzj3LBdCCPvSND0VIAajBWCvz9OZf/afDlUHauAQfa8UuvmaAZ7zJGqg5sErLdUxgyq/vKB18bSY5zqjTWapbSokhXT09mxPOei+a6z+BgUOo2IpP/E2FrN63x/8gGbyvi36RfOmFqsxJN5opTFX58mZW/NWyD9g3wYdH0cHYdGauzOsp7y0kpmvX2SYzssvkpj2qHWQwhhcRnbHLo5msFec6TqAHcHVqtpowDQ87JoBkyK1diRsI3knYUsnHqKXDPVmUPr+DLkxnha9gqTQ06nokzw3g37ZVkVjTuGMOGp+rLsdMpLK1k7M4uNc85UmylwlsadQhh5e0KtFJ51NCWFRv54LYXUg6p6LZWZCk1YvSNGRjdHMzjIHP2AQrXmiKmd6NBb4t16bugsZSWVrPwpg22Lss1WwWnSOZRht8S79NUv53Q5X95/WJZVURvVeI5uK2Tx16fITa/5YRMYYmDw5DjaDXLvOeyzFOUa+f3VE9bsZCoHQoQQNR8klejmaAYHmWNzwOoE1HYDIxh1p+c0hj++u4h5n6SanYv0C/Ch9xXRdB9bxyUlsfavy+ev907Ksip8DAoPfNcCX3/nf8+C7AqWfXea/evMz7U1bB/CJffUJTTK/TYXVEdBdgW/vXScLMv1GmWaCiGOyKK1aM0cPcQKLsDiqkNM/QDiGgUSGe9HZLwf9dsEEx7rZ9NcmFZp0DaYm95sTIseNb8+l5dWsvLnDKY9cexctWlncryarZBqqTQKSyXP7EZUVrV1+PqhI2aN0eCrMPC6OK56ur7HGCOmuevEVsHEN666N6Lq+lOveZCanWWue/1wIZqyageNHBsAybJ+PpHxflzzfAOPmB9Sw/YlOSz/Pt28+SvQdXQdBlwb65TyaJVGwef3HKawmm2Qamk/JJJRTmqqlXO6nHmfpHJyv/mHRFRdf8beX4/4Jtqo5uRsDm0q4K/3TlrKTU0SQtj2SnAeWhs5aurbOMgcFVPhVLMVUcNjqwzS3WsDquXMyTLmfJhqcS4pOtGfMfc6/ubfvzafv9637/7xC/Dhzk+bOrwi0e6VuSz55jRlxWYeHkDbAREMmxKvyUIRzuDI1gJmvXPyovJqEllCCIeUStLN0QyOMEeqDvJPgMVqxJHxfkx4sj5RdS2+iXsExnLByp8z2DTvTI0pP5jm9/peFUPPy6IdMgcrKmHaE0cvKuZrC72viKbfxFhZtonC3AoWTj3F4c0FcugCAkMMjLg9oVZW+GuLvavzmP9pmqURI8D3QogbZdEWdHM0gwPNsZ8pKdUiQWEGLn8sqdo9y57KoU0F/P1xqsWRUmKLIC65t57dVam3Lcph8de2V+M5H78AH256q7Hd3+ngxnwWfXHqosLCMnGNAhn/SKJLV/Vrm/Wzslj5S4bZB6gJAfQTQqyRA7agm6MZHGWOVB3o34CrZL06fP0URt9dl1Z9LG7N9hjOnCzjz3dSLHaS8w+sKnrRYahtu4nOpJbx/f8dMz/faSWJLYK45oUGNq2wlxVXsmzaaXYur3nb5Vla9w1n5B0J+AU4YPjsBlQaBUu+Oc32Japrbv4khLhOFm1FN0czONgco4ANQDM5Vi0KdB0dxcDr4jD4auqwOI2y4kr+/ji1qpKMBVr2CmPUnXWt2l1TnG/kx2eTzW61sxVbFmcyjpcy+52TZJ8y/318DAoDro117wIlVpKXWc6cD1JJPWB+Qeo8DgA9hRCqndQSujmawZHmSNXBbgYsARrKsZqo2yyIcQ/WI9xLFmoQsOaPTNbMyDSbNA5QJ9Gf8Q8nqmpMVpRnZMZrJzh9xPwCkD10GR3F0BvjVV3Fe1blsejLUxZHsEFhBsY+WI+G7dyn4ri9HNlawLxP0mosolENx4ChjshtPB/dHM3gaHOk6oDXB2YC3eRYTQSEGBhyYxztBnrGrgc1HN5cwNyPLM9D+gf6MPKOBLNTEFkny5j1doqaHsd206pPOKPurPnV11ghWP59OlsXZsuhi4hrGMD4x5K8JoOhvLRqN9WWhdlq5hfPsgG4whGpOzK6OZrBGeZI1UEPAHYALeSYOZp0CWXkbQmE1rGYBOsRnD5Swh+vp6gqKdb1kjoMuj72wnk/ATtX5LLsu9OUlZg3WUcSkxTAJffWJb7xhelHBWcqmP3eSVWvig3aBXP5o0lWTRu4Myf2FLHg8zRyTlu16+8A0EEIYX/aQTXo5mgGZ5kjVQd+O9BB1s0RGGKgw9AIBl4XJ4c8lpzT5cx49YTFeTmApFZBjHswkZAoXzKOl7Lsu9Mc3+3cXSw14WNQ6DIqit5XRBMYauDEniL+ev9kjQWBz6dl7zDG3FMPgxOS37VISaGR2e+c5OSBYks5jDLbhBCdZdFR6OZoBieb4wpgoKyfxddfYcRtCcQkBeAX6IN/oI/XjBhlinKN/PH6CU6pmC8MifQlqVUQB9bnW5yzdAUBwT406xbG3tV5ZqvonKXrJVEMnuwZRUespdIoyD9TQXlJJcZywa5/ctmywOz0wzIhxFBZdBRaM0fveIeoYp0snE9FmWDlTxkoBoU69fy91hgBgiMMTHy+AY06WF6UKMypYP86bRgjpv3Bu1fmWjZGBQZcG8uQG73TGDGNtiNi/YipH8CpIyVsXWTWGAHWyoIno6nLwskjx/7ASlmX8QvwYdiUeK9ajKkJY4Vg9rsnLe4gcTsUGH5LAp1G2Ja76UlUlAmWfHuanctUZeT0EUI4zSC1NnLU1LdxsjkagK1AezlWHS17hTHkpniPqrpiC8ZywZ9vpXB0u+0VdbTGkBvj6HqJ9+Qw1kTK3iIWfXlKbYmybUBXe9ogWEI3RzM40xypOvhDTH1mVBEQ7EO/q01NkrxpAkKiokzwxxsnOL6rdhZbHEn/a2Lpdbn7t8awh9JCI6tnZLJlvvmCyBLDhRBLZNGR6OZoBmebI1Un4HPgDlk3R91mgQy8Tltd/FxNeWklM1494ZK6j86iz4QY+l7lkAIybkmlUbBjaS6rf8+wuKdc4hMhxL2y6Gh0czSDi8zRD1hsbuW6Jhp1CKH/NbEkNHVsOS93ITutjK8edOimCJcRVdefW99vIstegaiEPf/msmZGprV5jZjetEY7og2CJXRzNIMrzJGqkxBs2jUzUo6poWH7EAZdH0tcI+8yyZ0rclnwWZosuw23fdjU7mo+7kbyzkJWTE8nPdmmvO1lwGVCCJesyOnmaAZXmSNVJyIA+Bi4VY6pQVGqqrb0uSqGqATvqAc5840UDm9xyX3iFAZdH0f3sd6xEHN0eyH//pKhKle1Bj4DHhRCqFqtcQRaM0cvXmagTAhxGzAZsFy/SkII2PNvHrPfOUlhjuXtdu5OYXaF269Y71+XJ0seybEdhcz5INVWY8wBrhNC3O1KY9QimrJqV44cz8dUnOIrYIQcO5+EJoEEhBjwC1AIj/GjfttgmncL84qV7BU/pLNxzhlZdjsmvdiQpFaeX9i4pMDIvjX5pB0qpjC3AlFZVRAkP8vs1OFCYIozikqoQWsjR019m9oyR6pOTBSQaW40HRBiYPiUeFr3rbkijSdSmF3Blw8csVjuyx2o3yaYa55vIMseTXlpJat+yWTzfLPtMSqBaEfWZ7QW3RzN4ApzVBRFETX8hxRF2QZ0lHWZ+m2CGTAplnotPH8EArD029OW9ty6FVc9XV/V1kh3x1gh2PtvHv/+lmG2f7mJzUII1WX9nIFujmaowbNchqIoTwGvyHpNJDQNpOvoOrTsHeax1cNTDxbz8/PHLe9VdiPqJPoz+bVGNdaAdHcKcyvYvjiHbUtyrGmF+4QQ4k1ZdCW6OZpBA+YYAxwBrGozFxLpS5v+4bTsFU7dpoEaO6q2U1poZNoTx8jNMDtP5Za0GxTB6LvqyrLbUlEuOLqtgH1r8jm4Md/aUmQFQBMhRIYccCW6OZqhts2RqhP0JPCqrKslItaPlr3DaNHTzY1SwOx3T3JgQ74c8RguuacubQe4b4GRijLB0e0FHFiXz6HNBRaruJuh1keN6OZoHo2Yow8wz9YE8fMJDjfQuFMoLXuH0ahDiPu8egtY8u1pVa0F3BmDr8K4hxJp1i1UDmmWkgIjybuKOLy5gIMb8+0xxLPMA8Y6s6CEWnRzNIMWzJGqkxQE/AZcKsdswS/Ah+tebkhsA8uNqWodAUu/86wFGHMY/BTGP5xIky7uYZCb5p5h+fR0WbaVP4FrhRA2JUQ6Gt0czeAsczS3Ql0TphHkrcA7gM13TniMH2PurUtSa+0XrSgvrWTxV6fZvdLqnHi3xuCnMOyWeDoMcYP6jgI2zMli9e+ZVJRZdUmfTxHwP+AtLYwYz6Kboxms9C+XYEoQfxC4zZqFmqZdQ+k4NJLGnUJsaj7varLTypj97kkyjtu0B9cjaDcoguFTEvD11/75KikwcmBDPhv+OmNNX/BcYCrwgRAiVQ7WNro5mkGL5ngWRVHCgXHAeGAUYDZRTvGBFj3C6DQ8iqTWQZo1yEqjYNuiHFb9muGI+Su3JyYpgGFT4jVdnq6k0MihTQVsnpdN+jGLb8SFpnnFP4G5QgjNrrDp5mgGLZvj+SiKMgaYK+s14R/kQ4O2wdRtGkSdRH/q1PMnrI4vASEG+aMuJWVfEUu+Pu3Vo8VqMRUVGXR9XK1WghcCinIqyD9TQeaJUrJOlpGyt4i0w8VY8TI8WgixQBa1iG6OZnAjcwwATgN25YH4+isEh/sSHG4gKNxAcLgvoXV8iWsYQONOoQQEOydJ+diOQtbPzvKIyt7OxNdPoe3ACLqPreO0ykvZaWUc311EZkopRblGinIrKM43UpRvpDjPaG/yfQ4Q7y4FJHRzNIO7mCNVJ/I14P9k3VHEJAVw89uNHXaGivON7FuTx45luWpexXTOQ/GB5t3CaDswgiadHTeHnJ1WxtcPHbGmVYG1vCKEeEYWtYpujmZwM3MMA3YD9eWYvSg+cPmjSTTtavMiOQAFpjJjhzbmc3RbIcYK9zm+WiUozEDL3mE07RxK/bbBdm9BXPTlKbYvcUqth2NAOyGE29SZ083RDO5kjlSdzBbAKiBOjtlKQIiBUXck0KKn6oXxc2SnlZF2qIS0Q8Wc2FOkzyU6GYOfQlLLYBJbBVG3aSAJzYIIDrduHllUwvLp6ZYq5lhLJjBACLFXDmgZ3RzN4G7mSNUJbQT8APSVY1ZxdhHgujhC61y4CFBWXEl5WSXlJYKyYiOFOUYKsivIzyonO62MM6llnEkr01ebNUBolC916lUtukXE+RNax5fwaF8CQw34+vsQGOKDr7/PRelCKfuKWfrNKVvbGZzPRlNi9yE5oHV0czSDO5ojVSfVF7jONAfZSo7bgn+gD0JUJWZ7Kn6BwRh8/QkIDkfx8UEIQWlhLpWVRsqKNJtx4jACQgxUlFVaWySiJvYArwM/CSGsai2oFXRzNIO7muP5KIrSG5hgyoVsI8e9kdCoBBKadyGhWWfiGncgIr4h4TFJBITUvNhfVlxAXvpxctKTyTi2i1OHtnLq4Bbys2qlSLVW2QUsAH4XQmyQg+6Gbo5m8ARzPB/TnORMoK0c82QUxYektn1o0nUkTboOJ7ah4/78M6mHOLZlCUe2LCZ5+wqMFW6RpeJodgGXu+Orszl0czSDJ5mjoigDTR3cWssxTyU6qSVth1xL24FXExaTJIcdTklBNvvXzGbPil84sXu1HPZ0DgN3CyEWyQF3RTdHM3iCOSqKUgd4zbQXW1PH11k07DiYHuPvo3HnYVBLF3hG8m62/D2VPSt+pbzUq5LbfwfuFUI4rFRPbaGboxnc2RyVqjN7g6mKT4wc90QadhzMwMkvkNCsixyqNYpyM1g/8322zf/Km0wyB3gB+EhLVXasRTdHM7irOZoq90wDBssxTySmQWuG3voGDTtq988tzEnn359eZseiabixX1jLMuBGIUSKHHAHdHM0gzuao6IoE0xloOrIMUcQFFaH2IZtiYhvSGBoFIGhkQSERhIYGonB4AdAaVEeorKS8tKiqlXejBPkZZwgNz2ZvIwUjOV2584B4OsfRJ+rH6fHFQ/gY/pva51Th7eyZOojpO7fKIc8lVzgHiHEj3JA6+jmaAZ3MkdT8Yk3gfvlmK34B4bQoP0AGnQYQGzDtsQ0aENIVLz8MesQgryME6z+9XV2LpkuR1UT36Qjlz7yDdFJLeSQ5hGVRjbM+oh/f3rZpgeFr38QEXENCI9rcO5/Q+sk4OcfhOJjICC4ajeTr38QJYW5lBRkU1qQQ0lhDkW5mWSl7CczeQ+FOS6dFvwCuM9dik6gm6N53MUcFUVJMk2E95Jj1lInsTnNe11K487DSGzdC4Ovc6q/ZBzbxbcP9JZlVXQbdy8Db3zRad/NVWQk72b2Gzdw5uRBOVQt/sFhXP38LOq16iGHbKI4L4uM5N2cPryNo1uXkrJnDRVlTi0CshmYIIQ4Jge0iG6OZnAHc1QUpTswB7B5SGfwC6BF73F0GnkL9dv2dckK7+4Vv/D3e7fJslkMfgGMvPsD2g25Tg65LaVFecx95xYOb1oohy4iqU0frn3N8udspby0iBO7/uXoliXs+/cPZ40sT5kaaG2SA1pDN0czaN0cFUUZaRoxWl8VAggMjaLHFQ/SYdhkgiNcu6D94/8N5+TedbJcI/7BYVz5zO9V5u1hCFHJ0i8eY8u8L+TQBfgHh3Hf9GMuGTEbK8o4tP5vti38huQd/+DgOmaFwDVCCNUFmmsD3RzNoGVzVBTlZuBLwLqyK6a5qK6X3kGvCY+a3TLnLA5tmMfMVybKco0EhkZy1QuzqNu8qxzyHIRgxbRn2fDnB3LkAkbd+wkdhk+WZaeSnXqYjbM+ZMeS76k0VshhW6kAbhFC2D7x7GR0czSDVs3RZIxfAVYX72s7eBIDrn/OJTtGqqOsuIBv7utBXsYJOVQtvv6BTHxpLomtesohj2TRZw+ybcHXsnyO8Nj63PLxRvwDzbYMcgpnTh5k5fQXOLD2LzlkK5Umg5wmB7SAbo5m0KI5KopyI/CNtcYYFB7NqHs+onmvsXLIpfz11k3s+/cPWa4eRWHco9/Rqt8VcsRjqTRW8MfLV3N0y2I5dI6ul97F0NvelGWXkbpvA4u/eITTh7fJIVswAjcJIX6QA7WN1szRqhve21AUZZQtI8aGHQdz8/trat0YN8/9TL0xAl1G3+ZVxgjgY/Bl3KPfEhadKIfOsfnvzzmwZrYsu4x6rXpww1vL6TvpKRQfq2d1ZAzAN4qijJADOheiKavW0shRUZR2wL9WNdFSFPpNepo+Vz/ukhVoc6Tu28DPT49WXbUmMqExt3y0Hl//IDnkFRzeuIA/Xr5Kls8REBzO5HdXEVW3iRxyKSd2r+bv928nL/24HLKWfKC/EGK7HKgt9JGjG6AoSiww3xpj9DH4MvreT+gz8YlaN8b8rJPMfnOyamME6H/9c15rjABNu4+qKpxRA6VFecx+43oqyorlkEup37YvN7+/hoYdBsohawkD/lIUJVoO6FShm6OEqYDE14DqFRS/gGAuf/Jn2g+7QQ65nNLCXH5/8QqrisJGxDWgdb8rZdnr6DPxCVm6gPSjO5n/4d21vlc7ICSCCc/9Qcu+l8sha2kAfG+65nUkdHO8mEcA1ZOFvv6BXPXCnzTtPkoOuZyKshJmvjKRzOQ9csgsLfteXuujXS2Q2LoX0UktZfkC9q6awfJvnpZll2PwC2DcY9/RZcwdcshaLgEekEUd3RwvwDTP+Iqs14Si+HDJA1NJatNHDrkcUWlk7rtTbCr6Gte4vSx5Lc16jJali9j018dsnPWhLLscRfFh2O1v03283dv731AUxXHl2j0E3RxNKIriA3wOqN4OMeCGF7SxuisEiz5/yOZ8uICQSFnyWuKbdpalaln+3TPsWfmbLNcKg256iZZ9xsuyNfgDn+uv1xeim+N/3GZNe9UOw2+k55UPybLrEYLFXzzC9oXfyhHVFOdlypLXElqnrixVjxDM/+AuVXu0nY2i+DDmoS+o17K7HLKGfsDNsujN6OZYNWqMNLU2UEV0UguG3f6WLLseIVjy1eNsnfelHLGK9KO7ZMlr8bEij9BYUcas168zm0DuKnz9g7ji6d+IiGsgh6zhDUVRwmXRW9HNsYqHgShZrA7Fx8Do+z/XRNrLsm+eYsvcz2XZao5tWypLXkvBmTRZMouxvJQ/X7uWY1tr/xgGR8RwyQNTqZohsokYfXHmP2w+ip6CKc9L9QXRY/x99r6+OITl3z7Npr8+lmWbyDy+l5Q9a2XZK0k7aH1lr4qyEma+Oonk7cvlkMup364fncfcLsvW8IiiKKoGCp6O15ujadSo6lWiTmJz+k6q3TQOISpZPPVhh6+Wrpvxtix5JUc22/aKXFFWzMxXrqkqN1bLDLzhRSITGsuyWiKAB2XRG/FqczS1OlBdAbbftU/j6x8oyy6j0ljBvA/utHuOsTqObF5Uq/uHtcDxnSvJSN4ty6opLy3ij5cmcHjjAjnkUvwCgxl13yeybA13me4Nr8arzRGYCMTKYnXENGzjiB0JNmMsL2X2mzewe/nPcshhLPr8QUfs2XVLhKjk359elmWrqSgr4c/XrmXvyt/lkEtp0K6/2e2QFogFau9i1wjebo53yUJN9J34f/ZMdNtFeUkRM166ioPrnFvIuSg3k5mvTqKsKF8OeTxb533psHnXSmM5c9+91a70KkfQ71q7poBU3xueSu3c7RpAUZTWahtkxTZsS4s+l8mySyjOP8Ovz4912WR/+tEd/PbCZZQW5sohj+X4rlUs/9YuI7kIISpZ+NkDFiuNO5O6LbrRpOtIWVbLAEVRmsqiN+G15gio3trSafSttTJqzD2dzI9PDCN13wY55FRS92/k56cv8YpX7LQDm5j12rU2tWy1iBCs+O4ZVn7/vKN7wqim76QnZckavLoaievveO2gak7F4OtP6/6uv0ZOHd7KD08MVd1G1NGkH93B948OdNmItTY4vHEBvzw7hpKCHDnkUNb98S5/v3+7VSXkHEXd5l1JULklshpU3SOeileao6nvdBdZr44m3UYSGOratK/k7cv55ZkxFGaflkMupSg3k1+fv4yFn95PWXGBHHZbKo0VrP7lNWa+MpHykiI57BR2r/iFGS9eQWlRnhxyOm0GqW+uJtHTdK94JV5pjqYyTao22bcbPEmWnMrOpT/w+4tXamdRRAi2L/yWr+/tzq5lP9Z6LUN7Sd7xD9892IfVP7/q8r8lecc//PTkSAqyUuWQU2k94Cp8DL6yrAYFsHnS0t3xVnPsJwvV4R8cRpNurrk2hKhk5ffPM//Du6g0lsvhWic/M4V5H9zJtIf6se/fmYhKo/wRTXPq8Fb+fG0Svz57KZnH98phl5FxbBfTHx/q0u8QEhlHo05DZVktqouxeBqqRk+uwlU9ZBRFOQo0knWZxp2HcdULf8qywykrKeTvd6dwcP3fckizRMQ3pOuld9Jm4ESCI1SlirqcSmM5hzcuYOv8rzi2bZkcrlX8g8MY9+i39qwmW8WuZT8y74M7ZVkNB4UQLWTRGWitYpqmvo0rzFFRlEQgRdaro/91z9L76sdl2aHkpR/nj1cmknHMPSvj+Bj8aNJlGK0GTKBJl+Eun5+VqTRWcGL3ag5tmMe+VTMozEmXP6IZFB8Dg256ie6X3SeHHE5u+nGm3mZzPdt6QgjrKnLYgG6OZnCROU4AVG1fmPTKfOq3U/UGbhMn967jz9eupSg3Qw65JYqPgcRWPWnUaQiJrXtRt0U3/AND5I85FFFpJCN5Nyd2ryZl9xqSd/xDSUG2/DFN037YDYy4630MvqrrLNvEZ1Nak5+palwgM14I4fS9pbo5msFF5vgc8KKsyxh8/Xng5xSnlSbbsXgai6c+4pz8Oo2g+BiIqd+K6PqtiGnQiuikloRFJxIWm0hwRKxqM6goK6Ek/wy56cfJyzhBbsYJsk7sJ/P4HrJO7KOirET+FbcjqU0fxv/fjwRHxMghhzH3nSm2Vi9/Sgihut6prejmaAYXmeNPgMUl6LrNu3LD2ytk2W4qykpYPPVhdi6ZLoe8jsDQSPyDw/H19cc/KOycXllZQVlxPhWlJZQU5niE+akhIq4B45/8ifgmHeWQQ9i24GsWfWZTwZ3pQojJsuhodHM0g4vMcSvQSdZlWvefwNhHHbs3Nvd0MrPeuJ7Th7fJIZ1axi8wmJj6ramT1JLA0MhzP8byMozlpZSVFFCcl0V26mGy045YXRRXLb7+gQy/8z3aD71eDtnN6SPbmfaQTdNEG4UQPWTR0ejmaAZnm6OpiVY+ECzHZHpe+RADJ/9Plm3myOZFzH33VrebD/NU/INCadR5KE27jaJ+235ExjfEmva0ZUX5pOxdS8qeNZzY9S+pBzY5NL2p44ibGHrbWw4tkVdamMsH19qU010AhAsn36C6OZrBycceRVHigVOyXh0j7nqfTqOmyLLVnN2Nse73t12edBwaXY/opJZE1W1CVN0mBEfG4esXQGBoVbfB0qJ8SgpyKM4/Q07aYdKP7SLrxD6P2g0j07DDQLqMuYMm3UaqnvNUQ2FOOvvXzGLfqhmc3LveIec6oVkXxj8xnXD7+sJcwAeTEm3dpRMjhMiSRUeim6MZXGCOHYDtsl4dE577gyZdR8iyVeSeTmbOu7e4rHBESGQcTbqNpH67ftRv28+2ZktCcProDo5sWsihjfM5dXCLQ270WkVRaDtwIj2vfJiYBq3lqMPJTj3Mpr8+ZteynygvtW97YlBYHUY/8DnNulvup62G7x7sQ/rRnbKshrZCiD2y6Eh0czSDC8xxOLBI1qtjyscbia7fSpZVs3vFLyye+rDTtwEGBIfTsu94WvefQIP2A1Cs6J6nhtzTyWyd/yU7Fk9zeoEGZ1CvZXeG3vomdVt0k0NOpzj/DFv+nsrGPz+grKRQDqtHUeg8+lYG3/yK3dkTM1+ZyKEN82RZDUOEEE6tQqKboxlcYI7XA6qWie/8ag/hsfVl2SKlRXks/uwhW1MmVBMR14CuY++mw/Ab8Q8KlcMOp7y0iB2LvmP1L6+7xbypr38gg29+lc6jb7VqLtEZFGafZtWPL7Fz6Q92zUvGNGjN2Ee+IbZROzmkmiVfPMqWv6fKshomCSF+kUVHojVz9La91ar3ufn4+smSRQ5vWsi39/dyqjFGxDXg0ke+5vapO+g27h6XGCOAX0AwXcfeze1Tt9NlzB22FjJwCXUSm3P9m0vpfMlttW6MACFR8Yy692NufHelXWk6mcf3Mv2xwWye86nN9SHtSMqPkwVPx9vMMUIWasJgUG+ORbkZzHnnFv54aQJ5GSfksEMICA5n4OT/MeWTzbQZcLXDX5/VEhgaxbDb3+a6N5bYNqfpZBp1GsLkd1cR17iDHKp14hp34Ia3l9P76sdtfrhUlJWw9Ksn+OWZMWSnHpbDFrHloW9CVYdOT8LbzFH18qSqi1cIdi37ka/u7urUhkrNelzCrZ9tpeeVDzk0tcMe6jbvyk3vr6FF73FyqNZo3utSrnzmN3tGR07Hx+BH/+ue5brXFxMWnSiHVXN81yq+faAX635/26oqTj5WPPQlvK4boW6ONWDpIkrevoLpjw9h3gd3Om0Ozj84jNH3f8YVT/9KSKT23moCQiIY/38/0vPKh+SQy2nZZzyXPT4dg5973MN1W3Rj8jv/kNiqpxxSTUVZCSt/eJFpDw8g7eBmOVwtdowc3ePAOhBvM0fVJ9hYUf2e57QDm/j1ubH8+txY0g5sksMOI65xB27+YJ1Tdko4moGT/0f/65+TZZdRt0U3xjz0pbrRvoYIiYrnmpf/pt3Q6+SQVWQc28X0xwbz11s3cSb1kBy+AIPtx0j1veMp6OZYA9sWfHPu/xfnZbFr+U/8/NQopj82mOTtjt9zfT4t+4znutcXa3JOryZ6X/UYAyZbrOfhcMJj63PFU79oZrrBWgx+AVxy32d0HXu3HLIOIdj37x98c293Fnx8b43Vd+zIu1R973gKtb+Udx4uSOX5Bxgg6zURHBGLwS+AgqxUlyVC973mSfpe86QmVlltYd6Hd7Jr6Y+y7BQUxYdrX19k16uplljx3TMOa+XqY/CjWc9LaDtwIg07DMI/OIzc9OP89txYstOOyB9Xw0ohxEBZdCRaS+XR1LdxpjkqinIpMEfWNYOiMPjmV1xS+NSZGCvK+PXZS0nZs1YOOZxu4+5hyJTXZdmt+Wfas6yf+b4s201AcLit2wbP51IhhNPK1evmaAZnmaOiKAbTtkGbSyE7FUVh2G1v0WXMHXLELcnPTOHr+3o4dXdQZEIjbv5wPX4BFmuIuBdCMOfdKU7NfrCDfUAHIYT65XEr0Jo5esuc452aNUZg6JTXPcYYAcJikhh886uy7FAG3PCC5xkjVQ/KS+7/jKQ2feSIFmgF3C6LnorHm6OiKF2B52VdK3Qde7f9k/EapOPwG2nYwTlTVLGN2tGyr+f2mzf4BXD5Uz9rdUHuBUVRXL9RvRbwWHNUFMWgKMoTwBprtg26kuY9xzDkFueOsGoNRWHgTS85ZWGp36SnqSrN6bkEhdXh0ke+0WJ6UgywVlGU1xVFsTlp0h3wyCtMUZQmwL/A69YkfruSmAatufThb2ptG6ArSGjameY9x8iyXUTENaBZz0tk2SNJbNWzKnNBe/gCTwD/mO41j8TjzFFRlB7AWqCXHNMKvv6BjH30W/wCPXDOTKLvNU/Jkl20G3q9x48az6fXhEeo37avLGuF3sAGRVFs6r2gdTzqKlMUZTywXOsVRAbd9DKxDTW7PuRQ4hq3d1geoqL40H6IfbtJ3A3Fx8Coez/R8rbIaGCxoihXywF3x2PMUVGUu4AZavrD1CZNuo6gyyVes+AHQIfhN8qSTSQ07+LQlgHuQlS9pnQbp+lFu0DgJ0VRPCflwlPMUVGUG4CPAU1P4Pn6BzH8jnedskihZVr2u8IhlXIadRoiS15Dn6v/j7AYm5pjVUvjzsMYMPlFBt74UtXKv/3XpAH4TFGUW+SAu2L3EXEktiSBK4oyDvjDNElsNSFR8XS55HYiEhpRlJPB/tV/cnLfevljDqHftc/QZ+ITsuwV/PnqNRxcb9/mimtfW6jV/D+XsGv5T8x7377BmV9AMJc98T1Nuo68QE/Zs5ZFnz9IZrLdbWKMwEQhxB9ywBJaSwLX1Lex1hwVRRkMzDMN661C8THQefSt9L/+OQKCL6zjuXHWhyz/7hmbqy1XR1S9ptzy4Xotzx05lS3zvmDJ1EdkWTUGvwAe+jXNYik5T6bSWMFXd3ch59RROaSaK57+lWY9ql/trzSWs/qX11k34x272jkAZaathovlgDm0Zo5u+1qtKEpD4HdbjDEiviHXvraQYbe/fZExAnQffz89xt8vy3bR/7rnvNYYARp3GipLVlEnsblXGyNUFWDuNeFRWVZN6wFX1WiMmIpV9L/uWSa9Mt/euV1/4FdFURrLAXfCLc1RUZQA06t0tByzRJuBE7n5/bUWV1D7Xfu0w3YoRCe1pGXf8bLsVUTVa0pwhO25+K5oqeoOtBsyyabGbygKvVUaa1Kb3kx++x97U4iiTAbptiMCtzRH4H2gqyyaw8fgy5Apr3Hpw1/hHxwmhy/C1z+IbuPukWWb6HXVo16Vm1cTsQ3byJJqopNaypJX4mPwo8PwybJskaTWvYmx4vgHR8Qw8aU5tB92gxyyhu7AO7LoLrjdHasoyiRTIQnV+AeGMOHZGXQbd68cMku7oddj8LVvg01kQiPaDLhKlr2SmAbqb06Z0Dp1ZclraW9DInyL3mNlySI+Bj9G3/sJPS5/QA5Zwz2KokyURXfAuiNcyyiKEgN8KOvmCAyN5Or/zaFRZ+vnvAKCw2nQXnVt3GrpMOxGj94iaA3R9W0f/QWF1ZElryUsJsnq67lx52GypA5FYdBNL9P76sfliDV8qiiKpjdmVIdbmaPpdTpGFmsiICSCiS/NpV7L7nJINY06255bp/gYaDfkWln2WuyZcwwK183xfNoOUj8YCwgOp05SC1m2iv7XPWtPWb06wJuyqHXcxhwVRRkEqHYav4BgJjw7w64m6gD1WthurE26DCM0up4sey32jP78HJBE7kk07jJc9RtJXOP2Vr+GV8fQ2960pxXvjYqiWDfcrWXsP2IuQFGUIOBLtXmZiuLDpQ9/TWJr+2tP2NMcvvVAj9tuahf2mGOlsUKWvJqgsDqq34jsTMs5h6L4cMmDX9hTF+BTd1q9dgtzBO4GmsliTfSd9CTNe10qyzbhFxhMULjVGUMoPgbb53k8FIMdHQKF0a6kZI+kqbTLpSbCHbjt0D8whPFP/mTrdtAW1i6m1iaaN0dFUYKBx2S9Jhp3Hkafqx27Rc+Wi6tui652jZQ8EXtGf0ajU9qWuDVJbdVtpQyLtf76NUdU3SYMudXmKcT/M93Tmkfz5mgaNcbLYnUEhUcz+oHPHLGJ/gLCYhJlySJNuoyQJa+n0g6DK87LkiWvJ65xB1VzieE2XL+W6DB88kX7s1WS4C59aCwf2VpEUZQQa0aNQ297k9CoBFm2G1tGjpZ24HgjxooyWVJNftZJWfJ6/INCiarXVJYvIsQJ9wTAsNvfxtc/SJbV8IQ7jB41bY7AbWoL1zZoP4A2/Z2TbB0cqeor/IeiEN+0k6x6PUU56bKkmoKsVFnSUblg6OukPf2RCY3ocblNNQgSgCmyqDXcwRwtoig+DL3tTYe/Tp/F2oIRkfGNCAyNlGWvJz/TdoPLTT8uSzpARLzllWhnFuzoPv5+AkOjZFkNmn+11qw5mvpSqNpv1mbg1fakF1jE4Gtdqci4xu1lScfOV+PTR7bLkg4QFm15PtHH13nmGBAcbmsFq3aKotifa+dENGuOwK2yUB2Kj4E+Tu7QZu2T15EVmz2JnFPHZEk12WlHKC3Kk2WvR405Gpzc3rXT6Cm2NovT9Ku1Js1RUZQIQNUEYrMeo4mq69zukNY+ecP0XTHVYtfoTwj7ft9DUZODa+31ay2BoVG0G6x689r5XKMoiuUSWbWEJs0RuFxto6yuY53feMhg7chRN8eLKC8p4szJg7JsFSm7V8uS12NQYXyislKWHI6Npc1CAc0WOtWqOY6WheoIja5nb0FOVVibvBwQEiFLXk/60R32lt7nyOZFsuT1+Kh4ZS4rLpAlh5PQrIutNTdHyYJW0Jw5KopiAFTtu2vZ+zJVSbD2UlacL0tmUfM09zaO71wpS1aTdmAzRbmZsuzVqCk+Ye31ays2VrsfobjiJrYBLX6pHqYSRxZp2fdyWXIKpUXWXVyKiqe5t3F480JZshohKjmyRR89nk95aZEsXYQrRo4ATbureuGTiQG6yaIW0KI5qtqTFFqnLomtXbMLxdqLy0fF09ybKM7LIu3AZlm2id3Lf5Elr6Y4/4wsXYS116+tJDTrbGt+ryZfrbVojqqqyzbuPNQlr9TY8FpSWqinnJzP4c0L7Z5vPMvxHf/oCeHnUZKnxhytu35tRVF8bN0ZpuqedzWucReVKFWNa1VlUCc06yJLTsPaJ29xvl4k4Xx2Lf1RlmxGiEp2Lpkuy15LQfYpWbqI4oJsWXIaCc06y5IaLO+BrAU0ZY5AfUDVuDyhuevMUc2ry/noFWT+I+fUMY7vWiXLdrFjyfcYy0tl2SvJPL5Xli6iINP2nUnWYuOgJUpRFM3lv2nNHNvJQnX4GPycul1QpsDKbW/5epGEc+xcOh2EkGW7KMhKZecyx41G3ZnM43tk6SLyXGmOTW0aOaL23nclWjNHVa/UsQ3b4GtHVWlrybfy4lLzNPcGKsqK2bF4miw7hPUz3rGrPqQnUGksJyvlgCxfhD172q0lPDbJ1rUA3RwtoGo4aEvxWVspLcylrKRQls2im2MV2xd9R2H2aVl2CLnpx71+5Tp1/0ZV0wv5mSmy5DQUH4OtnSJV3fuuRGvmqKpigz0tPq3F2lEjQMGZNK+fdzSWl7J+5vuy7FBW/fiS1YtlnsTRrUtlqVrys9IcPrVhDqvrn1bhuhGPSrRmjqpKFgdHutAcbXwlSd7xjyx5FTsWf+/0ArUFZ9JY/fOrsuw1HNu2TJaqxVheSqEdhYatJcS2wYuqViiuRGvmaLnEiO0H3ybyMmx7JVF74XoiJQXZ/PvzK7LsFDbP/YzMZMuLEp5GXvpxTh3cIss1knXS8tyko7Cx+G2MLNQ2WjNHVZV4AoJdV9ghK2W/LKnCm81x5fQXXTatUGmsYMGn91ldHMTd2bnsR4RQX23HlfPglZU2nQtV974r0Zo5qlqCrnTQbgs1ZNg4KsnLOMHJfetl2eM5dXgr2xd9J8tOJXXfBtb8+oYseyxCVLJz6Q+ybJasE/tkyWkYy23KItDN0QKqNiXb08XOWuy5qJyVxqJVKspKWPDRPQ7bKmgNa39/ixNeUu/x0Pq/ybNyC6VLR462pVipuvddidbMUdV43MaDbzUlBTkUnEmTZdXs/3emV62mrpj2LOlHd8qySxCVRua+eytFuRlyyKMQopJ/bViEcqU52jh4semXnInWzNFy0hZgLHfNcbT3giorKWTbgq9l2SM5tHE+W/6eKssuJT8zhZmvTKSirFgOeQwH1swm49guWbZIcV6Wyx4cNs43u2bEYwVaM8dcWagOV53kzBP2mSPAhj/ftzqJ3N3IOXWM+R/e5dJcuppI3b+Rue/dZtVihbtQXlrEP98/L8uqOXVI/eq2PVj7ym/CddUxVKI1c1RV5tlVJatOHbS/BmFRbiZb5nwmyx5DSUEOf7x0pa2jBadwYM1sln/zlCy7PSunv0jOqaOyrJqT+zbIksMpys20dTCg6t53JVozR1WZqjY+mazGURfTuj/ecdl3diXGijJmvXatqv29rmbTX5+w9KsnNDGadQQpe9ayZe7nsmwVqS7InshNT5YltbjmddAKtGaOqhob55xW9TG7KCnIsTnHUaasuIAFn97vMTcqpvzCv9+73eHlyBzJ5jmfsnjqw25/3AuyTzHn7ZvtnipIO7DJ6fmg2WmHZUkttg+JnYTWzFHVkS3Oy7K6xqK1pO7f4NCb6tjWpexY8r0suyWVxnLmvH0z+/79Qw5pjq3zv2Luu7dSUVYih9yCirJi/nzlGpu3sZ5PWUkhGcm7ZdmhpNr+tqXq3nclWjNH1UmFdpwEVTgjgXvJF4+SdmCTLLsVxvJSZr1+PfvXzJJDmmXPyt/4+alRTt/r7WgqjRX8/f4dpDlg7vsszriuzydlz1pZUotjXtMciNbMUfVVcHKvzSdBFc6Yn6koK2Hmq9e4tISUIynKzeS35y/j0IZ5ckjzpB3czPePDrLn5nUpxvJSZr95A/tX/ymH7OK4EwuilBXl2zMydc1SuhVoyhyFECmAqqzrlL3rZMlhlJcWOe0JW5h9mhn/m+CydCRHkXFsF9MfHejWu1AKzqTx89Oj+ef751TVQawtykoK+ePlqzm4bq4csptj25Y57W8/uW+drbujUoQQlpvhuBhNmaMJVa536tAWpyX7Jm9f4dQ5qozk3fz05EiHzCO5gj3//MqPTwxzWQqVMxGVRtb/8R7fPzLQZXl/1pB+dCffP9zfaYVLyooLnPaAO7BujiypxTkjETtRZKE2EUKgKMo9wMdyrDoue2I6LfuMl2W7Wfjp/Wxf+K0sO5yIuAZMeH4m0Ukt5ZAmKMrNZNHnD3JgzWw5ZBcGX38i4hsSVa8pQeHR+AeE4BcUQmBIFGXF+RgryigtyqO8pIicU0fIOXXMKSNtRfGh7eBJDLj+OUKja7m/kxBsW/gNy77+P6c+mAG6jr2bobc6tlBHpbGcT25sZutC6Z1CiKlVzUe1g6a+jckcW6pdmGnR5zLGP2FddRKLCMFnU1q7bFTnHxjCsDvfpd3ga+VQ7SEE+1bPZOmXj9tdJFVRfIhp2Ib6bfuS1KYPCc06Ex5bHx+Dr/xRs5QVF5CRvJuTe9eRsmcNJ/eus/VGvAi/wGC6jb2HrmPvcmmV+bOkHdzM0q8ed/oi41mi6jbhts+3y7JdHNm8iBn/u1KW1dJUCHFEN0czCFPqjKIoB4DmclzG1z+Ie6cdxj84TA7ZzOkj25n2UD9ZdjrthlzHkCmvExiqqjOt00g7sIllX/+fXXOuiuJD/bZ9adX/Slr2GU9QuKoaxlYhRCUpu9ewf80sDqyZrap/syV8/QNpO3gS3cbdS3RSCznscDKSd7P+j/fYs/I3h6aNqWHKxxuJrt9Klm3m7/dvZ/fyn2VZDXuFEG2ouu/lWK2iqW9znjm+BDwjx6vjkgc+p92Q62TZZlb/8lqtld4PCqtDv2ufoePIm60eWdnLqUNbWD/z/aoUHRtv1OCIWDpfchsdR9xEaJ26cthpCFHJ0S2L2TTns6q5Ohu//zkUhXotu9O6/wRa9r2c0ChV3TtUYSwv5fDGBWz5e2qtJtD3vOJBBt74kizbREH2Kabe1s7WhZ4XhBAvopujec4zxw6AqnF/XOP23PTeanDEgRWCL+7sQM4p5+/AMUdMg9b0uPwBWvW70qktaCuNFRzetJBNf33MiV3/ymHVRCY0pucVD9F28CSnfl81ZJ3Yx/qZ77N7+c927yjB1E2vbvMupmmBviS27mXV6F5UGslOO8KJ3as5snkhx7Yto7ykSP6YywmJiueur/fiY/CTQ1az4rtn2PDnB7KslrZCiD3o5mies+ZI1YHaBHS94AM1cNXzM2ncZbgsW03y9hX8+txYWa41giNi6DD8RtoMuJqYhm3ksE0IUUnKnrXsWzWD/WtmUZRr+37/gOBwel/9OF0vvRODX4AcrlXSj+5g+bfPkLx9uRyym+CIWKLqNSUyoQmhdeLxMfjhHxgKQFlJAaWFuZTkZ3Pm5EEyT+xzWlaFvVz+5M8073WpLFtFaWEun01pZWvd0nVCiN5n/0E3RzNI5ngb8MUFH6iBBu36c80r9icmz31nStX8jwYJj2tA064jqN+uP7GN2hJVt6mqV+/ivCzOnDzIyX3rObH7X07uXUdJQY78MatpO3gSg29+leAIzfVFuoCD6+ay6LMH7F5Y8kSadh/Flc/8LstWsfrnV1n9y2uyrJabhRDnemro5mgGyRxDgBRA1TvMpFfmU7+d7QspJQU5fHpzc6enUTgKg18Adeo1IzA0koCQCAJCIhHGCozGckoKcigtzCU77TClhapKZKomKKwOI+7+wCkpVM6iOC+LRZ896FZbHl2Bj8GX26fuIDy2vhxSRc6pY3xzXw9bR8ZngCQhxLlf1s3RDOebI1UH62Xg6QvEGohp0Jqb3l9t8xzKpr8+YdnX/yfLOueR1KY34x7/3qELFK5k+6LvWDL1EVvL+HskXcbcwbDb35ZlVcz435Uc2bxIltXyohDihfMFrZmjFnfInM97QL4sVkfm8b1snKUqd/wijOWlbJj1oSzrnEfbQdcw8X9z3NYYATqOuImr//eXU1KL3JUdi6fZVJBj/5pZ9hhjodqNHrWJps1RCJEFqC6jvebX18k9bX2xze2LvrPpAvEW+k56ijEPfqG5RRdbqN+2L5Pf/ofIhEZyyCupKCuxuvVCzqljLPzkflm2ho+EELavBLoITZujidfUllAvLy1i9puTrZoDKSnIrrW8Rneg//XP0feaJx2TKqURIuIbcs3L83SDNLH7n19Vp3KVlxTx52uTKCmwueVLBvC6LGoRzZujECIHeFHWa+LUoS0s/PQBWa6RFd8967BtaJ5G32uepPdVj8myRxAeW59rXp5HRFwDOeR9CMHf799uOYtBCOZ9eKdN3Q/P41khhGNXCZ2EpoYD8oLMWRRF8TPVemwvx2piyJTX6DbuXlm+gANr/2LW647bXeNJdBx5MyPv9vx52KwT+5j+2GBb8/Q0Q0hkHImtexER15CwmHooig9lJYXknDpK6r4NZJ08YHHnUIN2/Znw/MxqE/lFpZEFH9/LzqV21TLYBnQXQlTbq0FrCzKa+jY1mSNVB647sBYwyLFqURSG3voGXS+9S46AabP/r8+MsbVTmkeT2Kon17wyD4OvvxzySA5tmMefr05yyI4aVxJVryltBk6kVb8rLFZ2yk49zJZ5X7Bz8TSz13yD9gMY+8g3hETFn9OMFWXMffdWewvvVgC9hBA1FrTWzdEM5syRqoP3NvCIrJuj37VP02fihSk6B9fNYd6Hdzk8B9ATCI1KYPJ7q9x6VdoW7ExmdilJbfrQa8IjNOky3Oq54Lz04yz89AGObl0ih84RGBpFh+GTqduiG2VF+exc+gMpe9bIH7OW14UQT8ri+ejmaAYV5hgEbADayTFzNOs+moadBlNZUc7hjQtqdcO/1rn8qV9o3nOMLHs8lcYKfnhsCKcOb5VDmiGucQcG3/IqDTsMlENWM//Du+x9RbaGHUBPIYTZHRa6OZrBkjlSdQDbABuBYDmmYx+t+l3JuMfO7ebyOjKSd/P9wwM0lyQeEBLBoJtepsPwySiKY9ZQjRVl/PR/IxzavKsGCk3zjHvlgIxujmZQY45UHcQpwFey7myCI2Kok9iCgJBwfP2DKC8pJD/zJHmZKW7/ih4YGsmtn27V/F5pZ7PyhxdZ97ttO0acQdPuoxh594dOKQGXfnQH3z8y0Nm9rC/YP20O3RzNoNYcqTqQnwB3y7pDURQadRxMy76X06z76AsmqWWyUw+TemAjx7Yu5fCmBZbTIjRG/+uf89i0HWsoLcpj6m3t7Mnjcwi+/kEMvfUNOo68WQ45FCe3BPlYCHGfLNaEbo5msNIcfYH5wDA55ggadhjIgMkvUre5qqppF1BpLOfYtmVsnf8VRzYt0vwqaFB4NHd8sQv/oKqyW97Ohj8/YMV3qmotO4U6ic257PHviW1k1dS6TeScOsaXd3WytWugOZYAo2tK26kO3RzNYI05UnUwo4A9gEOXVjuOuIkRd72P4qMua8gcuenH2fjnB2xfPM3WSslOZ8DkF+l15cOy7LVUlBXz6c0ta2X02LTbSMY+8q1DW39YYvabk+1N05E5BbQRQlh1ALVmjo6Z3a0lTAd/qazbQ+Muwxlx9wcOMUZMHQaH3fEOt0/dTseRNzvs3+soDL7+dBg2WZa9Gl//IIe23lBL9/H3c8XTv7rUGDH1L3IwS6w1Ri3i1uZoYq0s2EpgaBSXPvSlw1YEzycsOpGRd3/I5Hf+IbF1LzlcazTrOcbrF2Gqo+PIm63OIbQZRWHY7W8z+OZXauXh2bjzUEIi42TZHuxOitQCjncB1+OwE9H3mv9zejmr+CYdue61RYy4+wNNzPF1GK6PGqsjOqkF9Vp2l2WH42PwZcwDU+ky5g455DJ8DL407T5Klu3BYfdkbeIJ5rhDbc1HcwSF1XH6yuA5FIVOI2/h5g/X06BdfznqMvwDQ2jQfoAs65ho2s2hhnERBr8ALnt8Om0HT5JDLqdxZ4eta+YDdlWm0Apub45CCKNp14xdtB18Lb7+QbLsVCLiGjDxpTn0veZJp7zKW6J+u35es3/aFpo4oGlbTfgHhjDh2Rl2N7hyFA07DnLUNbjOdE+6PQ45GhrA7nnHVn0vlyWXoPgY6DvpKa5+cZbTX+llGnUeKks65xHfpKOj5+LAtOPl6v/NoWHHQXKo1ggMjaJOYnNZtgW770Wt4CnmaHO9dkw7X+q2sD6f0ZE07DiYG95aQXT9VnLIadRr4fw5NbdGUYhr3EFW7cIvIJgJz/3hkvlMa0lo3kWWbGGhLLgrnmKOa9RWC6+Oei171MoqoUxkQiOuf3OpI+d/zGKpzJUODusXjiltavyTP5LYqqcc0gTxTTrKkrVkAOtl0V3xCHM0zXHY3Lg6vmknWao1AoLDufLZ32k31OG5ZxcQGl3P5fl07khMg9ayZBOKj4ExD33hsgefLdRJbCZL1jLXU+Yb8RRzNDFHFtSitRGUj8GX0fd9SpdLbpdDDiOqbhNZ0qkGh7RRUBRG3v0hrfpdKUc0RWSC3deEzfegFvEkc1wAmK0XVxNhMYmyVOsoig/D7niH7uPt6vJWIwHB4bKkUw0BIRGyZDWDbnzJLfJJI+Ia2LNiXWraT+0x2HwktIYQogBYLutqcEY5KEcx+OZX6DbuHlm2G7/AEFnSqYaAYPvMsfPoW+lxufqGb7WJwS+AwNBIWVbLUiGE3fnGWsJjzNHEL7KgBi3sVDHHkFteo/Mlt8myXfjr5qiKgBDbR9iJrXsx5NY3ZFnTBIXVkSW1/CwL7o6nmeMfpsrDVqH5ZvWmvbct+4yXIzZjx+uTV1FZUS5LqgiJiueyJ6a7XZJ9YLhN5lgEzJJFd8ej7hAhRCEwV9Yt4aOBNB5LKIoPlz78lcO2G5YWe9QbkNOwtWXrqHs+dssmZX4BNnUfmW2a1vIoPMocTfwoC5aoKCuWJU1i8Atg/JM/EZnQSA5Zjbu3dXAVZTY8RDoMn+zoQg4uxKZKRFbfc+6AJ5rjAmsTwstLi2RJswSGRnLZ49OrbbxuDSWF7tXGobawtt1FWEwSQ255XZbdBsXHaks4AyyWRU/A6iOhdYQQ5cAMWTdHaYF7jaLim3ZiyBT7bsDcU8dkSacazqQekiWzDJnymlsn14tKq1t6/CKE0Fa7RgfhceZowqphfn7WSVnSPJ1GTbFrt0VhTjpFuVYNsL2SrBP7ZKlGGnYc7NBFs9qgrChPlixh1b3mTniqOa4GjspiTeRnpcqSWzDSzoK5mScsthL2erJS9stStfgYfBl2u3ZautqKlXPRyZ5UhUfGI81RVHXqUp3zmJN2RJbcgvC4BvS/7llZVk3aAac3dHdrKo3lpB3YJMvV0m7ItUQntZBlt6PEOnP80XSveSQeaY4mpstCTWQed98RVOdLbre5OMKxrR6128vhnNy7XlUqj8HXn95XPS7LbkdFWQnFeVmybA6PS/w+H481RyHEXkDVkDAjebcsuQ0+Bl8GTv6fLKsiZc9aVTe/t3Jsu7rdqB1H3kxEfENZdjty05Ot6bF+RAjhEe0QasJjzdHETlmojtyME9Y+MTVF0+6jSGrTR5YtYqwo46g+eqyRg+ssF5nxMfjSw0nFQVxNTprqaXqA7bLgaXi6Oe6QhWoRgpQ97j2v3GfiE7Kkih2LpsmSDpC6b4Oq6ZYWvS8j3BFlzTTAmZMHZMkc6u4tN8bTzVHVyBEgZY97d5Ns1GmITf2wj25bSrabLkg5kx1L1D00ul92ryy5LakqF59MqL633BXdHE0k71ghS25H98vukyXLCMGORd/KqldTnJfFvlV/yPJF1G3elbotusmy23LqoFXZC/rI0c05BKhacUg/upO89OOy7FY063EJYdHWF+7dOu9LCnPSZdlrWT/zPcpKLBd36jD8RllyWwpz0slVf/3nqV3sdGc82hyFEBXWFMA9tMHmNjSawMfgS8eRN8myRcpKCln3u/snMDuCguxTbJ33pSxfhK9/EK36XSHLbsuRzVY18FzqSb1iasKjzdGE6rN+cL3V1c40R/thN9hUq3Hbwm/I0fdbs+qH/6kqRNKi9ziHtFDQClYODFTfU+6M9XeR+6G6j+7xnavIyzghy25FWHQiSW1tSOspL2XBR3eD5254sMjxnSvZufQHWa6Wln0vlyW3xVheSrLKnE4Tujl6AkKIg2rnR4SoZPdy90/6b91/giyp4viuVWyZb/mV0hMpLy1iwcf3qno4+AUE06jTYFl2Ww6sm2PNZoCDQghV95O74/HmaMJyNq+JXct+VHWDaJkWvcfZ9GoN8M+0Z8lKsSrfzSNYMvURck6pS4Ju3HW4rRWzNcn2Bd/IkjlU30vujm13kPvxtSzURHbaEQ5vUv0mrkmCI2KJb9pJllVRXlLEjP9d4dY7hqxly99TVb9OA3aVitMaWSkHOL77X1k2h7oEUA/AK8xRCLET2CbrNbHpr49lye1o3MX2Gzj3dDJz3p2CqPT4BUlO7PqXZV8/KctmadB+gCy5LZv++tiaN6UNQgiPz288i1eYownVmc7JO/4h/ah7XwONOto3J3Zs61Lmf3SPNYUI3I60g5uZ+cpEKo3qOwyGxSQRVbeJLLslZ1IPsXOJ+hGzNfeQJ+BN5vgjUCqLNbHmV/fqNyyT0KwLip1dFXct+5H5H93tkQaZfnQHv79wOaVWVr5OsmGLplb598eXrHkwFFtTI9UT8BpzFEJkAd/Jek0cWDeHU4e3yrLb4BcYbHOdx/PZtfRH5n1wJ8YKz2kTcnLvOn59bhwlBdlyyCK2zuVqjZQ9a9m3+k9ZNsdXQgjruo25OV5jjiZeBdTd5UKw6oeXZNWtSHDQjbx7+c/8+uxYj+g5s3vFL/zy7KU2LzjFN+kgS25HWUkh8z64w5q5xnLgHVn0dLzKHIUQx61pCHR0y2IOrnPfXTNR9ZrJks2k7FnD9McGue1cbKWxnH+mPcvf79+OsVz17MpFxDZqJ0tux4pvn1adtmTiWyFEsix6Ol5ljiZeASpksSbmf3SXNRvyNYWjFw5yTycz/dHBrPv9bSqNqg9hrZN1Yh/THxvC+pnvWzNaugi/gGCCI2Jl2a04uP5vti20Kq/RCHjlxnuvM0chxGFA9TaQkoIc/npzslvOuTmjCKuxooyVP7zIT0+OIDN5jxzWFMbyUtbPfJ9pDw/g9GHVmVw1Eh6bJEtuxZnUQ8x7/3ZrHxCfmnaZeR1eZ44mngYyZLEm0g5uZsW3z8iy5gkMjZIlh5G6fyPfPtiHBR/fS0H2KTlc6xxY+xdf39udf6Y9S0VZsRy2ibAY9zXHspJCZr12rbWr8+nAc7LoLXilOQohsgGr3G7z3M+sfR2pdQKdXDVGVBrZsXgaX97ZkX+mPUt+Zor8EZciRCUH1v7FD08MZdbr11k7r2YRv8AQWXIbFnx0j6q2DxJPeNsK9fkoslCbuLIFrlK1+Xgd0F2O1YTiY+Dyp36mWffRckiTlJcW8d7V8bLsNHwMvrTofRldL72TxFY9QXHN5VWUm8m+VTPYPPczp7Z8aDNwIpc+/JUsa57VP7/K6l9ek2VLrAX6urIvteKi60Utmvo2LjwPUHUy2gCbgCA5VhN+AcFMfGku9Vqq9tRao7Qwlw+urZ1XwbCYJFr2uYyWfS+nXotudiekyxTmpHNk8yL2rfqD5B0rXLJA1GH4ZEbd+4ksa5ot875gydRHZNkSRUBXIcQ+OeBMdHM0g6vNkaoTci/wkaybIyisDle/OFvzCcGFOel8cmNTWXY5/kGhJLbqRWLrntRr2YOouk0Jj01SbZilhbmcST1EVsp+Tu5dR8ru1bVSOah1/wmMfdR9dtDtXfk7c9+91ZYdTncIIb6QRWejm6MZaskcFWA2MFaOmSMgJIKrnptJvVY95JBmyEzewzf395RlTeBj8CMirj5h0YkY/APxDwrFPzCEykojZcX5lBUXUFKQQ35mimaSz5t0HcmE52bIsiY5tHE+s1+/3pYsi9lCiPGy6Ap0czRDbZgjVSclzvR6XV+OmcM/MIQrnv2dBu36yyFNcGjjfGa+fLUs69hI3eZdueFt7Xep3L38Z+Z/dI81+6bPkgx0E0LUytNIa+bolavVMkKIdGAcYLnl3HmUlRQy48Ur2LX8JzmkCbJPemV6mtPIStlvbY6gy9n018f8/cEdthhjATCutoxRi+jmaEIIsQ2YDFg1QVNRVsK89+9g+TdPaa7+4YldVhUx1bFAWXEBuRrtMSQqjaz47pmq2pTWG3glcL031WpUg26O5yGEmAk8K+tq2Dj7I35/8QrNJERXGsutrfCso4ITO1fJUq1TlJvJby+MZ8OfH8ghtfyfEGK2LHo7ujlKCCFeBWwq5nhs2zK+vqcb2xfW/orm/tWzKCvKl2UdO9m/dpYs1SqnDm1h+qMDSd5u81zoe0KIt2RRRzfHmngS+FQW1VBamMvCT+/nr7duqtVR5Oa5n8mSjgM4tm05BWfSZNnlVJSVsPKHF/nh8WH2FEb5RAjxsCzqVKGbYzWYdgXcZ02BCpl9//7Bl3d2ZPUvrzlsb69adi39kdT9G2VZxwEYy0tZ+9ubsuxSUvasZdpD/UzVkaxeeDnLVNM1rlMDmlo7r61Unpow5UA+b/qxmfC4BvSa8AjtBl+Lr3+gHHYoOaeOMu3h/pQW5sohHQfhY/DjujcWU7d5VznkVLLTjvDvTy+zd9UMWxZdzucN4ElXbg1Ug9ZSeTT1bTR2rs6hKMrDppp2dh2v4IhYul56Jx2G30hIlOP3PGel7OfXZ8dq4rXP0wmNSuCGd1YQFp0ohxxOfmYKa357k51LfrBnpIhpVfphIYTNKzfORDdHM2jVHKk6cWOAn4BwOWYtio+Bxp2H0mbQRJp1G41/cJj8Easozj/Dpr8+YfOcTykrLpDDOk4iNLoew+94l+Y9x8gh+xGC5B3/sHXBVxxa/7cj9o4XAJOFEFY1jnElujmaQcvmSNXJaw/MAhxWYtvH4Evd5l1p2HEw9Vp2I6ZBG8JjLWzUEYKskwdI3b+Rg+vmcHTrUrtK/zsLg68/EXENCItNIiwmkYjYBoTHNSA8JpGA0Ej8AoIx+Abg4+ODf7D5Z05RbgZFuRkUZp+u+snNoCArlTMnD5J5fK+1dQodSoP2A+g+/n6adB1OVbEnGxGCtENbOLhuDvvXzCI79bD8CVs5DIwXQuySA1pCN0czaN0cqTqBdYCvgMvlmKMICIkgLCaR4LBogiJizullxQXkZ6aQl36cshKrNvM4HV//QGIbtSOhaSfim3YmvmlHYhu2wcfgJ3/UKeSlHyfj+F4ykneTcXQnx3etojD7tPwxpxIalUDT7qNo1GkIcU06EpXQGHNl20oKsslKOUDagU2kHdzMid2rKchKlT9mLzOA2001TDWNbo5mcAdzPIuiKJNN6T7uWwHVDnwMviS26knjriNo3HkosQ3b4mPwlT9Wq2Qm7+HY9uUk71jBiZ2rXP5A8QsIJrROAoFhdfAPqpo6KSvKo7y0yBUPuGLToosm5xerQzdHM7iTOVJ1MlsAXwAD5ZgnEhIZR5OuI2jSdQSNOg0hwMmVxh1JpbGc5B3/sHfVDA6unVOrr+EuYLlptHhIDmgZ3RzN4G7mSNUJVYBbgdeAaDnu7vj6B9Gi9zjaDppIo05DVNdg1DLlpUXsXfk7W+d9yekj2+WwO5Np2sDwtdbSdNSgm6MZ3PB8nkNRlChTX5p7AX857m6E1qlLlzF30HHkzQSF1ZHDHsPhTQtZ/dMrnDq8VQ65E6Wmgs2vuHPPF90czeDO5ngWRVEaAE8AU4AAOa51gsKj6TH+AbqOvcvpCeuaQQh2r/iFZV//H8X5Z+SolikBvgbeEEJos1yQFejmaAZPMMezmAro3mIqg9ZajmsNRfGhy5g76H/D8/i7cZc9e8jLOMHMV64h/ajmK3dtAL4HfhZCuJWbm0M3RzN4kjmej6IovU0XczM5pgVCouIZ99g06rftK4e8jvKSIn59fiyp+zbIIS1wyFR3cb0c8AR0czSDp5ojVSc+zJT6c70cq02i67fiqudnWk489yKKcjP45r6eFOVmyKHaZAZwmzvPKVpCa+ZoRzq/jjUIIfKFEDcAN5q2ctU6IZFxujFWQ3BELD0uf0CWa4ti4EEhxFWebIxaRDdHFyOE+B7oBtT68uiwO97RjbEGGncZJku1wW6guzslcnsSujnWAkKI/UBv4EOgVuYSIhMa06L3OFnWMRFgYa+3kxGma6OrEGK3HNRxDbo51hJCiFIhxAPAZYDLS4bHN+loX5EEDyc7tdY2l6QBY4UQDwghtFdNxIvQ745aRggxx5Tq84UccyZa2wetNfavrpVeMb8D7YUQf8sBHdejm6MGEELkCCHuACYA6XLcGaQd3IQQVnWh9RoKc9LZs/I3WXYmp4DLhRBXCyGy5KBO7aCbo4YQQvwBtDTNNznVuXJOHePwxgWyrAOs/ukVVxUNFsB002ixVoaqOjWjm6PGMI0iHzBV+nFqcdKlXz5GeUmRLHs1J3b9y/ZF38myMzgADBVCTBZCZMpBndpHN0eNIoT4F+hi2qftlPpauenHWfHd07LstRTmpDPnnVucPd2QCzwOtBNCLJeDOtpBN0cNI4QoF0K8aWrL8CFgdyMRma3zv2Lnkumy7HWUlxYx8+WrndmcrNL0Ct1SCPGWEMKuTlk6zkc3RzdACJFletXuBMyT4/ay8NMHvHr+sdJYzpy3bybt4GY55CjmmuYVJwshXNu7QcdmdHN0I4QQu4UQY0wJ5HPluK1UGsuZ/eZkjm1bJoc8HmNFGbPfnMyhDQ5/5gAsAXoJIcYKIfbIQR1to6md3p5ceMIZKIrSF3gBcMheN4NfAJc+9CUt+zqtd5imKC8p4q+3JnN400I5ZC+LgReEEGvkgE7NaK3whKa+jW6OtqEoSifgLlPtSLsq1Co+Bgbd9BLdL7tPDnkUBdmnmPnS1Y6sAF4GzAbe8dSSYs5GN0cz6OZoH4qi1APuAe6wt59N28HXMvLuDzyyGnjagU3MeuMG8jNT5JAtZAJTgU+EEE5bzfEGdHM0g26OjkFRlABgBHCDqb+2TXsFYxq0Zuwj3xDbqJ0cclu2L/yWJV88irGiTA5ZQyWwzLT6PEMIoSeLOgDdHM2gm6PjURSlvqmG5F1APTluCb+AYAbf8iqdRt6CuQb1WqfgTBqLPn2AQxvnyyFrSAU+B77zhJ4tWkM3RzPo5ug8TCa5zNZWDfXb9WPk3R9SJ7G5HNI2QrBr2U8s/foJSgtz5ag17AVGCCEc8i6uczG6OZpBN0fnoihKkqnhu00GafALoMflD9DziofwDwqVw5rj9OFtLP3qCVL22L1ovBG4RN/m51x0czSDbo7Ox7RoswBoL8fUEhwRS99rnqTjyJvwMfjJ4VonL+MEa359nZ1LfnDEVsCfgNuFEIVyQMex6OZoBt0cXYOp2dcfwHA5Zg3hcQ3oftm9dBh2I36BwXLY5eSlH2fjX5+wfeE3VJSVyGFrKQWe0FsUuA7dHM2gm6PrMK1ofwNcK8esJSg8mk4jb6H9sMlEJjSSw85FCJJ3rGDr/K84tGEelUaHbD/fCdwkhNgiB3Sch26OZtDN0fUoivIA8K5DtpIqCg3a9afd4Gtp2n0UQeF2pVqaJTN5D/vXzmbvP79xxnEtDcpNx+J5vUWB69HN0Qy6OdYOiqJcAnxvb+L4+Sg+Buq17E7TbqNIbN2L+Kad8A8MkT+mmsKcdE7uXUfKnjUc2bTQkYZ4lsWmFqj6HuhaQjdHM+jmWHuYVrJ/BAbIMUeg+BiIrt+SmPqtCYtJJDw2iZDIeBRFITA0EoCK8jIqSosoKymktDCXnLQjZKcdITvtEDmnjsn/SkexH3hWCPG7HNBxLbo5mkE3x9pFURSDqRDr80CAHPcwDgGvAd8LIRwyUaljH7o5mkE3R22gKEob02JNTznmAewxmeLPQgijHNSpPXRzNINujtpBqbpSbwDeAuLkuBuyGngDmCv0C02T6OZoBv2a1R6KokQBT5uq/bhbiZ5TpnnUr4UQe+WgjrbQzdEMujlqF9OCzTPATRqfjywB/jKtvi/U5xPdB90czaCbo/ZRFCUBuA+4DYiV47VEJbDOVELsVyFEtvwBHe2jm6MZdHN0H0wr24NN1cevBFy9f7AE+NfUS+d3IUSq/AEd90I3RzPo5uieKIoSCVxtMsm+gO3Z3uY5ZmpaNQdYoheZ9Sx0czSDbo7uj6IofkAPYCAwyNQp0db6ZmmmEmvLgWVCiCPyB3Q8B90czaCbo2eiKEoi0NxUR7I50NC0VTHE9DoeZvrf/abaieuBjUKIZPnfpeO5aM0c/x8SOlOyPGvirgAAAABJRU5ErkJggg==;" parent="1" vertex="1">
          <mxGeometry x="690" y="22.5" width="75" height="75" as="geometry" />
        </mxCell>
      </root>
    </mxGraphModel>
  </diagram>
</mxfile>
